SplineFontDB: 3.0
FontName: Vaigai-Bold
FullName: Vaigai Bold
FamilyName: Vaigai
Weight: Bold
Copyright: Copyright (c) 1995-2015, NLCI (http://www.nlci.in/fonts/) Derived from SAU Vaigai Bold by ttfbuilder v0.33
Version: 1.0 Sat Jul 20 09:50:26 1996
ItalicAngle: 0
UnderlinePosition: -260
UnderlineWidth: 20
Ascent: 800
Descent: 200
InvalidEm: 0
sfntRevision: 0x00010000
LayerCount: 2
Layer: 0 0 "Back" 1
Layer: 1 0 "Fore" 0
XUID: [1021 577 1522184136 239666]
StyleMap: 0x0020
FSType: 0
OS2Version: 1
OS2_WeightWidthSlopeOnly: 0
OS2_UseTypoMetrics: 0
CreationTime: 1547921071
ModificationTime: 1550014651
PfmFamily: 17
TTFWeight: 700
TTFWidth: 5
LineGap: 0
VLineGap: 0
Panose: 2 0 0 3 0 0 0 0 0 0
OS2TypoAscent: 1052
OS2TypoAOffset: 0
OS2TypoDescent: -367
OS2TypoDOffset: 0
OS2TypoLinegap: 0
OS2WinAscent: 1052
OS2WinAOffset: 0
OS2WinDescent: 367
OS2WinDOffset: 0
HheadAscent: 1052
HheadAOffset: 0
HheadDescent: -367
HheadDOffset: 0
OS2SubXSize: 700
OS2SubYSize: 650
OS2SubXOff: 0
OS2SubYOff: 143
OS2SupXSize: 700
OS2SupYSize: 650
OS2SupXOff: 0
OS2SupYOff: 453
OS2StrikeYSize: 50
OS2StrikeYPos: 259
OS2Vendor: 'Alts'
OS2CodePages: 20000001.00000000
OS2UnicodeRanges: a01080ff.520021cb.08000028.00000000
Lookup: 260 0 0 "_holdAnchorsbase" { "_someAnchorsbase"  } []
DEI: 91125
ShortTable: maxp 16
  1
  0
  243
  183
  12
  288
  16
  1
  0
  0
  0
  0
  3
  0
  3
  2
EndShort

StartChar: .notdef
Encoding: 0 -1 0
Width: 500
Flags: HW
LayerCount: 2
Fore
SplineSet
31 0 m 1
 31 750 l 1
 469 750 l 1
 469 0 l 1
 31 0 l 1
438 31 m 1
 438 719 l 1
 62 719 l 1
 62 31 l 1
 438 31 l 1
EndSplineSet
EndChar

StartChar: exclam.taml
Encoding: 4 -1 4
Width: 334
Flags: HW
LayerCount: 2
Fore
SplineSet
237 370 m 1
 228.333333333 310.666666667 219.333333333 243 210 167 c 0
 206.666666667 140.333333333 202.666666667 105.333333333 198 62 c 1
 172 62 l 1
 170 78.6666666667 167.666666667 98.3333333333 165 121 c 128
 162.333333333 143.666666667 157.833333333 179.166666667 151.5 227.5 c 128
 145.166666667 275.833333333 138.666666667 323 132 369 c 0
 131.333333333 373 131 378.666666667 131 386 c 0
 131 405.333333333 135.833333333 421.166666667 145.5 433.5 c 128
 155.166666667 445.833333333 168 452 184 452 c 0
 219.333333333 452 237 424.666666667 237 370 c 1
236 -25 m 0
 236 -40.3333333333 231.333333333 -53 222 -63 c 128
 212.666666667 -73 200 -78 184 -78 c 0
 170 -78 158 -73 148 -63 c 128
 138 -53 133 -40.3333333333 133 -25 c 0
 133 -11.6666666667 138 -0.333333333333 148 9 c 128
 158 18.3333333333 169.666666667 23 183 23 c 0
 197 23 209.333333333 18.3333333333 220 9 c 128
 230.666666667 -0.333333333333 236 -11.6666666667 236 -25 c 0
EndSplineSet
EndChar

StartChar: quoteleft.taml
Encoding: 5 -1 5
Width: 279
Flags: HW
LayerCount: 2
Fore
SplineSet
221 641 m 1
 184.333333333 629 155.833333333 609.666666667 135.5 583 c 128
 115.166666667 556.333333333 109 540.333333333 117 535 c 0
 120.333333333 532.333333333 124.333333333 531 129 531 c 256
 133.666666667 531 140.666666667 533.833333333 150 539.5 c 128
 159.333333333 545.166666667 167 548 173 548 c 0
 181 548 187.666666667 546 193 542 c 0
 215.666666667 527.333333333 227 507 227 481 c 0
 227 467 223.333333333 455 216 445 c 0
 210 435 201.833333333 427.5 191.5 422.5 c 128
 181.166666667 417.5 169.333333333 415 156 415 c 0
 151.333333333 415 141 416 125 418 c 128
 109 420 94.6666666667 430.666666667 82 450 c 128
 69.3333333333 469.333333333 63 491 63 515 c 0
 63 523.666666667 64 531.666666667 66 539 c 0
 76 586.333333333 104.666666667 623.666666667 152 651 c 0
 167.333333333 659.666666667 190.333333333 668.666666667 221 678 c 1
 221 641 l 1
EndSplineSet
EndChar

StartChar: u20A8
Encoding: 6 8360 6
Width: 812
Flags: HW
LayerCount: 2
Fore
SplineSet
735 90 m 0
 735 61.3333333333 723.666666667 37 701 17 c 128
 678.333333333 -3 652.333333333 -13 623 -13 c 0
 611 -13 596.5 -10.5 579.5 -5.5 c 128
 562.5 -0.5 553 2 551 2 c 0
 543.666666667 2 538.666666667 -1.33333333333 536 -8 c 1
 509 -8 l 1
 509 120 l 1
 537 120 l 1
 545.666666667 84.6666666667 557.166666667 60.3333333333 571.5 47 c 128
 585.833333333 33.6666666667 603.333333333 27 624 27 c 0
 635.333333333 27 645 30.6666666667 653 38 c 128
 661 45.3333333333 665 54 665 64 c 0
 665 78 657.666666667 90 643 100 c 0
 637.666666667 104 621 112.333333333 593 125 c 0
 567.666666667 138.333333333 551.333333333 147.666666667 544 153 c 0
 520 170.333333333 508 193.666666667 508 223 c 0
 508 251 517.333333333 274 536 292 c 128
 554.666666667 310 578.666666667 319 608 319 c 0
 619.333333333 319 633 316.333333333 649 311 c 0
 659 307.666666667 665 306 667 306 c 0
 674.333333333 306 679 310.333333333 681 319 c 1
 712 319 l 1
 712 198 l 1
 681 198 l 1
 673.666666667 229.333333333 664.5 250.833333333 653.5 262.5 c 128
 642.5 274.166666667 627 280 607 280 c 0
 596.333333333 280 587.166666667 277.666666667 579.5 273 c 128
 571.833333333 268.333333333 568 261 568 251 c 0
 568 236.333333333 576.333333333 224 593 214 c 0
 616.333333333 202.666666667 634.666666667 194 648 188 c 0
 676.666666667 173.333333333 696.666666667 160.666666667 708 150 c 0
 726 133.333333333 735 113.333333333 735 90 c 0
477 -3 m 1
 341 -2 l 1
 189 201 l 1
 159 201 l 1
 159 85 l 2
 159 61.6666666667 161.333333333 46.3333333333 166 39 c 128
 170.666666667 31.6666666667 179.666666667 28 193 28 c 2
 223 28 l 1
 223 -3 l 1
 10 -3 l 1
 10 28 l 1
 36 28 l 2
 48.6666666667 28 58 31.8333333333 64 39.5 c 128
 70 47.1666666667 73 62.3333333333 73 85 c 2
 73 369 l 2
 73 389 70.1666666667 402.666666667 64.5 410 c 128
 58.8333333333 417.333333333 49.3333333333 421 36 421 c 2
 10 421 l 1
 10 452 l 1
 181 452 l 2
 249.666666667 452 300.166666667 443.166666667 332.5 425.5 c 128
 364.833333333 407.833333333 381 377 381 333 c 0
 381 305 373.333333333 281.666666667 358 263 c 0
 340.666666667 241.666666667 312.666666667 225.333333333 274 214 c 1
 305.333333333 174 330.333333333 142 349 118 c 0
 384.333333333 73.3333333333 405 49.5 411 46.5 c 128
 417 43.5 425.5 40.1666666667 436.5 36.5 c 128
 447.5 32.8333333333 461 29.6666666667 477 27 c 1
 477 -3 l 1
285 322 m 256
 285 345.333333333 278.666666667 364 266 378 c 0
 250 396 225 405 191 405 c 0
 177.666666667 405 167 404.333333333 159 403 c 1
 159 243 l 1
 196.333333333 243 226.666666667 250.333333333 250 265 c 128
 273.333333333 279.666666667 285 298.666666667 285 322 c 256
EndSplineSet
EndChar

StartChar: percent.taml
Encoding: 7 -1 7
Width: 593
Flags: HW
LayerCount: 2
Fore
SplineSet
515 159 m 0
 515 109 502.333333333 70.6666666667 477 44 c 0
 456.333333333 22 431.666666667 11 403 11 c 0
 381 11 363 16.6666666667 349 28 c 0
 323.666666667 48.6666666667 311 85.6666666667 311 139 c 0
 311 193 324.333333333 233.666666667 351 261 c 0
 371.666666667 281.666666667 394.333333333 292 419 292 c 256
 443.666666667 292 464 284.333333333 480 269 c 0
 503.333333333 246.333333333 515 209.666666667 515 159 c 0
449 506 m 1
 149 9 l 1
 85 8 l 1
 385 505 l 1
 449 506 l 1
229 378 m 0
 229 324 215.333333333 283 188 255 c 0
 167.333333333 234.333333333 144.666666667 224 120 224 c 0
 96 224 76 232 60 248 c 0
 37.3333333333 270.666666667 26 307 26 357 c 0
 26 408.333333333 38.3333333333 447 63 473 c 0
 83 494.333333333 107.333333333 505 136 505 c 0
 152 505 165 502.666666667 175 498 c 0
 211 481.333333333 229 441.333333333 229 378 c 0
454 124 m 0
 454 158.666666667 448.666666667 183.666666667 438 199 c 128
 427.333333333 214.333333333 413 222 395 222 c 0
 386.333333333 222 380.5 219.5 377.5 214.5 c 128
 374.5 209.5 373 199.666666667 373 185 c 0
 373 115 392.666666667 80 432 80 c 0
 446.666666667 80 454 94.6666666667 454 124 c 0
168 332 m 0
 168 366.666666667 162.666666667 392.666666667 152 410 c 128
 141.333333333 427.333333333 126.666666667 436 108 436 c 0
 94 436 87 421.666666667 87 393 c 0
 87 359 92.3333333333 333.833333333 103 317.5 c 128
 113.666666667 301.166666667 127.333333333 293 144 293 c 0
 153.333333333 293 159.666666667 296 163 302 c 128
 166.333333333 308 168 318 168 332 c 0
EndSplineSet
EndChar

StartChar: ampersand.taml
Encoding: 8 -1 8
Width: 503
Flags: HW
LayerCount: 2
Fore
SplineSet
481 95 m 1
 471.666666667 62.3333333333 458.166666667 38 440.5 22 c 128
 422.833333333 6 401.333333333 -2 376 -2 c 0
 356.666666667 -2 337.333333333 2.66666666667 318 12 c 0
 308 18 298.166666667 25.1666666667 288.5 33.5 c 128
 278.833333333 41.8333333333 271.333333333 48.6666666667 266 54 c 1
 221.333333333 16.6666666667 176.333333333 -2 131 -2 c 0
 98.3333333333 -2 70 8 46 28 c 0
 24.6666666667 48 14 72 14 100 c 0
 14 125.333333333 23.3333333333 151.333333333 42 178 c 0
 50.6666666667 190 63 202.333333333 79 215 c 128
 95 227.666666667 115 240.333333333 139 253 c 1
 123 289 115 318 115 340 c 0
 115 373.333333333 126.166666667 400.166666667 148.5 420.5 c 128
 170.833333333 440.833333333 198.666666667 451 232 451 c 0
 258 451 279.666666667 443 297 427 c 128
 314.333333333 411 323 391.333333333 323 368 c 256
 323 344.666666667 316 324.333333333 302 307 c 128
 288 289.666666667 262.333333333 271.333333333 225 252 c 1
 239 229.333333333 250.333333333 211 259 197 c 0
 272.333333333 176.333333333 284.333333333 158.666666667 295 144 c 1
 309 163.333333333 319.833333333 180.833333333 327.5 196.5 c 128
 335.166666667 212.166666667 339 226 339 238 c 0
 339 247.333333333 336.666666667 253.666666667 332 257 c 128
 327.333333333 260.333333333 320 263 310 265 c 1
 310 293 l 1
 457 293 l 1
 457 264 l 1
 445.666666667 264 436.666666667 263.166666667 430 261.5 c 128
 423.333333333 259.833333333 416.833333333 256.5 410.5 251.5 c 128
 404.166666667 246.5 393.333333333 228.666666667 378 198 c 0
 361.333333333 168.666666667 342 140 320 112 c 1
 326 105.333333333 333 98.5 341 91.5 c 128
 349 84.5 356 79 362 75 c 0
 374.666666667 68.3333333333 387 65 399 65 c 0
 411.666666667 65 422.5 69.1666666667 431.5 77.5 c 128
 440.5 85.8333333333 447.333333333 98.3333333333 452 115 c 1
 481 95 l 1
270 369 m 0
 270 379.666666667 266.166666667 389 258.5 397 c 128
 250.833333333 405 241.666666667 409.666666667 231 411 c 0
 217.666666667 411 207 406 199 396 c 128
 191 386 187 375.333333333 187 364 c 0
 187 353.333333333 188.333333333 343 191 333 c 128
 193.666666667 323 199.333333333 308.666666667 208 290 c 1
 249.333333333 312 270 338.333333333 270 369 c 0
238 87 m 1
 215.333333333 119 198.666666667 143.5 188 160.5 c 128
 177.333333333 177.5 166.666666667 195.666666667 156 215 c 1
 144.666666667 208.333333333 135.5 202 128.5 196 c 128
 121.5 190 116 184 112 178 c 0
 100.666666667 161.333333333 95 144.333333333 95 127 c 0
 95 107.666666667 102 90.1666666667 116 74.5 c 128
 130 58.8333333333 145.666666667 51 163 51 c 0
 173.666666667 51 185 53.8333333333 197 59.5 c 128
 209 65.1666666667 222.666666667 74.3333333333 238 87 c 1
EndSplineSet
EndChar

StartChar: quoteright.taml
Encoding: 9 -1 9
Width: 279
Flags: HW
LayerCount: 2
Fore
SplineSet
198 546 m 0
 187.333333333 498.666666667 158.666666667 461 112 433 c 0
 96.6666666667 423.666666667 74.3333333333 414.333333333 45 405 c 1
 45 442 l 1
 81 454 109.666666667 474.333333333 131 503 c 0
 149.666666667 527.666666667 155 543 147 549 c 0
 143.666666667 551.666666667 139.666666667 553 135 553 c 256
 130.333333333 553 123.333333333 550 114 544 c 128
 104.666666667 538 96.6666666667 535 90 535 c 0
 84.6666666667 535 78.3333333333 537 71 541 c 0
 48.3333333333 555.666666667 37 576.333333333 37 603 c 0
 37 617 40.6666666667 629 48 639 c 0
 60 658.333333333 79.6666666667 668 107 668 c 0
 111.666666667 668 121.833333333 667.166666667 137.5 665.5 c 128
 153.166666667 663.833333333 167.666666667 653.166666667 181 633.5 c 128
 194.333333333 613.833333333 201 592.333333333 201 569 c 0
 201 561 200 553.333333333 198 546 c 0
EndSplineSet
EndChar

StartChar: parenleft.taml
Encoding: 10 -1 10
Width: 294
Flags: HW
LayerCount: 2
Fore
SplineSet
324 613 m 1
 266.666666667 569 222.666666667 509.166666667 192 433.5 c 128
 161.333333333 357.833333333 146 276.666666667 146 190 c 0
 146 104.666666667 160.833333333 24.8333333333 190.5 -49.5 c 128
 220.166666667 -123.833333333 264.333333333 -184.666666667 323 -232 c 1
 304 -256 l 1
 217.333333333 -208 152 -144 108 -64 c 0
 66.6666666667 10.6666666667 46 94.6666666667 46 188 c 0
 46 282.666666667 66.3333333333 367 107 441 c 0
 151 521.666666667 216.333333333 586 303 634 c 1
 324 613 l 1
EndSplineSet
EndChar

StartChar: parenright.taml
Encoding: 11 -1 11
Width: 294
Flags: HW
LayerCount: 2
Fore
SplineSet
208 188 m 0
 208 94.6666666667 187.333333333 10.6666666667 146 -64 c 0
 101.333333333 -144 35.6666666667 -208 -51 -256 c 1
 -71 -235 l 1
 -13.6666666667 -188.333333333 30.6666666667 -125.666666667 62 -47 c 0
 91.3333333333 27 106 106.333333333 106 191 c 0
 106 277.666666667 91 358.666666667 61 434 c 128
 31 509.333333333 -12.6666666667 569 -70 613 c 1
 -51 633 l 1
 35 585.666666667 100.333333333 522 145 442 c 0
 187 366.666666667 208 282 208 188 c 0
EndSplineSet
EndChar

StartChar: asterisk.taml
Encoding: 12 -1 12
Width: 613
Flags: HW
LayerCount: 2
Fore
SplineSet
452 327 m 0
 448.666666667 321 443.5 316.166666667 436.5 312.5 c 128
 429.5 308.833333333 422 307 414 307 c 0
 405.333333333 307 397.333333333 310 390 316 c 0
 380 324.666666667 367.833333333 335.833333333 353.5 349.5 c 128
 339.166666667 363.166666667 328.333333333 372.666666667 321 378 c 1
 323 366 325.666666667 354 329 342 c 0
 335 322 340 304.666666667 344 290 c 1
 344 276 340.166666667 264.5 332.5 255.5 c 128
 324.833333333 246.5 315.666666667 242 305 242 c 0
 293 243.333333333 283.166666667 248.166666667 275.5 256.5 c 128
 267.833333333 264.833333333 264 276 264 290 c 0
 267.333333333 307.333333333 271.5 325.666666667 276.5 345 c 128
 281.5 364.333333333 284.333333333 375.666666667 285 379 c 1
 278.333333333 373.666666667 269 365 257 353 c 0
 239 334.333333333 226.5 321.833333333 219.5 315.5 c 128
 212.5 309.166666667 202.666666667 306 190 306 c 0
 173.333333333 306 161.666666667 312.333333333 155 325 c 0
 151 331 149 337.333333333 149 344 c 0
 149 363.333333333 158.666666667 376.333333333 178 383 c 0
 186 385.666666667 206 391 238 399 c 0
 248.666666667 401.666666667 258 404.666666667 266 408 c 1
 256.666666667 411.333333333 242.5 415.333333333 223.5 420 c 128
 204.5 424.666666667 190 428.666666667 180 432 c 128
 170 435.333333333 162.666666667 441 158 449 c 128
 153.333333333 457 151 465 151 473 c 0
 151 479.666666667 152 485.666666667 154 491 c 0
 162 503.666666667 174.666666667 510 192 510 c 0
 202.666666667 510 211.666666667 507 219 501 c 0
 231 489.666666667 243.333333333 477.666666667 256 465 c 128
 268.666666667 452.333333333 278.333333333 443 285 437 c 1
 283.666666667 447 281.666666667 456.666666667 279 466 c 0
 270.333333333 498.666666667 265.333333333 519.333333333 264 528 c 0
 264 541.333333333 268 552 276 560 c 128
 284 568 293.666666667 572 305 572 c 256
 316.333333333 572 325.666666667 567.833333333 333 559.5 c 128
 340.333333333 551.166666667 344 540 344 526 c 1
 337 500 337 500 330 474 c 128
 325.333333333 456.666666667 322.333333333 444.333333333 321 437 c 1
 328.333333333 442.333333333 341 454 359 472 c 0
 369 482 379.333333333 491.666666667 390 501 c 0
 395.333333333 505.666666667 403 508 413 508 c 0
 430.333333333 508 443.333333333 502 452 490 c 0
 454.666666667 484.666666667 456 478.333333333 456 471 c 0
 456 449.666666667 447 436.666666667 429 432 c 0
 427 431.333333333 414.833333333 428.333333333 392.5 423 c 128
 370.166666667 417.666666667 353 412.666666667 341 408 c 1
 349 404.666666667 361.833333333 400.833333333 379.5 396.5 c 128
 397.166666667 392.166666667 414.333333333 387.5 431 382.5 c 128
 447.666666667 377.5 456 365 456 345 c 0
 456 338.333333333 454.666666667 332.333333333 452 327 c 0
EndSplineSet
EndChar

StartChar: plus.taml
Encoding: 13 -1 13
Width: 433
Flags: HW
LayerCount: 2
Fore
SplineSet
328 182 m 1
 253 182 l 1
 253 106 l 1
 164 106 l 1
 164 182 l 1
 90 182 l 1
 90 266 l 1
 164 266 l 1
 164 343 l 1
 253 343 l 1
 253 266 l 1
 328 266 l 1
 328 182 l 1
EndSplineSet
EndChar

StartChar: comma.taml
Encoding: 14 -1 14
Width: 279
Flags: HW
LayerCount: 2
Fore
SplineSet
231 33 m 0
 231 -5.66666666667 216.333333333 -39 187 -67 c 0
 148.333333333 -104.333333333 112 -123 78 -123 c 1
 78 -87 l 1
 92.6666666667 -85.6666666667 111.333333333 -75 134 -55 c 0
 160.666666667 -31.6666666667 174 -8.66666666667 174 14 c 1
 168.666666667 14.6666666667 161.166666667 12 151.5 6 c 128
 141.833333333 0 134.333333333 -3 129 -3 c 0
 116.333333333 -3 103.5 4.16666666667 90.5 18.5 c 128
 77.5 32.8333333333 71 48 71 64 c 0
 71 81.3333333333 77.8333333333 96.5 91.5 109.5 c 128
 105.166666667 122.5 121 129 139 129 c 0
 165.666666667 129 187.666666667 119.166666667 205 99.5 c 128
 222.333333333 79.8333333333 231 57.6666666667 231 33 c 0
EndSplineSet
EndChar

StartChar: hyphen.taml
Encoding: 15 -1 15
Width: 433
Flags: HW
LayerCount: 2
Fore
SplineSet
318 181 m 1
 21 181 l 1
 21 269 l 1
 318 269 l 1
 318 181 l 1
EndSplineSet
EndChar

StartChar: period.taml
Encoding: 16 -1 16
Width: 246
Flags: HW
LayerCount: 2
Fore
SplineSet
178 61 m 0
 178 44.3333333333 170.5 29.5 155.5 16.5 c 128
 140.5 3.5 123 -3 103 -3 c 256
 83 -3 66 3.33333333333 52 16 c 128
 38 28.6666666667 31 43.6666666667 31 61 c 0
 31 79 38.1666666667 94.5 52.5 107.5 c 128
 66.8333333333 120.5 83.6666666667 127 103 127 c 0
 123 127 140.5 120.5 155.5 107.5 c 128
 170.5 94.5 178 79 178 61 c 0
EndSplineSet
EndChar

StartChar: slash.taml
Encoding: 18 -1 18
Width: 274
Flags: HW
LayerCount: 2
Fore
SplineSet
281 615 m 1
 36 -97 l 1
 -27 -97 l 1
 220 615 l 1
 281 615 l 1
EndSplineSet
EndChar

StartChar: zero.taml
Encoding: 19 -1 19
Width: 345
Flags: HW
LayerCount: 2
Fore
SplineSet
334 219 m 0
 334 164.333333333 323.333333333 115.666666667 302 73 c 0
 273.333333333 16.3333333333 230.333333333 -12 173 -12 c 256
 115.666666667 -12 72.6666666667 16.3333333333 44 73 c 0
 22.6666666667 115.666666667 12 164.333333333 12 219 c 0
 12 275.666666667 22.3333333333 324.666666667 43 366 c 0
 71.6666666667 423.333333333 115 452 173 452 c 0
 230.333333333 452 273.333333333 423.333333333 302 366 c 0
 323.333333333 323.333333333 334 274.333333333 334 219 c 0
249 219 m 256
 249 268.333333333 246.333333333 305.666666667 241 331 c 0
 229.666666667 385.666666667 207 413 173 413 c 0
 139.666666667 413 117.333333333 386 106 332 c 0
 100.666666667 306 98 268.333333333 98 219 c 0
 98 165 100.333333333 126.666666667 105 104 c 0
 115.666666667 51.3333333333 138.333333333 25 173 25 c 0
 206.333333333 25 228.666666667 51.3333333333 240 104 c 0
 246 131.333333333 249 169.666666667 249 219 c 256
EndSplineSet
EndChar

StartChar: one.taml
Encoding: 20 -1 20
Width: 345
Flags: HW
LayerCount: 2
Fore
SplineSet
279 -3 m 1
 75 -3 l 1
 75 27 l 1
 94.3333333333 27 107 27.6666666667 113 29 c 0
 129.666666667 32.3333333333 138 44.6666666667 138 66 c 2
 138 355 l 2
 138 361 138 361 138 368 c 0
 136.666666667 372.666666667 132.333333333 375 125 375 c 0
 121.666666667 375 118.5 374.5 115.5 373.5 c 128
 112.5 372.5 97.6666666667 367 71 357 c 1
 71 388 l 1
 200 452 l 1
 217 445 l 1
 217 55 l 2
 217 43 220.833333333 35.3333333333 228.5 32 c 128
 236.166666667 28.6666666667 253 27 279 27 c 1
 279 -3 l 1
EndSplineSet
EndChar

StartChar: two.taml
Encoding: 21 -1 21
Width: 345
Flags: HW
LayerCount: 2
Fore
SplineSet
337 102 m 1
 292 -3 l 1
 16 -3 l 1
 17 20 l 1
 137 144 l 2
 193 202 221 254.666666667 221 302 c 0
 221 322 215.666666667 339 205 353 c 0
 190.333333333 372.333333333 167.333333333 382 136 382 c 0
 116 382 99.8333333333 377 87.5 367 c 128
 75.1666666667 357 62.3333333333 334.666666667 49 300 c 1
 17 306 l 1
 27 358 47 396.333333333 77 421 c 0
 102.333333333 441.666666667 132.666666667 452 168 452 c 0
 202.666666667 452 233.166666667 440.166666667 259.5 416.5 c 128
 285.833333333 392.833333333 299 362.333333333 299 325 c 0
 299 293.666666667 288.333333333 261.666666667 267 229 c 0
 255 210.333333333 236.333333333 188 211 162 c 2
 116 67 l 1
 250 67 l 2
 262 67 271.5 69.3333333333 278.5 74 c 128
 285.5 78.6666666667 296 90.6666666667 310 110 c 1
 337 102 l 1
EndSplineSet
EndChar

StartChar: three.taml
Encoding: 22 -1 22
Width: 345
Flags: HW
LayerCount: 2
Fore
SplineSet
304 146 m 0
 304 98.6666666667 285.833333333 60.5 249.5 31.5 c 128
 213.166666667 2.5 166.666666667 -12 110 -12 c 0
 92 -12 75.6666666667 -9.33333333333 61 -4 c 0
 37.6666666667 4.66666666667 26 17.6666666667 26 35 c 0
 26 46.3333333333 29.6666666667 54.6666666667 37 60 c 128
 44.3333333333 65.3333333333 52.3333333333 68 61 68 c 0
 70.3333333333 68 81.6666666667 64.3333333333 95 57 c 0
 125 40.3333333333 145.333333333 32 156 32 c 0
 181.333333333 32 200.833333333 40.8333333333 214.5 58.5 c 128
 228.166666667 76.1666666667 235 96.6666666667 235 120 c 0
 235 142.666666667 228 161 214 175 c 0
 191.333333333 197.666666667 152.333333333 209 97 209 c 1
 97 236 l 1
 133 246.666666667 159.333333333 258.666666667 176 272 c 0
 196.666666667 288.666666667 207 309.666666667 207 335 c 0
 207 350.333333333 201.666666667 363.666666667 191 375 c 128
 180.333333333 386.333333333 165 392 145 392 c 0
 121 392 100.333333333 383.666666667 83 367 c 0
 77 361 66.6666666667 346.666666667 52 324 c 1
 24 331 l 1
 38.6666666667 376.333333333 60.3333333333 409 89 429 c 0
 111 444.333333333 136.666666667 452 166 452 c 0
 208 452 239.333333333 439.333333333 260 414 c 0
 274.666666667 396 282 376 282 354 c 0
 282 322 265 292.666666667 231 266 c 1
 251 256 266.666666667 243.666666667 278 229 c 0
 295.333333333 207 304 179.333333333 304 146 c 0
EndSplineSet
EndChar

StartChar: four.taml
Encoding: 23 -1 23
Width: 345
Flags: HW
LayerCount: 2
Fore
SplineSet
331 103 m 1
 263 103 l 1
 263 -3 l 1
 191 -3 l 1
 191 103 l 1
 5 103 l 1
 5 159 l 1
 217 451 l 1
 263 452 l 1
 263 167 l 1
 331 167 l 1
 331 103 l 1
208 364 m 1
 204.666666667 364 176 326.333333333 122 251 c 0
 114 239.666666667 93.6666666667 211.666666667 61 167 c 1
 190 167 l 1
 190 372 l 2
 188.666666667 374.666666667 188.666666667 377.166666667 190 379.5 c 128
 191.333333333 381.833333333 197.333333333 383 208 383 c 1
 208 364 l 1
EndSplineSet
EndChar

StartChar: five.taml
Encoding: 24 -1 24
Width: 345
Flags: HW
LayerCount: 2
Fore
SplineSet
312 445 m 1
 282 382 l 2
 278.666666667 372 270.333333333 367 257 367 c 2
 134 367 l 1
 115 331 l 1
 156.333333333 325 188.666666667 316 212 304 c 0
 230.666666667 294.666666667 247.5 281.333333333 262.5 264 c 128
 277.5 246.666666667 287.5 230.833333333 292.5 216.5 c 128
 297.5 202.166666667 300 180 300 150 c 0
 300 104 282.5 65.5 247.5 34.5 c 128
 212.5 3.5 167 -12 111 -12 c 0
 81.6666666667 -12 58.6666666667 -7.33333333333 42 2 c 128
 25.3333333333 11.3333333333 17 23 17 37 c 0
 17 49.6666666667 20 58.6666666667 26 64 c 128
 32 69.3333333333 41.6666666667 72 55 72 c 256
 68.3333333333 72 81.3333333333 68 94 60 c 0
 124 41.3333333333 142.666666667 32 150 32 c 0
 172 32 191.166666667 40.8333333333 207.5 58.5 c 128
 223.833333333 76.1666666667 232 101.666666667 232 135 c 0
 232 177.666666667 210.666666667 210.333333333 168 233 c 0
 134 251 96 260 54 260 c 0
 39.3333333333 260 34.6666666667 267.333333333 40 282 c 2
 115 438 l 1
 261 438 l 2
 266.333333333 438 271 440 275 444 c 0
 276.333333333 445.333333333 281.333333333 451 290 461 c 1
 312 445 l 1
EndSplineSet
EndChar

StartChar: six.taml
Encoding: 25 -1 25
Width: 345
Flags: HW
LayerCount: 2
Fore
SplineSet
328 148 m 0
 328 110.666666667 318.333333333 77.6666666667 299 49 c 0
 271.666666667 8.33333333333 230.333333333 -12 175 -12 c 0
 130.333333333 -12 94 4.33333333333 66 37 c 0
 35.3333333333 73 20 125.333333333 20 194 c 0
 20 264.666666667 46.3333333333 325.333333333 99 376 c 0
 155.666666667 430 227 457 313 457 c 1
 316 427 l 1
 264 418.333333333 220.666666667 399 186 369 c 0
 156 342.333333333 135.333333333 310 124 272 c 1
 145.333333333 285.333333333 169 292 195 292 c 0
 234.333333333 292 266.333333333 279.333333333 291 254 c 128
 315.666666667 228.666666667 328 193.333333333 328 148 c 0
247 121 m 0
 247 157 242 184.666666667 232 204 c 0
 219.333333333 228.666666667 198 241 168 241 c 0
 143.333333333 241 124.666666667 236 112 226 c 1
 105.333333333 217.333333333 102 199 102 171 c 0
 102 123.666666667 109.666666667 87.8333333333 125 63.5 c 128
 140.333333333 39.1666666667 160.333333333 27 185 27 c 0
 226.333333333 27 247 58.3333333333 247 121 c 0
EndSplineSet
EndChar

StartChar: seven.taml
Encoding: 26 -1 26
Width: 345
Flags: HW
LayerCount: 2
Fore
SplineSet
316 442 m 1
 315 422 l 1
 172 -8 l 1
 105 -8 l 1
 114.333333333 20 124 48 134 76 c 0
 164 161 164 161 194 246 c 0
 218.666666667 317.333333333 233.333333333 360 238 374 c 1
 109 374 l 2
 91.6666666667 374 78 369.666666667 68 361 c 0
 62 355.666666667 51.3333333333 342 36 320 c 1
 7 332 l 1
 52 442 l 1
 316 442 l 1
EndSplineSet
EndChar

StartChar: eight.taml
Encoding: 27 -1 27
Width: 345
Flags: HW
LayerCount: 2
Fore
SplineSet
313 104 m 0
 313 76.6666666667 304.333333333 52.6666666667 287 32 c 0
 262.333333333 2.66666666667 223.333333333 -12 170 -12 c 0
 127.333333333 -12 93.8333333333 -0.833333333333 69.5 21.5 c 128
 45.1666666667 43.8333333333 33 70 33 100 c 0
 33 128 39.3333333333 150.333333333 52 167 c 0
 60.6666666667 179 81.3333333333 196.666666667 114 220 c 1
 85.3333333333 244.666666667 66 264 56 278 c 0
 43.3333333333 296.666666667 37 318 37 342 c 0
 37 374.666666667 51 401.166666667 79 421.5 c 128
 107 441.833333333 138.333333333 452 173 452 c 0
 212.333333333 452 243.666666667 441.666666667 267 421 c 0
 288.333333333 402.333333333 299 378.333333333 299 349 c 0
 299 330.333333333 294 313.333333333 284 298 c 0
 271.333333333 278.666666667 250 260.666666667 220 244 c 1
 257.333333333 216.666666667 283 191.333333333 297 168 c 0
 307.666666667 150 313 128.666666667 313 104 c 0
232 353 m 0
 232 369.666666667 226.666666667 383.666666667 216 395 c 128
 205.333333333 406.333333333 189.333333333 412 168 412 c 0
 148 412 133 407 123 397 c 128
 113 387 108 374.333333333 108 359 c 0
 108 339.666666667 116.666666667 321.333333333 134 304 c 0
 144 294 159.333333333 282.333333333 180 269 c 1
 194.666666667 278.333333333 206 288.333333333 214 299 c 0
 226 314.333333333 232 332.333333333 232 353 c 0
241 89 m 0
 241 115.666666667 210.333333333 150.666666667 149 194 c 1
 136.333333333 184.666666667 126.666666667 174.333333333 120 163 c 0
 110.666666667 147.666666667 106 129.333333333 106 108 c 0
 106 84.6666666667 112.166666667 65.3333333333 124.5 50 c 128
 136.833333333 34.6666666667 154.666666667 27 178 27 c 0
 196.666666667 27 211.833333333 32.5 223.5 43.5 c 128
 235.166666667 54.5 241 69.6666666667 241 89 c 0
EndSplineSet
EndChar

StartChar: nine.taml
Encoding: 28 -1 28
Width: 345
Flags: HW
LayerCount: 2
Fore
SplineSet
322 261 m 0
 322 185.666666667 297.666666667 121.333333333 249 68 c 0
 195.666666667 10 125 -19 37 -19 c 1
 33 15 l 1
 101.666666667 26.3333333333 155.333333333 57.6666666667 194 109 c 0
 204.666666667 123 218.666666667 151 236 193 c 1
 251 187 l 1
 235 174.333333333 218.333333333 164.833333333 201 158.5 c 128
 183.666666667 152.166666667 165.333333333 149 146 149 c 0
 102.666666667 149 69.3333333333 164.666666667 46 196 c 0
 26.6666666667 222 17 252 17 286 c 0
 17 332.666666667 30.6666666667 372 58 404 c 128
 85.3333333333 436 121.333333333 452 166 452 c 0
 210 452 247 434.333333333 277 399 c 128
 307 363.666666667 322 317.666666667 322 261 c 0
237 235 m 2
 237 260 l 2
 237 312.666666667 231.333333333 350.333333333 220 373 c 0
 206.666666667 399 186.333333333 412 159 412 c 0
 136.333333333 412 120 401 110 379 c 0
 102.666666667 362.333333333 99 339.333333333 99 310 c 0
 99 270.666666667 106.333333333 241.333333333 121 222 c 0
 133.666666667 205.333333333 151 197 173 197 c 0
 182.333333333 197 192.166666667 199 202.5 203 c 128
 212.833333333 207 221.166666667 211.333333333 227.5 216 c 128
 233.833333333 220.666666667 237 227 237 235 c 2
EndSplineSet
EndChar

StartChar: colon.taml
Encoding: 29 -1 29
Width: 246
Flags: HW
LayerCount: 2
Fore
SplineSet
164 325 m 256
 164 305.666666667 156.666666667 289.333333333 142 276 c 128
 127.333333333 262.666666667 110 256 90 256 c 0
 70.6666666667 256 53.6666666667 262.666666667 39 276 c 128
 24.3333333333 289.333333333 17 305.666666667 17 325 c 256
 17 344.333333333 24.3333333333 361 39 375 c 128
 53.6666666667 389 70.6666666667 396 90 396 c 0
 110 396 127.333333333 389 142 375 c 128
 156.666666667 361 164 344.333333333 164 325 c 256
164 56 m 256
 164 36.6666666667 156.666666667 20.3333333333 142 7 c 128
 127.333333333 -6.33333333333 110 -13 90 -13 c 0
 70.6666666667 -13 53.6666666667 -6.33333333333 39 7 c 128
 24.3333333333 20.3333333333 17 36.6666666667 17 56 c 256
 17 75.3333333333 24.3333333333 92 39 106 c 128
 53.6666666667 120 70.6666666667 127 90 127 c 0
 110 127 127.333333333 120 142 106 c 128
 156.666666667 92 164 75.3333333333 164 56 c 256
EndSplineSet
EndChar

StartChar: semicolon.taml
Encoding: 30 -1 30
Width: 246
Flags: HW
LayerCount: 2
Fore
SplineSet
192 325 m 256
 192 305.666666667 184.5 289.166666667 169.5 275.5 c 128
 154.5 261.833333333 136.666666667 255 116 255 c 0
 96.6666666667 255 80 261.666666667 66 275 c 128
 52 288.333333333 45 305 45 325 c 0
 45 344.333333333 52 361 66 375 c 128
 80 389 96.6666666667 396 116 396 c 0
 136 396 153.666666667 389 169 375 c 128
 184.333333333 361 192 344.333333333 192 325 c 256
192 37 m 0
 192 -3 177.666666667 -37.3333333333 149 -66 c 0
 110.333333333 -104 74 -123 40 -123 c 1
 40 -86 l 1
 54 -86 72.3333333333 -75.3333333333 95 -54 c 0
 121.666666667 -29.3333333333 135 -5.33333333333 135 18 c 1
 130.333333333 18 123.333333333 15 114 9 c 128
 104.666666667 3 96.6666666667 0 90 0 c 0
 77.3333333333 0 64.5 7.33333333333 51.5 22 c 128
 38.5 36.6666666667 32 52.3333333333 32 69 c 0
 32 87 38.8333333333 102.833333333 52.5 116.5 c 128
 66.1666666667 130.166666667 82 137 100 137 c 0
 126.666666667 137 148.666666667 126.833333333 166 106.5 c 128
 183.333333333 86.1666666667 192 63 192 37 c 0
EndSplineSet
EndChar

StartChar: less.taml
Encoding: 31 -1 31
Width: 540
Flags: HW
LayerCount: 2
Fore
SplineSet
443 -12 m 1
 20 172 l 1
 20 232 l 1
 443 414 l 1
 443 339 l 1
 123 201 l 1
 443 63 l 1
 443 -12 l 1
EndSplineSet
EndChar

StartChar: equal.taml
Encoding: 32 -1 32
Width: 577
Flags: HW
LayerCount: 2
Fore
SplineSet
500 291 m 1
 76 291 l 1
 76 361 l 1
 500 361 l 1
 500 291 l 1
500 143 m 1
 76 143 l 1
 76 212 l 1
 500 212 l 1
 500 143 l 1
EndSplineSet
EndChar

StartChar: greater.taml
Encoding: 33 -1 33
Width: 540
Flags: HW
LayerCount: 2
Fore
SplineSet
443 172 m 1
 20 -12 l 1
 20 63 l 1
 339 201 l 1
 20 339 l 1
 20 414 l 1
 443 232 l 1
 443 172 l 1
EndSplineSet
EndChar

StartChar: question.taml
Encoding: 34 -1 34
Width: 412
Flags: HW
LayerCount: 2
Fore
SplineSet
325 314 m 0
 325 295.333333333 317.666666667 272.333333333 303 245 c 0
 291 222.333333333 277.333333333 202.333333333 262 185 c 0
 240 159.666666667 224.333333333 138 215 120 c 0
 203.666666667 98.6666666667 194.666666667 70.3333333333 188 35 c 1
 155 35 l 1
 155 61 158.333333333 87.6666666667 165 115 c 0
 167 122.333333333 171.666666667 137.333333333 179 160 c 2
 202 211 l 2
 208.666666667 225.666666667 215.166666667 244.166666667 221.5 266.5 c 128
 227.833333333 288.833333333 231 306.666666667 231 320 c 0
 231 343.333333333 225 363 213 379 c 0
 199 398.333333333 179.333333333 408 154 408 c 0
 138.666666667 408 124.333333333 404.5 111 397.5 c 128
 97.6666666667 390.5 91 382 91 372 c 0
 91 366 96 357.333333333 106 346 c 128
 116 334.666666667 121 324 121 314 c 0
 121 302.666666667 118 293.333333333 112 286 c 0
 104 276 93 271 79 271 c 0
 61 271 48 276.5 40 287.5 c 128
 32 298.5 28 312.666666667 28 330 c 0
 28 369.333333333 44 400.333333333 76 423 c 0
 103.333333333 442.333333333 134.333333333 452 169 452 c 0
 192.333333333 452 216 447.166666667 240 437.5 c 128
 264 427.833333333 282 416.333333333 294 403 c 128
 306 389.666666667 314.166666667 376.833333333 318.5 364.5 c 128
 322.833333333 352.166666667 325 335.333333333 325 314 c 0
228 -46 m 0
 228 -62 222.333333333 -74.6666666667 211 -84 c 128
 199.666666667 -93.3333333333 187.333333333 -98 174 -98 c 0
 161.333333333 -98 150 -94.3333333333 140 -87 c 0
 127.333333333 -77.6666666667 121 -64 121 -46 c 0
 121 -32 126.166666667 -20.1666666667 136.5 -10.5 c 128
 146.833333333 -0.833333333333 159.333333333 4 174 4 c 256
 188.666666667 4 201.333333333 -1 212 -11 c 128
 222.666666667 -21 228 -32.6666666667 228 -46 c 0
EndSplineSet
EndChar

StartChar: u0952
Encoding: 38 2386 38
Width: 10
Flags: HW
LayerCount: 2
Fore
SplineSet
-105 -367 m 1
 -554 -365 l 1
 -600 -292 l 1
 -152 -293 l 1
 -105 -367 l 1
2 0 m 1
 0 2 l 1
 2 0 l 1
2 0 m 1
 0 2 l 1
 2 0 l 1
EndSplineSet
EndChar

StartChar: u0B82
Encoding: 39 2946 39
Width: 693
Flags: HW
LayerCount: 2
Fore
SplineSet
408 583 m 0
 408 553.666992188 397.833007812 528.833007812 377.5 508.5 c 128
 357.166992188 488.166992188 332.666992188 478 304 478 c 0
 274.666992188 478 249.833007812 488.166992188 229.5 508.5 c 128
 209.166992188 528.833007812 199 553.666992188 199 583 c 0
 199 611 209.333007812 635.333007812 230 656 c 128
 250.666992188 676.666992188 275.333007812 687 304 687 c 256
 332.666992188 687 357.166992188 676.833007812 377.5 656.5 c 128
 397.833007812 636.166992188 408 611.666992188 408 583 c 0
364 586 m 0
 364 601.333007812 358 615 346 627 c 128
 334 639 320 645 304 645 c 256
 288 645 274 639.333007812 262 628 c 128
 250 616.666992188 244 602.666992188 244 586 c 256
 244 569.333007812 249.833007812 555.166992188 261.5 543.5 c 128
 273.166992188 531.833007812 287.333007812 526 304 526 c 0
 320 526 334 532 346 544 c 128
 358 556 364 570 364 586 c 0
EndSplineSet
EndChar

StartChar: u0B83
Encoding: 40 2947 40
Width: 509
Flags: HW
LayerCount: 2
Fore
SplineSet
269 382 m 256
 269 364.666666667 262.833333333 349.5 250.5 336.5 c 128
 238.166666667 323.5 223 317 205 317 c 256
 187 317 171.666666667 323.333333333 159 336 c 128
 146.333333333 348.666666667 140 364 140 382 c 0
 140 399.333333333 146.333333333 414.333333333 159 427 c 128
 171.666666667 439.666666667 187 446 205 446 c 0
 222.333333333 446 237.333333333 439.666666667 250 427 c 128
 262.666666667 414.333333333 269 399.333333333 269 382 c 256
413 66 m 256
 413 48.6666666667 406.666666667 33.6666666667 394 21 c 128
 381.333333333 8.33333333333 366.333333333 2 349 2 c 256
 331.666666667 2 316.5 8.16666666667 303.5 20.5 c 128
 290.5 32.8333333333 284 48 284 66 c 0
 284 83.3333333333 290.333333333 98.6666666667 303 112 c 128
 315.666666667 125.333333333 331 132 349 132 c 0
 366.333333333 132 381.333333333 125.333333333 394 112 c 128
 406.666666667 98.6666666667 413 83.3333333333 413 66 c 256
126 66 m 256
 126 48.6666666667 119.666666667 33.6666666667 107 21 c 128
 94.3333333333 8.33333333333 79 2 61 2 c 0
 43.6666666667 2 28.6666666667 8.33333333333 16 21 c 128
 3.33333333333 33.6666666667 -3 48.6666666667 -3 66 c 256
 -3 83.3333333333 3.33333333333 98.6666666667 16 112 c 128
 28.6666666667 125.333333333 43.6666666667 132 61 132 c 0
 77.6666666667 132 92.6666666667 125.333333333 106 112 c 128
 119.333333333 98.6666666667 126 83.3333333333 126 66 c 256
EndSplineSet
EndChar

StartChar: u0B85
Encoding: 41 2949 41
Width: 815
Flags: HW
AnchorPoint: "V" 358 453 basechar 0
AnchorPoint: "N" 358 -76 basechar 0
LayerCount: 2
Fore
SplineSet
719 -76 m 1
 627 -76 l 1
 627 128 l 1
 548 128 l 1
 521.333333333 86.6666666667 483.166666667 54.5 433.5 31.5 c 128
 383.833333333 8.5 328 -3 266 -3 c 0
 190 -3 128.666666667 11.6666666667 82 41 c 0
 49.3333333333 61.6666666667 22.6666666667 90.3333333333 2 127 c 0
 -1.33333333333 132.333333333 -3 138.666666667 -3 146 c 0
 -3 154.666666667 0.333333333333 162.333333333 7 169 c 128
 13.6666666667 175.666666667 24 179 38 179 c 2
 481 179 l 1
 497 209.666666667 505 241 505 273 c 0
 505 300.333333333 499.5 322.5 488.5 339.5 c 128
 477.5 356.5 461.333333333 370 440 380 c 1
 451.333333333 362.666666667 457 339 457 309 c 0
 457 276.333333333 449.333333333 250.666666667 434 232 c 0
 416 210 387.666666667 199 349 199 c 0
 315.666666667 199 289.833333333 211 271.5 235 c 128
 253.166666667 259 244 289 244 325 c 256
 244 361 256.166666667 391.166666667 280.5 415.5 c 128
 304.833333333 439.833333333 338.666666667 452 382 452 c 0
 444.666666667 452 494.166666667 434.833333333 530.5 400.5 c 128
 566.833333333 366.166666667 585 317.333333333 585 254 c 0
 585 229.333333333 581.333333333 204.333333333 574 179 c 1
 627 179 l 1
 627 452 l 1
 719 452 l 1
 719 -76 l 1
383 317 m 0
 383 334.333333333 379.833333333 349.166666667 373.5 361.5 c 128
 367.166666667 373.833333333 359.666666667 382.333333333 351 387 c 1
 335.666666667 389.666666667 322.666666667 384.333333333 312 371 c 128
 301.333333333 357.666666667 296 342 296 324 c 256
 296 306 300.5 292.166666667 309.5 282.5 c 128
 318.5 272.833333333 328.666666667 268 340 268 c 0
 353.333333333 268 363.833333333 273.166666667 371.5 283.5 c 128
 379.166666667 293.833333333 383 305 383 317 c 0
444 128 m 1
 68 128 l 2
 64 128 61 127.333333333 59 126 c 128
 57 124.666666667 56.6666666667 123 58 121 c 0
 73.3333333333 99.6666666667 95 83 123 71 c 0
 157 56.3333333333 198.666666667 49 248 49 c 0
 330 49 395.333333333 75.3333333333 444 128 c 1
EndSplineSet
EndChar

StartChar: u0B86
Encoding: 42 2950 42
Width: 994
Flags: HW
AnchorPoint: "V" 447.5 453 basechar 0
AnchorPoint: "N" 447.5 -246 basechar 0
LayerCount: 2
Fore
SplineSet
898 51 m 0
 898 -44.3333333333 867.333333333 -118.333333333 806 -171 c 0
 748 -221 670.666666667 -246 574 -246 c 0
 487.333333333 -246 420.166666667 -234 372.5 -210 c 128
 324.833333333 -186 301 -153 301 -111 c 0
 301 -81 313.833333333 -58 339.5 -42 c 128
 365.166666667 -26 396.666666667 -18 434 -18 c 0
 460.666666667 -18 486.5 -22.8333333333 511.5 -32.5 c 128
 536.5 -42.1666666667 558.666666667 -55.3333333333 578 -72 c 1
 559 -105 l 1
 540.333333333 -90.3333333333 519.666666667 -79.5 497 -72.5 c 128
 474.333333333 -65.5 451.666666667 -62 429 -62 c 0
 405 -62 386.166666667 -66.1666666667 372.5 -74.5 c 128
 358.833333333 -82.8333333333 352 -94.6666666667 352 -110 c 0
 352 -140 372.666666667 -162.333333333 414 -177 c 0
 446.666666667 -188.333333333 490 -194 544 -194 c 0
 621.333333333 -194 684.5 -170.833333333 733.5 -124.5 c 128
 782.5 -78.1666666667 807 -21.3333333333 807 46 c 0
 807 82.6666666667 800.166666667 110.333333333 786.5 129 c 128
 772.833333333 147.666666667 757 157 739 157 c 0
 731.666666667 157 725 155 719 151 c 1
 719 -76 l 1
 627 -76 l 1
 627 128 l 1
 548 128 l 1
 521.333333333 86.6666666667 483.166666667 54.5 433.5 31.5 c 128
 383.833333333 8.5 328 -3 266 -3 c 0
 190 -3 128.666666667 11.6666666667 82 41 c 0
 49.3333333333 61.6666666667 22.6666666667 90.3333333333 2 127 c 0
 -1.33333333333 132.333333333 -3 138.666666667 -3 146 c 0
 -3 154.666666667 0.333333333333 162.333333333 7 169 c 128
 13.6666666667 175.666666667 24 179 38 179 c 2
 481 179 l 1
 497 209.666666667 505 241 505 273 c 0
 505 300.333333333 499.5 322.5 488.5 339.5 c 128
 477.5 356.5 461.333333333 370 440 380 c 1
 451.333333333 362.666666667 457 339 457 309 c 0
 457 276.333333333 449.333333333 250.666666667 434 232 c 0
 416 210 387.666666667 199 349 199 c 0
 315.666666667 199 289.833333333 211 271.5 235 c 128
 253.166666667 259 244 289 244 325 c 256
 244 361 256.166666667 391.166666667 280.5 415.5 c 128
 304.833333333 439.833333333 338.666666667 452 382 452 c 0
 444.666666667 452 494.166666667 434.833333333 530.5 400.5 c 128
 566.833333333 366.166666667 585 317.333333333 585 254 c 0
 585 229.333333333 581.333333333 204.333333333 574 179 c 1
 627 179 l 1
 627 452 l 1
 719 452 l 1
 719 207 l 1
 732.333333333 215 748 219 766 219 c 0
 802 219 832.333333333 205 857 177 c 0
 884.333333333 145.666666667 898 103.666666667 898 51 c 0
383 317 m 0
 383 334.333333333 379.833333333 349.166666667 373.5 361.5 c 128
 367.166666667 373.833333333 359.666666667 382.333333333 351 387 c 1
 335.666666667 389.666666667 322.666666667 384.333333333 312 371 c 128
 301.333333333 357.666666667 296 342 296 324 c 256
 296 306 300.5 292.166666667 309.5 282.5 c 128
 318.5 272.833333333 328.666666667 268 340 268 c 0
 353.333333333 268 363.833333333 273.166666667 371.5 283.5 c 128
 379.166666667 293.833333333 383 305 383 317 c 0
444 128 m 1
 68 128 l 2
 64 128 61 127.333333333 59 126 c 128
 57 124.666666667 56.6666666667 123 58 121 c 0
 73.3333333333 99.6666666667 95 83 123 71 c 0
 157 56.3333333333 198.666666667 49 248 49 c 0
 330 49 395.333333333 75.3333333333 444 128 c 1
EndSplineSet
EndChar

StartChar: u0B87
Encoding: 43 2951 43
Width: 771
Flags: HW
AnchorPoint: "V" 336 640.916 basechar 0
AnchorPoint: "N" 336 -94 basechar 0
LayerCount: 2
Fore
SplineSet
675 246 m 0
 675 175.333333333 665 104.333333333 645 33 c 0
 631.666666667 -13.6666666667 615.666666667 -56 597 -94 c 1
 554 -76 l 1
 571.333333333 -43.3333333333 586 -4.66666666667 598 40 c 0
 614.666666667 100.666666667 623 162 623 224 c 0
 623 324 595.5 403.833333333 540.5 463.5 c 128
 485.5 523.166666667 414.666666667 553 328 553 c 0
 248.666666667 553 182.333333333 530.666666667 129 486 c 128
 75.6666666667 441.333333333 49 386 49 320 c 0
 49 292.666666667 53.1666666667 264.166666667 61.5 234.5 c 128
 69.8333333333 204.833333333 82.3333333333 174.666666667 99 144 c 1
 129.666666667 159.333333333 161.833333333 171 195.5 179 c 128
 229.166666667 187 263 191 297 191 c 0
 306.333333333 191 318.333333333 190.333333333 333 189 c 128
 347.666666667 187.666666667 360 186.333333333 370 185 c 1
 376 208.333333333 379 231 379 253 c 0
 379 288.333333333 373.666666667 316 363 336 c 128
 352.333333333 356 336 371 314 381 c 1
 325.333333333 362.333333333 331 338.333333333 331 309 c 0
 331 277 323 251.333333333 307 232 c 0
 288.333333333 210 260.333333333 199 223 199 c 0
 190.333333333 199 164.666666667 211.166666667 146 235.5 c 128
 127.333333333 259.833333333 118 289.666666667 118 325 c 0
 118 361.666666667 129.833333333 392 153.5 416 c 128
 177.166666667 440 211 452 255 452 c 0
 319 452 369.166666667 434.833333333 405.5 400.5 c 128
 441.833333333 366.166666667 460 317.333333333 460 254 c 0
 460 223.333333333 456 193.333333333 448 164 c 1
 482.666666667 150.666666667 509.333333333 134.166666667 528 114.5 c 128
 546.666666667 94.8333333333 556 71 556 43 c 0
 556 -1 539.5 -34.3333333333 506.5 -57 c 128
 473.5 -79.6666666667 429.333333333 -91 374 -91 c 0
 352 -91 331.5 -89.1666666667 312.5 -85.5 c 128
 293.5 -81.8333333333 273.666666667 -76 253 -68 c 1
 213.666666667 -83.3333333333 174 -91 134 -91 c 0
 92 -91 59.3333333333 -82.6666666667 36 -66 c 0
 10 -47.3333333333 -3 -19.6666666667 -3 17 c 0
 -3 36.3333333333 1.83333333333 54 11.5 70 c 128
 21.1666666667 86 35.3333333333 101.333333333 54 116 c 1
 34.6666666667 150.666666667 20.3333333333 185.833333333 11 221.5 c 128
 1.66666666667 257.166666667 -3 291.666666667 -3 325 c 0
 -3 425 30 503.666666667 96 561 c 0
 157.333333333 614.333333333 234.666666667 641 328 641 c 0
 433.333333333 641 517.5 606 580.5 536 c 128
 643.5 466 675 369.333333333 675 246 c 0
256 317 m 0
 256 334.333333333 252.833333333 349.333333333 246.5 362 c 128
 240.166666667 374.666666667 232.666666667 383 224 387 c 0
 208.666666667 389.666666667 196 384.5 186 371.5 c 128
 176 358.5 171 342.666666667 171 324 c 0
 171 306.666666667 175.333333333 293 184 283 c 128
 192.666666667 273 202.666666667 268 214 268 c 0
 226.666666667 268 236.833333333 273.166666667 244.5 283.5 c 128
 252.166666667 293.833333333 256 305 256 317 c 0
470 45 m 0
 470 55.6666666667 466.333333333 66.3333333333 459 77 c 128
 451.666666667 87.6666666667 441.666666667 97 429 105 c 1
 415 76.3333333333 398.666666667 50.6666666667 380 28 c 128
 361.333333333 5.33333333333 340 -14.6666666667 316 -32 c 1
 325.333333333 -34.6666666667 334.5 -36.3333333333 343.5 -37 c 128
 352.5 -37.6666666667 362.666666667 -38 374 -38 c 0
 404.666666667 -38 428.333333333 -30 445 -14 c 128
 461.666666667 2 470 21.6666666667 470 45 c 0
352 135 m 1
 334 139 315 141 295 141 c 0
 238.333333333 141 183 126.666666667 129 98 c 1
 135.666666667 89.3333333333 141.166666667 82.3333333333 145.5 77 c 128
 149.833333333 71.6666666667 155 66.3333333333 161 61 c 0
 186.333333333 34.3333333333 212.666666667 13.3333333333 240 -2 c 1
 263.333333333 13.3333333333 284.833333333 32.8333333333 304.5 56.5 c 128
 324.166666667 80.1666666667 340 106.333333333 352 135 c 1
183 -30 m 1
 169 -19.3333333333 157 -10 147 -2 c 0
 134.333333333 8 123.333333333 18.3333333333 114 29 c 2
 84 70 l 1
 60.6666666667 50.6666666667 49 31.6666666667 49 13 c 0
 49 -2.33333333333 56.6666666667 -14.6666666667 72 -24 c 128
 87.3333333333 -33.3333333333 106.666666667 -38 130 -38 c 0
 148.666666667 -38 166.333333333 -35.3333333333 183 -30 c 1
EndSplineSet
EndChar

StartChar: u0B88
Encoding: 44 2952 44
Width: 515
Flags: HW
AnchorPoint: "V" 207.5 453 basechar 0
AnchorPoint: "N" 207.5 -3 basechar 0
LayerCount: 2
Fore
SplineSet
418 224 m 0
 418 210.666666667 413 198.666666667 403 188 c 128
 393 177.333333333 381 172 367 172 c 0
 352.333333333 172 340 177 330 187 c 128
 320 197 315 209.333333333 315 224 c 0
 315 238 320 250.333333333 330 261 c 128
 340 271.666666667 352.333333333 277 367 277 c 0
 381 277 393 271.666666667 403 261 c 128
 413 250.333333333 418 238 418 224 c 0
388 399 m 1
 291 399 l 1
 291 -3 l 1
 201 -3 l 1
 201 399 l 1
 49 399 l 1
 49 -3 l 1
 -3 -3 l 1
 -3 452 l 1
 388 452 l 1
 388 399 l 1
176 224 m 0
 176 210.666666667 171 198.666666667 161 188 c 128
 151 177.333333333 139 172 125 172 c 0
 109.666666667 172 97 177 87 187 c 128
 77 197 72 209.333333333 72 224 c 0
 72 238 77 250.333333333 87 261 c 128
 97 271.666666667 109.666666667 277 125 277 c 0
 139 277 151 271.666666667 161 261 c 128
 171 250.333333333 176 238 176 224 c 0
EndSplineSet
EndChar

StartChar: u0B89
Encoding: 45 2953 45
Width: 797
Flags: HW
AnchorPoint: "V" 376 453 basechar 0
AnchorPoint: "N" 376 -3 basechar 0
LayerCount: 2
Fore
SplineSet
719 -3 m 2
 83 -3 l 2
 55.6666666667 -3 34.1666666667 4 18.5 18 c 128
 2.83333333333 32 -5 48.6666666667 -5 68 c 256
 -5 87.3333333333 2.5 104 17.5 118 c 128
 32.5 132 54.3333333333 139 83 139 c 2
 205 139 l 2
 232.333333333 139 254.666666667 152 272 178 c 0
 287.333333333 200.666666667 295 226.666666667 295 256 c 0
 295 302.666666667 285.666666667 337.333333333 267 360 c 0
 245.666666667 386 211.333333333 399 164 399 c 0
 143.333333333 399 124 395 106 387 c 128
 88 379 73.6666666667 368.333333333 63 355 c 1
 78.3333333333 364.333333333 95.3333333333 369 114 369 c 0
 143.333333333 369 167.333333333 358 186 336 c 128
 204.666666667 314 214 287.666666667 214 257 c 0
 214 223 204 196.333333333 184 177 c 128
 164 157.666666667 137.666666667 148 105 148 c 0
 67 148 38.6666666667 163.666666667 20 195 c 0
 4.66666666667 221 -3 256 -3 300 c 0
 -3 340 12.6666666667 374.666666667 44 404 c 0
 78 436 122.666666667 452 178 452 c 0
 244 452 295 434 331 398 c 0
 365 364 382 318 382 260 c 0
 382 141.333333333 323.333333333 82 206 82 c 2
 110 82 l 2
 100.666666667 82 93.5 80.1666666667 88.5 76.5 c 128
 83.5 72.8333333333 81 68.3333333333 81 63 c 0
 81 50.3333333333 90.3333333333 44 109 44 c 2
 719 44 l 2
 744.333333333 44 757 36 757 20 c 0
 757 14 753.833333333 8.66666666667 747.5 4 c 128
 741.166666667 -0.666666666667 731.666666667 -3 719 -3 c 2
133 273 m 0
 131 282.333333333 126.166666667 290 118.5 296 c 128
 110.833333333 302 102.333333333 305 93 305 c 0
 85 305 77.1666666667 302.833333333 69.5 298.5 c 128
 61.8333333333 294.166666667 55 287.666666667 49 279 c 1
 49 258.333333333 53.1666666667 241.5 61.5 228.5 c 128
 69.8333333333 215.5 81.3333333333 209 96 209 c 0
 108 209 117.5 214.166666667 124.5 224.5 c 128
 131.5 234.833333333 135 246 135 258 c 0
 135 261.333333333 134.333333333 266.333333333 133 273 c 0
EndSplineSet
EndChar

StartChar: u0B8A
Encoding: 46 2954 46
Width: 1285
Flags: HW
AnchorPoint: "V" 592 453 basechar 0
AnchorPoint: "N" 592 -3 basechar 0
LayerCount: 2
Fore
SplineSet
1189 399 m 1
 1092 399 l 1
 1092 56 l 1
 1001 56 l 1
 1001 399 l 1
 908 399 l 1
 908 56 l 1
 817 56 l 1
 817 310 l 2
 817 336.666666667 805.5 358.166666667 782.5 374.5 c 128
 759.5 390.833333333 728 399 688 399 c 0
 651.333333333 399 617.333333333 391.333333333 586 376 c 0
 558.666666667 362.666666667 539 346.333333333 527 327 c 1
 547.666666667 338.333333333 572.666666667 344 602 344 c 0
 639.333333333 344 670.333333333 331 695 305 c 128
 719.666666667 279 732 245.333333333 732 204 c 0
 732 158 722.333333333 121.833333333 703 95.5 c 128
 683.666666667 69.1666666667 655.333333333 56 618 56 c 0
 571.333333333 56 533.833333333 73.6666666667 505.5 109 c 128
 477.166666667 144.333333333 463 192.666666667 463 254 c 256
 463 315.333333333 483 363.666666667 523 399 c 128
 563 434.333333333 615 452 679 452 c 0
 726.333333333 452 764.5 447.333333333 793.5 438 c 128
 822.5 428.666666667 844.666666667 416.666666667 860 402 c 1
 860 452 l 1
 1189 452 l 1
 1189 399 l 1
1145 -3 m 2
 83 -3 l 2
 55.6666666667 -3 34.1666666667 4 18.5 18 c 128
 2.83333333333 32 -5 48.6666666667 -5 68 c 256
 -5 87.3333333333 2.5 104 17.5 118 c 128
 32.5 132 54.3333333333 139 83 139 c 2
 205 139 l 2
 232.333333333 139 254.666666667 152 272 178 c 0
 287.333333333 200.666666667 295 226.666666667 295 256 c 0
 295 302.666666667 285.666666667 337.333333333 267 360 c 0
 245.666666667 386 211.333333333 399 164 399 c 0
 143.333333333 399 124 395 106 387 c 128
 88 379 73.6666666667 368.333333333 63 355 c 1
 78.3333333333 364.333333333 95.3333333333 369 114 369 c 0
 143.333333333 369 167.333333333 358 186 336 c 128
 204.666666667 314 214 287.666666667 214 257 c 0
 214 223 204 196.333333333 184 177 c 128
 164 157.666666667 137.666666667 148 105 148 c 0
 67 148 38.6666666667 163.666666667 20 195 c 0
 4.66666666667 221 -3 256 -3 300 c 0
 -3 340 12.6666666667 374.666666667 44 404 c 0
 78 436 122.666666667 452 178 452 c 0
 244 452 295 434 331 398 c 0
 365 364 382 318 382 260 c 0
 382 141.333333333 323.333333333 82 206 82 c 2
 110 82 l 2
 100.666666667 82 93.5 80.1666666667 88.5 76.5 c 128
 83.5 72.8333333333 81 68.3333333333 81 63 c 0
 81 50.3333333333 90.3333333333 44 109 44 c 2
 1145 44 l 2
 1171 44 1184 36 1184 20 c 0
 1184 4.66666666667 1171 -3 1145 -3 c 2
638 205 m 0
 638 223.666666667 632 240.666666667 620 256 c 128
 608 271.333333333 593.333333333 279 576 279 c 0
 560.666666667 279 547.333333333 274.833333333 536 266.5 c 128
 524.666666667 258.166666667 517.666666667 248.333333333 515 237 c 1
 515 213 521.166666667 189.833333333 533.5 167.5 c 128
 545.833333333 145.166666667 562.333333333 134 583 134 c 0
 601 134 614.666666667 140.833333333 624 154.5 c 128
 633.333333333 168.166666667 638 185 638 205 c 0
133 273 m 0
 131 282.333333333 126.166666667 290 118.5 296 c 128
 110.833333333 302 102.333333333 305 93 305 c 0
 85 305 77.1666666667 302.833333333 69.5 298.5 c 128
 61.8333333333 294.166666667 55 287.666666667 49 279 c 1
 49 258.333333333 53.1666666667 241.5 61.5 228.5 c 128
 69.8333333333 215.5 81.3333333333 209 96 209 c 0
 108 209 117.5 214.166666667 124.5 224.5 c 128
 131.5 234.833333333 135 246 135 258 c 0
 135 261.333333333 134.333333333 266.333333333 133 273 c 0
EndSplineSet
EndChar

StartChar: u0B8E
Encoding: 47 2958 47
Width: 636
Flags: HW
AnchorPoint: "V" 268.5 453 basechar 0
AnchorPoint: "N" 268.5 -3 basechar 0
LayerCount: 2
Fore
SplineSet
540 399 m 1
 442 399 l 1
 442 -3 l 1
 351 -3 l 1
 351 399 l 1
 222 399 l 2
 174 399 134.666666667 386 104 360 c 0
 78 338 61.3333333333 311 54 279 c 1
 77.3333333333 294.333333333 104 302 134 302 c 0
 174.666666667 302 207.666666667 288.333333333 233 261 c 128
 258.333333333 233.666666667 271 198.333333333 271 155 c 0
 271 106.333333333 261.333333333 67.8333333333 242 39.5 c 128
 222.666666667 11.1666666667 193 -3 153 -3 c 0
 103.666666667 -3 65.3333333333 15.3333333333 38 52 c 128
 10.6666666667 88.6666666667 -3 140.666666667 -3 208 c 0
 -3 283.333333333 16.5 342.833333333 55.5 386.5 c 128
 94.5 430.166666667 147 452 213 452 c 2
 540 452 l 1
 540 399 l 1
180 154 m 0
 180 174 173.166666667 192.833333333 159.5 210.5 c 128
 145.833333333 228.166666667 130.666666667 237 114 237 c 256
 97.3333333333 237 83.3333333333 232.333333333 72 223 c 128
 60.6666666667 213.666666667 53 202 49 188 c 1
 49 154 55 126.333333333 67 105 c 128
 79 83.6666666667 97.6666666667 73 123 73 c 0
 141.666666667 73 156.333333333 81.6666666667 167 99 c 0
 175.666666667 113.666666667 180 132 180 154 c 0
EndSplineSet
EndChar

StartChar: u0B8F
Encoding: 48 2959 48
Width: 636
Flags: HW
AnchorPoint: "V" 268.5 453 basechar 0
AnchorPoint: "N" 268.5 -139 basechar 0
LayerCount: 2
Fore
SplineSet
540 399 m 1
 442 399 l 1
 441 2 l 1
 276 -137 l 1
 192 -139 l 1
 351 10 l 1
 351 399 l 1
 222 399 l 2
 174 399 134.666666667 386 104 360 c 0
 78 338 61.3333333333 311 54 279 c 1
 77.3333333333 294.333333333 104 302 134 302 c 0
 174.666666667 302 207.666666667 288.333333333 233 261 c 128
 258.333333333 233.666666667 271 198.333333333 271 155 c 0
 271 106.333333333 261.333333333 67.8333333333 242 39.5 c 128
 222.666666667 11.1666666667 193 -3 153 -3 c 0
 103.666666667 -3 65.3333333333 15.3333333333 38 52 c 128
 10.6666666667 88.6666666667 -3 140.666666667 -3 208 c 0
 -3 283.333333333 16.5 342.833333333 55.5 386.5 c 128
 94.5 430.166666667 147 452 213 452 c 2
 540 452 l 1
 540 399 l 1
180 154 m 0
 180 174 173.166666667 192.833333333 159.5 210.5 c 128
 145.833333333 228.166666667 130.666666667 237 114 237 c 256
 97.3333333333 237 83.3333333333 232.333333333 72 223 c 128
 60.6666666667 213.666666667 53 202 49 188 c 1
 49 154 55 126.333333333 67 105 c 128
 79 83.6666666667 97.6666666667 73 123 73 c 0
 141.666666667 73 156.333333333 81.6666666667 167 99 c 0
 175.666666667 113.666666667 180 132 180 154 c 0
EndSplineSet
EndChar

StartChar: u0B90
Encoding: 49 2960 49
Width: 644
Flags: HW
AnchorPoint: "V" 272.5 453 basechar 0
AnchorPoint: "N" 272.5 -174 basechar 0
LayerCount: 2
Fore
SplineSet
548 289 m 0
 548 255.666666667 542.333333333 225.333333333 531 198 c 0
 517 164 496.333333333 139.666666667 469 125 c 0
 435 107.666666667 380.833333333 97 306.5 93 c 128
 232.166666667 89 182.333333333 82 157 72 c 0
 144.333333333 68 132.666666667 59 122 45 c 0
 108.666666667 27 102 5.33333333333 102 -20 c 0
 102 -49.3333333333 107.833333333 -73.5 119.5 -92.5 c 128
 131.166666667 -111.5 149 -121 173 -121 c 0
 192.333333333 -121 209.833333333 -112.833333333 225.5 -96.5 c 128
 241.166666667 -80.1666666667 249 -64 249 -48 c 2
 249 23 l 1
 335 23 l 1
 335 -46 l 2
 335 -64.6666666667 341.333333333 -81.3333333333 354 -96 c 0
 369.333333333 -114 389 -123 413 -123 c 0
 433.666666667 -123 449 -116.166666667 459 -102.5 c 128
 469 -88.8333333333 474 -71.3333333333 474 -50 c 0
 474 -13.3333333333 463.666666667 17.6666666667 443 43 c 1
 504 71 l 1
 526 39 537 2.33333333333 537 -39 c 0
 537 -77.6666666667 527 -109 507 -133 c 0
 484.333333333 -160.333333333 451 -174 407 -174 c 0
 381.666666667 -174 360 -169.833333333 342 -161.5 c 128
 324 -153.166666667 310 -142.333333333 300 -129 c 1
 288.666666667 -142.333333333 272.833333333 -153.166666667 252.5 -161.5 c 128
 232.166666667 -169.833333333 209.333333333 -174 184 -174 c 0
 128.666666667 -174 86.8333333333 -160.166666667 58.5 -132.5 c 128
 30.1666666667 -104.833333333 16 -67.3333333333 16 -20 c 0
 16 16 24.6666666667 45.6666666667 42 69 c 0
 56.6666666667 89 76.6666666667 103.666666667 102 113 c 0
 138 127 208.333333333 138 313 146 c 0
 357 149.333333333 390.333333333 156.666666667 413 168 c 0
 431.666666667 176.666666667 445.333333333 197.333333333 454 230 c 0
 460 252 463 274.333333333 463 297 c 0
 463 327 456.666666667 351.5 444 370.5 c 128
 431.333333333 389.5 411.333333333 399 384 399 c 0
 367.333333333 399 354.333333333 390.666666667 345 374 c 0
 338.333333333 362 335 349 335 335 c 2
 335 205 l 1
 249 205 l 1
 249 330 l 2
 249 346 243.333333333 360.333333333 232 373 c 0
 216 390.333333333 193.333333333 399 164 399 c 0
 143.333333333 399 124 395 106 387 c 128
 88 379 73.6666666667 368.333333333 63 355 c 1
 78.3333333333 364.333333333 95.3333333333 369 114 369 c 0
 143.333333333 369 167.333333333 358 186 336 c 128
 204.666666667 314 214 287.666666667 214 257 c 0
 214 223 204 196.333333333 184 177 c 128
 164 157.666666667 137.666666667 148 105 148 c 0
 67 148 38.6666666667 163.666666667 20 195 c 0
 4.66666666667 221 -3 256 -3 300 c 0
 -3 341.333333333 12.3333333333 376.333333333 43 405 c 0
 76.3333333333 436.333333333 121.333333333 452 178 452 c 0
 212 452 238.666666667 448 258 440 c 128
 277.333333333 432 291.666666667 421 301 407 c 1
 309.666666667 420.333333333 320 430.666666667 332 438 c 0
 348 447.333333333 368.333333333 452 393 452 c 0
 443.666666667 452 482.166666667 437.833333333 508.5 409.5 c 128
 534.833333333 381.166666667 548 341 548 289 c 0
133 273 m 0
 131 282.333333333 126.166666667 290 118.5 296 c 128
 110.833333333 302 102.333333333 305 93 305 c 0
 85 305 77.1666666667 302.833333333 69.5 298.5 c 128
 61.8333333333 294.166666667 55 287.666666667 49 279 c 1
 49 258.333333333 53.1666666667 241.5 61.5 228.5 c 128
 69.8333333333 215.5 81.3333333333 209 96 209 c 0
 108 209 117.5 214.166666667 124.5 224.5 c 128
 131.5 234.833333333 135 246 135 258 c 0
 135 261.333333333 134.333333333 266.333333333 133 273 c 0
EndSplineSet
EndChar

StartChar: u0B92
Encoding: 50 2962 50
Width: 664
Flags: HW
AnchorPoint: "V" 282.5 453 basechar 0
AnchorPoint: "N" 282.5 -246 basechar 0
LayerCount: 2
Fore
SplineSet
568 212 m 0
 568 161.333333333 556.833333333 121.833333333 534.5 93.5 c 128
 512.166666667 65.1666666667 482 51 444 51 c 0
 421.333333333 51 403.5 55.1666666667 390.5 63.5 c 128
 377.5 71.8333333333 367.666666667 84.3333333333 361 101 c 1
 361 76.3333333333 371 59 391 49 c 0
 407 41 430.666666667 37 462 37 c 2
 545 37 l 1
 545 -18 l 1
 481 -18 l 2
 459 -18 443 -32 433 -60 c 0
 424.333333333 -88.6666666667 416 -117.666666667 408 -147 c 0
 396.666666667 -179 378.666666667 -203.5 354 -220.5 c 128
 329.333333333 -237.5 293.666666667 -246 247 -246 c 0
 193 -246 150.5 -233.166666667 119.5 -207.5 c 128
 88.5 -181.833333333 73 -149.666666667 73 -111 c 0
 73 -76.3333333333 82 -48 100 -26 c 128
 118 -4 143.333333333 7 176 7 c 1
 193 -51 l 1
 148.333333333 -51 126 -71 126 -111 c 0
 126 -134.333333333 137.333333333 -154 160 -170 c 128
 182.666666667 -186 214.333333333 -194 255 -194 c 0
 289 -194 312.333333333 -180.666666667 325 -154 c 0
 329 -145.333333333 335.333333333 -118 344 -72 c 0
 348 -53.3333333333 352.5 -38.5 357.5 -27.5 c 128
 362.5 -16.5 370.333333333 -7 381 1 c 1
 360.333333333 10.3333333333 345 24.8333333333 335 44.5 c 128
 325 64.1666666667 320 86.3333333333 320 111 c 0
 320 144.333333333 327.666666667 177 343 209 c 128
 358.333333333 241 375.666666667 260.333333333 395 267 c 1
 431 249 l 1
 420.333333333 240.333333333 411.833333333 228.333333333 405.5 213 c 128
 399.166666667 197.666666667 396 182.666666667 396 168 c 0
 396 154.666666667 398.666666667 143.333333333 404 134 c 128
 409.333333333 124.666666667 417 120 427 120 c 0
 445.666666667 120 458.5 127.5 465.5 142.5 c 128
 472.5 157.5 476 180 476 210 c 0
 476 263.333333333 454.5 308.166666667 411.5 344.5 c 128
 368.5 380.833333333 321 399 269 399 c 0
 217.666666667 399 174 390.333333333 138 373 c 128
 102 355.666666667 76.3333333333 328.666666667 61 292 c 1
 79 302 99.6666666667 307 123 307 c 0
 160.333333333 307 190.333333333 295.666666667 213 273 c 128
 235.666666667 250.333333333 247 221.333333333 247 186 c 0
 247 146 237.666666667 114.333333333 219 91 c 128
 200.333333333 67.6666666667 172.666666667 56 136 56 c 0
 93.3333333333 56 59.5 71.6666666667 34.5 103 c 128
 9.5 134.333333333 -3 172 -3 216 c 0
 -3 289.333333333 19.3333333333 346 64 386 c 0
 112.666666667 430 184 452 278 452 c 0
 372.666666667 452 446 427.666666667 498 379 c 0
 544.666666667 335 568 279.333333333 568 212 c 0
156 184 m 0
 156 201.333333333 151.333333333 216.666666667 142 230 c 128
 132.666666667 243.333333333 120.333333333 250 105 250 c 0
 75.6666666667 250 57 237.333333333 49 212 c 1
 49 191.333333333 54.8333333333 171.666666667 66.5 153 c 128
 78.1666666667 134.333333333 94.3333333333 125 115 125 c 0
 128.333333333 125 138.5 130.833333333 145.5 142.5 c 128
 152.5 154.166666667 156 168 156 184 c 0
EndSplineSet
EndChar

StartChar: u0B93
Encoding: 51 2963 51
Width: 664
Flags: HW
AnchorPoint: "V" 282.5 453 basechar 0
AnchorPoint: "N" 282.5 -246 basechar 0
LayerCount: 2
Fore
SplineSet
568 212 m 0
 568 161.333333333 556.833333333 121.833333333 534.5 93.5 c 128
 512.166666667 65.1666666667 482 51 444 51 c 0
 421.333333333 51 403.333333333 55.5 390 64.5 c 128
 376.666666667 73.5 367 86 361 102 c 1
 361 78 371 60.6666666667 391 50 c 0
 407.666666667 41.3333333333 431.333333333 37 462 37 c 2
 545 37 l 1
 545 -18 l 1
 481 -18 l 2
 459 -18 443 -32 433 -60 c 0
 424.333333333 -88.6666666667 416 -117.666666667 408 -147 c 0
 396.666666667 -179 378.666666667 -203.5 354 -220.5 c 128
 329.333333333 -237.5 293.666666667 -246 247 -246 c 0
 193.666666667 -246 151.333333333 -233.166666667 120 -207.5 c 128
 88.6666666667 -181.833333333 73 -149.666666667 73 -111 c 0
 73 -76.3333333333 82 -48.5 100 -27.5 c 128
 118 -6.5 144.333333333 4 179 4 c 0
 213 4 239.833333333 -4.33333333333 259.5 -21 c 128
 279.166666667 -37.6666666667 289 -57.6666666667 289 -81 c 0
 289 -95.6666666667 286.166666667 -109.833333333 280.5 -123.5 c 128
 274.833333333 -137.166666667 265 -150.333333333 251 -163 c 1
 200 -135 l 1
 208.666666667 -125 215.166666667 -115.666666667 219.5 -107 c 128
 223.833333333 -98.3333333333 226 -91 226 -85 c 0
 226 -75.6666666667 221.5 -67.6666666667 212.5 -61 c 128
 203.5 -54.3333333333 192.666666667 -51 180 -51 c 0
 144 -51 126 -71 126 -111 c 0
 126 -134.333333333 137.333333333 -154 160 -170 c 128
 182.666666667 -186 214.333333333 -194 255 -194 c 0
 297 -194 323.666666667 -171.333333333 335 -126 c 0
 342 -91 342 -91 349 -56 c 0
 351.666666667 -42.6666666667 355.333333333 -31.5 360 -22.5 c 128
 364.666666667 -13.5 371.666666667 -5.66666666667 381 1 c 1
 360.333333333 10.3333333333 345 24.6666666667 335 44 c 128
 325 63.3333333333 320 85.6666666667 320 111 c 0
 320 144.333333333 327.666666667 177 343 209 c 128
 358.333333333 241 375.666666667 260.333333333 395 267 c 1
 431 249 l 1
 420.333333333 240.333333333 411.833333333 228.333333333 405.5 213 c 128
 399.166666667 197.666666667 396 182.666666667 396 168 c 0
 396 154.666666667 398.666666667 143.333333333 404 134 c 128
 409.333333333 124.666666667 417 120 427 120 c 0
 445.666666667 120 458.5 127.5 465.5 142.5 c 128
 472.5 157.5 476 180 476 210 c 0
 476 263.333333333 454.5 308.166666667 411.5 344.5 c 128
 368.5 380.833333333 321 399 269 399 c 0
 217.666666667 399 174 390.333333333 138 373 c 128
 102 355.666666667 76.3333333333 328.666666667 61 292 c 1
 79 302 99.6666666667 307 123 307 c 0
 160.333333333 307 190.333333333 295.666666667 213 273 c 128
 235.666666667 250.333333333 247 221.333333333 247 186 c 0
 247 146 237.666666667 114.333333333 219 91 c 128
 200.333333333 67.6666666667 172.666666667 56 136 56 c 0
 93.3333333333 56 59.5 71.6666666667 34.5 103 c 128
 9.5 134.333333333 -3 172 -3 216 c 0
 -3 289.333333333 19.3333333333 346 64 386 c 0
 112.666666667 430 184 452 278 452 c 0
 372.666666667 452 446 427.666666667 498 379 c 0
 544.666666667 335 568 279.333333333 568 212 c 0
156 184 m 0
 156 201.333333333 151.333333333 216.666666667 142 230 c 128
 132.666666667 243.333333333 120.333333333 250 105 250 c 0
 75.6666666667 250 57 237.333333333 49 212 c 1
 49 191.333333333 54.8333333333 171.666666667 66.5 153 c 128
 78.1666666667 134.333333333 94.3333333333 125 115 125 c 0
 128.333333333 125 138.5 130.833333333 145.5 142.5 c 128
 152.5 154.166666667 156 168 156 184 c 0
EndSplineSet
EndChar

StartChar: u0B95
Encoding: 53 2965 53
Width: 616
Flags: HW
AnchorPoint: "V" 239 453 basechar 0
AnchorPoint: "N" 239 -3 basechar 0
LayerCount: 2
Fore
SplineSet
520 124 m 0
 520 83.3333333333 508.333333333 52 485 30 c 128
 461.666666667 8 430.666666667 -3 392 -3 c 0
 361.333333333 -3 337.5 1 320.5 9 c 128
 303.5 17 291.333333333 27.6666666667 284 41 c 1
 269.333333333 29 251 18.6666666667 229 10 c 128
 207 1.33333333333 182.666666667 -3 156 -3 c 0
 108 -3 70 8.66666666667 42 32 c 0
 12 57.3333333333 -3 94.3333333333 -3 143 c 0
 -3 178.333333333 8 208 30 232 c 0
 47.3333333333 250.666666667 65.6666666667 261.666666667 85 265 c 1
 85 452 l 1
 418 452 l 1
 418 399 l 1
 321 399 l 1
 321 267 l 1
 384.333333333 267 430.333333333 259.333333333 459 244 c 0
 499.666666667 222 520 182 520 124 c 0
231 267 m 1
 231 399 l 1
 137 399 l 1
 137 267 l 1
 231 267 l 1
433 121 m 0
 433 161 422.333333333 187.666666667 401 201 c 0
 385.666666667 210.333333333 359 215 321 215 c 1
 321 109 l 2
 321 69 338.666666667 49 374 49 c 0
 390 49 403.833333333 55.1666666667 415.5 67.5 c 128
 427.166666667 79.8333333333 433 97.6666666667 433 121 c 0
231 105 m 2
 231 215 l 1
 113 215 l 2
 93.6666666667 215 78.1666666667 207 66.5 191 c 128
 54.8333333333 175 49 156 49 134 c 0
 49 77.3333333333 81 49 145 49 c 0
 162.333333333 49 181 54.8333333333 201 66.5 c 128
 221 78.1666666667 231 91 231 105 c 2
EndSplineSet
EndChar

StartChar: u0B95_u0BBF
Encoding: 54 -1 54
Width: 722
Flags: HW
AnchorPoint: "V" 239 711.745 basechar 0
AnchorPoint: "N" 239 -3 basechar 0
LayerCount: 2
Fore
SplineSet
626 -3 m 1
 579 -3 l 1
 579 444 l 2
 579 497.333333333 555.166666667 541.166666667 507.5 575.5 c 128
 459.833333333 609.833333333 400 627 328 627 c 0
 234 627 163.333333333 609 116 573 c 0
 71.3333333333 539 49 492 49 432 c 0
 49 408.666666667 52.1666666667 384.833333333 58.5 360.5 c 128
 64.8333333333 336.166666667 73.6666666667 316 85 300 c 1
 85 452 l 1
 418 452 l 1
 418 399 l 1
 321 399 l 1
 321 267 l 1
 384.333333333 267 430.333333333 259.333333333 459 244 c 0
 499.666666667 222 520 182 520 124 c 0
 520 83.3333333333 508.333333333 52 485 30 c 128
 461.666666667 8 430.666666667 -3 392 -3 c 0
 361.333333333 -3 337.5 1 320.5 9 c 128
 303.5 17 291.333333333 27.6666666667 284 41 c 1
 269.333333333 29 251 18.6666666667 229 10 c 128
 207 1.33333333333 182.666666667 -3 156 -3 c 0
 108 -3 70 8.66666666667 42 32 c 0
 12 57.3333333333 -3 94.3333333333 -3 143 c 0
 -3 171 3.33333333333 195 16 215 c 0
 26 231 40 244.333333333 58 255 c 1
 36 276.333333333 20.3333333333 301.666666667 11 331 c 128
 1.66666666667 360.333333333 -3 392.333333333 -3 427 c 0
 -3 511 21.6666666667 578.666666667 71 630 c 0
 128.333333333 689.333333333 213.666666667 719 327 719 c 0
 429 719 504.333333333 695.5 553 648.5 c 128
 601.666666667 601.5 626 531 626 437 c 2
 626 -3 l 1
231 267 m 1
 231 399 l 1
 137 399 l 1
 137 267 l 1
 231 267 l 1
433 121 m 0
 433 161 422.333333333 187.666666667 401 201 c 0
 385.666666667 210.333333333 359 215 321 215 c 1
 321 109 l 2
 321 69 338.666666667 49 374 49 c 0
 390 49 403.833333333 55.1666666667 415.5 67.5 c 128
 427.166666667 79.8333333333 433 97.6666666667 433 121 c 0
231 105 m 2
 231 215 l 1
 113 215 l 2
 93.6666666667 215 78.1666666667 207 66.5 191 c 128
 54.8333333333 175 49 156 49 134 c 0
 49 77.3333333333 81 49 145 49 c 0
 162.333333333 49 181 54.8333333333 201 66.5 c 128
 221 78.1666666667 231 91 231 105 c 2
EndSplineSet
EndChar

StartChar: u0B95_u0BC0
Encoding: 55 -1 55
Width: 616
Flags: HW
AnchorPoint: "V" 239 734.428 basechar 0
AnchorPoint: "N" 239 -3 basechar 0
LayerCount: 2
Fore
SplineSet
520 124 m 0
 520 83.3333333333 508.333333333 52 485 30 c 128
 461.666666667 8 430.666666667 -3 392 -3 c 0
 361.333333333 -3 337.5 1 320.5 9 c 128
 303.5 17 291.333333333 27.6666666667 284 41 c 1
 269.333333333 29 251 18.6666666667 229 10 c 128
 207 1.33333333333 182.666666667 -3 156 -3 c 0
 108 -3 70 8.66666666667 42 32 c 0
 12 57.3333333333 -3 94.3333333333 -3 143 c 0
 -3 171 3.33333333333 195 16 215 c 0
 26 231 40 244.333333333 58 255 c 1
 36 276.333333333 20.3333333333 301.666666667 11 331 c 128
 1.66666666667 360.333333333 -3 392.333333333 -3 427 c 0
 -3 520.333333333 26.8333333333 596.166666667 86.5 654.5 c 128
 146.166666667 712.833333333 223.333333333 742 318 742 c 0
 368 742 409 733 441 715 c 0
 485 690.333333333 507 652.333333333 507 601 c 0
 507 569 496.166666667 541.833333333 474.5 519.5 c 128
 452.833333333 497.166666667 424 486 388 486 c 0
 354 486 326.833333333 496.166666667 306.5 516.5 c 128
 286.166666667 536.833333333 276 561 276 589 c 0
 276 603.666666667 278.5 617.833333333 283.5 631.5 c 128
 288.5 645.166666667 295.666666667 656.666666667 305 666 c 1
 291 667 l 1
 221 667 162 641.333333333 114 590 c 0
 70.6666666667 543.333333333 49 490.666666667 49 432 c 0
 49 408.666666667 52.1666666667 384.833333333 58.5 360.5 c 128
 64.8333333333 336.166666667 73.6666666667 316 85 300 c 1
 85 452 l 1
 418 452 l 1
 418 399 l 1
 321 399 l 1
 321 267 l 1
 384.333333333 267 430.333333333 259.333333333 459 244 c 0
 499.666666667 222 520 182 520 124 c 0
432 589 m 0
 432 605.666666667 426.5 619.833333333 415.5 631.5 c 128
 404.5 643.166666667 391 649 375 649 c 1
 360.333333333 646.333333333 348.5 639.333333333 339.5 628 c 128
 330.5 616.666666667 326 603.333333333 326 588 c 0
 326 574 331 561.666666667 341 551 c 128
 351 540.333333333 363.333333333 535 378 535 c 0
 393.333333333 535 406.166666667 540.166666667 416.5 550.5 c 128
 426.833333333 560.833333333 432 573.666666667 432 589 c 0
231 267 m 1
 231 399 l 1
 137 399 l 1
 137 267 l 1
 231 267 l 1
433 121 m 0
 433 161 422.333333333 187.666666667 401 201 c 0
 385.666666667 210.333333333 359 215 321 215 c 1
 321 109 l 2
 321 69 338.666666667 49 374 49 c 0
 390 49 403.833333333 55.1666666667 415.5 67.5 c 128
 427.166666667 79.8333333333 433 97.6666666667 433 121 c 0
231 105 m 2
 231 215 l 1
 113 215 l 2
 93.6666666667 215 78.1666666667 207 66.5 191 c 128
 54.8333333333 175 49 156 49 134 c 0
 49 77.3333333333 81 49 145 49 c 0
 162.333333333 49 181 54.8333333333 201 66.5 c 128
 221 78.1666666667 231 91 231 105 c 2
EndSplineSet
EndChar

StartChar: u0B95_u0BC1
Encoding: 56 -1 56
Width: 776
Flags: HW
AnchorPoint: "V" 239 453 basechar 0
AnchorPoint: "N" 239 -3 basechar 0
LayerCount: 2
Fore
SplineSet
680 106 m 0
 680 12.6666666667 659 -57.6666666667 617 -105 c 0
 562.333333333 -167 468.333333333 -198 335 -198 c 0
 223 -198 137.666666667 -165.666666667 79 -101 c 0
 24.3333333333 -40.3333333333 -3 43.6666666667 -3 151 c 0
 -3 216.333333333 6.33333333333 275.5 25 328.5 c 128
 43.6666666667 381.5 70.3333333333 423.666666667 105 455 c 1
 141 425 l 1
 109 393 85.6666666667 353.166666667 71 305.5 c 128
 56.3333333333 257.833333333 49 205.666666667 49 149 c 0
 49 59 73.1666666667 -12.5 121.5 -65.5 c 128
 169.833333333 -118.5 238.666666667 -145 328 -145 c 0
 429.333333333 -145 500.666666667 -118.666666667 542 -66 c 0
 572.666666667 -26.6666666667 588 30.3333333333 588 105 c 0
 588 140.333333333 580 167 564 185 c 0
 546 205 516.666666667 215 476 215 c 1
 476 109 l 2
 476 85 461.666666667 61.3333333333 433 38 c 0
 399 10.6666666667 358.666666667 -3 312 -3 c 0
 263.333333333 -3 225 8.66666666667 197 32 c 0
 167 57.3333333333 152 94.3333333333 152 143 c 0
 152 177.666666667 163 207 185 231 c 0
 202.333333333 249.666666667 220.666666667 261 240 265 c 1
 240 452 l 1
 574 452 l 1
 574 399 l 1
 476 399 l 1
 476 267 l 1
 544.666666667 267 594.666666667 256 626 234 c 0
 662 208.666666667 680 166 680 106 c 0
386 267 m 1
 386 399 l 1
 292 399 l 1
 292 267 l 1
 386 267 l 1
386 105 m 2
 386 215 l 1
 268 215 l 2
 248.666666667 215 233.166666667 207 221.5 191 c 128
 209.833333333 175 204 156 204 134 c 0
 204 106 212.5 84.8333333333 229.5 70.5 c 128
 246.5 56.1666666667 270 49 300 49 c 0
 317.333333333 49 336 54.8333333333 356 66.5 c 128
 376 78.1666666667 386 91 386 105 c 2
EndSplineSet
EndChar

StartChar: u0B95_u0BC2
Encoding: 57 -1 57
Width: 939
VWidth: 348
Flags: HW
AnchorPoint: "V" 239 459.333 basechar 0
AnchorPoint: "N" 239 -3 basechar 0
LayerCount: 2
Fore
SplineSet
111.258789062 217.633789062 m 0
 91.2666015625 217.633789062 45.3408203125 200.165039062 45.3408203125 133.928710938 c 0
 45.3408203125 80.9853515625 70.599609375 45.689453125 145.438476562 45.689453125 c 0
 187.950195312 45.689453125 232.77734375 79.537109375 233.330078125 104.379882812 c 0
 233.329101562 217.633789062 l 0
 111.258789062 217.633789062 l 0
233.329101562 269.950195312 m 0
 233.329101562 407.017578125 l 0
 135.672851562 407.017578125 l 0
 135.672851562 269.950195312 l 0
 233.329101562 269.950195312 l 0
427.943359375 43.248046875 m 0
 446.498046875 43.248046875 474.330078125 56.89453125 474.330078125 128.697265625 c 0
 474.330078125 168.60546875 447.10546875 197.828125 428.833007812 206.291992188 c 0
 408.416015625 189.954101562 386.439453125 175.131835938 386.439453125 109.86328125 c 0
 386.439453125 51.39453125 414.634765625 43.248046875 427.943359375 43.248046875 c 0
427.399414062 269.950195312 m 0
 448.37109375 281.623046875 487.828125 298.897460938 537.806640625 298.897460938 c 0
 707.1328125 298.897460938 725.446289062 189.729492188 725.446289062 151.3671875 c 0
 725.446289062 103.60546875 697.516601562 67.5048828125 668.669921875 43.248046875 c 0
 811.244140625 43.248046875 l 0
 811.244140625 -9.068359375 l 0
 530.831054688 -9.068359375 l 0
 530.831054688 39.6650390625 l 0
 535.323242188 42.154296875 l 0
 620.40625 89.3134765625 633.021484375 126.176757812 633.021484375 147.181640625 c 0
 633.021484375 207.390625 597.000976562 240.653320312 548.270507812 240.653320312 c 0
 526.46484375 240.653320312 503.424804688 239.708007812 488.270507812 234.848632812 c 0
 510.90234375 214.711914062 545.829101562 184.836914062 545.829101562 115.094726562 c 0
 545.829101562 54.6845703125 503.655273438 -9.4169921875 440.499023438 -9.4169921875 c 0
 398.444335938 -9.4169921875 334.47265625 13.392578125 334.47265625 104.631835938 c 0
 335.211914062 161.002929688 352.266601562 197.252929688 365.370117188 216.587890625 c 0
 325.752929688 216.587890625 l 0
 325.752929688 106.375976562 l 0
 325.752929688 45.4580078125 240.455078125 -7.6728515625 156.947265625 -7.6728515625 c 0
 60.35546875 -7.6728515625 -6.9755859375 41.0986328125 -6.9755859375 141.950195312 c 0
 -6.9755859375 224.294921875 52.84375 261.333007812 84.0537109375 267.5859375 c 0
 84.0537109375 459.333007812 l 0
 426.200195312 459.333007812 l 0
 426.200195312 407.017578125 l 0
 326.102539062 407.017578125 l 0
 326.102539062 269.950195312 l 0
 427.399414062 269.950195312 l 0
EndSplineSet
EndChar

StartChar: u0B95_u0BC2.old
Encoding: 58 -1 58
Width: 926
Flags: HW
AnchorPoint: "V" 239 453 basechar 0
AnchorPoint: "N" 239 -3 basechar 0
LayerCount: 2
Fore
SplineSet
830 -3 m 1
 556 -3 l 1
 557 45 l 1
 582.333333333 59.6666666667 601 72.6666666667 613 84 c 0
 635 104.666666667 646 126.333333333 646 149 c 0
 646 168.333333333 639 184.333333333 625 197 c 128
 611 209.666666667 593.666666667 216 573 216 c 0
 550.333333333 216 531.666666667 213 517 207 c 128
 502.333333333 201 493.666666667 192.333333333 491 181 c 1
 491 -3 l 1
 399 -3 l 1
 399 215 l 1
 321 215 l 1
 321 109 l 2
 321 80.3333333333 303.5 54.5 268.5 31.5 c 128
 233.5 8.5 196 -3 156 -3 c 0
 108 -3 70 8.66666666667 42 32 c 0
 12 57.3333333333 -3 94.3333333333 -3 143 c 0
 -3 178.333333333 8 208 30 232 c 0
 47.3333333333 250.666666667 65.6666666667 261.666666667 85 265 c 1
 85 452 l 1
 418 452 l 1
 418 399 l 1
 321 399 l 1
 321 267 l 1
 432 267 l 2
 438 267 445.333333333 265 454 261 c 128
 462.666666667 257 469 251.666666667 473 245 c 1
 484.333333333 254.333333333 500.333333333 261.833333333 521 267.5 c 128
 541.666666667 273.166666667 567.333333333 276 598 276 c 0
 638 276 671.666666667 266.333333333 699 247 c 0
 731 224.333333333 747 193.333333333 747 154 c 0
 747 134 741.833333333 115 731.5 97 c 128
 721.166666667 79 708 63 692 49 c 1
 830 49 l 1
 830 -3 l 1
231 267 m 1
 231 399 l 1
 137 399 l 1
 137 267 l 1
 231 267 l 1
231 105 m 2
 231 215 l 1
 113 215 l 2
 93.6666666667 215 78.1666666667 207 66.5 191 c 128
 54.8333333333 175 49 156 49 134 c 0
 49 77.3333333333 81 49 145 49 c 0
 162.333333333 49 181 54.8333333333 201 66.5 c 128
 221 78.1666666667 231 91 231 105 c 2
EndSplineSet
EndChar

StartChar: u0B95_u0BCD
Encoding: 59 -1 59
Width: 616
Flags: HW
AnchorPoint: "N" 239 -3 basechar 0
LayerCount: 2
Fore
SplineSet
305 586 m 0
 305 568 298.5 552.5 285.5 539.5 c 128
 272.5 526.5 257 520 239 520 c 256
 221 520 205.5 526.5 192.5 539.5 c 128
 179.5 552.5 173 568 173 586 c 256
 173 604 179.5 619.5 192.5 632.5 c 128
 205.5 645.5 221 652 239 652 c 0
 256.333333333 652 271.666666667 645.333333333 285 632 c 128
 298.333333333 618.666666667 305 603.333333333 305 586 c 0
520 124 m 0
 520 83.3333333333 508.333333333 52 485 30 c 128
 461.666666667 8 430.666666667 -3 392 -3 c 0
 361.333333333 -3 337.5 1 320.5 9 c 128
 303.5 17 291.333333333 27.6666666667 284 41 c 1
 269.333333333 29 251 18.6666666667 229 10 c 128
 207 1.33333333333 182.666666667 -3 156 -3 c 0
 108 -3 70 8.66666666667 42 32 c 0
 12 57.3333333333 -3 94.3333333333 -3 143 c 0
 -3 178.333333333 8 208 30 232 c 0
 47.3333333333 250.666666667 65.6666666667 261.666666667 85 265 c 1
 85 452 l 1
 418 452 l 1
 418 399 l 1
 321 399 l 1
 321 267 l 1
 384.333333333 267 430.333333333 259.333333333 459 244 c 0
 499.666666667 222 520 182 520 124 c 0
231 267 m 1
 231 399 l 1
 137 399 l 1
 137 267 l 1
 231 267 l 1
433 121 m 0
 433 161 422.333333333 187.666666667 401 201 c 0
 385.666666667 210.333333333 359 215 321 215 c 1
 321 109 l 2
 321 69 338.666666667 49 374 49 c 0
 390 49 403.833333333 55.1666666667 415.5 67.5 c 128
 427.166666667 79.8333333333 433 97.6666666667 433 121 c 0
231 105 m 2
 231 215 l 1
 113 215 l 2
 93.6666666667 215 78.1666666667 207 66.5 191 c 128
 54.8333333333 175 49 156 49 134 c 0
 49 77.3333333333 81 49 145 49 c 0
 162.333333333 49 181 54.8333333333 201 66.5 c 128
 221 78.1666666667 231 91 231 105 c 2
EndSplineSet
EndChar

StartChar: u0B99
Encoding: 60 2969 60
Width: 693
Flags: HW
AnchorPoint: "V" 303.5 453 basechar 0
AnchorPoint: "N" 303.5 -3 basechar 0
LayerCount: 2
Fore
SplineSet
597 -3 m 1
 142 -3 l 1
 142 44 l 1
 261 44 l 1
 284.333333333 53.3333333333 301.833333333 69.3333333333 313.5 92 c 128
 325.166666667 114.666666667 331 140 331 168 c 0
 331 190 325 207.666666667 313 221 c 128
 301 234.333333333 287.333333333 241 272 241 c 0
 251.333333333 241 238.333333333 230.333333333 233 209 c 1
 233 123 l 1
 142 123 l 1
 142 399 l 1
 49 399 l 1
 49 -3 l 1
 -3 -3 l 1
 -3 452 l 1
 330 452 l 1
 330 399 l 1
 233 399 l 1
 233 286 l 1
 249.666666667 297.333333333 268.333333333 303 289 303 c 0
 321.666666667 303 350.333333333 291.333333333 375 268 c 0
 403 241.333333333 417 206.666666667 417 164 c 0
 417 136.666666667 412.833333333 112.666666667 404.5 92 c 128
 396.166666667 71.3333333333 384.666666667 55.3333333333 370 44 c 1
 510 44 l 1
 510 452 l 1
 597 452 l 1
 597 -3 l 1
EndSplineSet
EndChar

StartChar: u0B99_u0BBF
Encoding: 61 -1 61
Width: 786
Flags: HW
AnchorPoint: "V" 303.5 453 basechar 0
AnchorPoint: "N" 303.5 -3 basechar 0
LayerCount: 2
Fore
SplineSet
690 -3 m 1
 642 -3 l 1
 642 496 l 2
 642 537.333333333 633.666666667 568 617 588 c 128
 600.333333333 608 572.333333333 618 533 618 c 0
 505 618 481.166666667 609.166666667 461.5 591.5 c 128
 441.833333333 573.833333333 432 549.666666667 432 519 c 0
 432 464.333333333 453.333333333 437 496 437 c 1
 496 452 l 1
 582 452 l 1
 582 -3 l 1
 142 -3 l 1
 142 44 l 1
 261 44 l 1
 284.333333333 53.3333333333 301.833333333 69.3333333333 313.5 92 c 128
 325.166666667 114.666666667 331 140 331 168 c 0
 331 190 325 207.666666667 313 221 c 128
 301 234.333333333 287.333333333 241 272 241 c 0
 251.333333333 241 238.333333333 230.333333333 233 209 c 1
 233 123 l 1
 142 123 l 1
 142 399 l 1
 49 399 l 1
 49 -3 l 1
 -3 -3 l 1
 -3 452 l 1
 330 452 l 1
 330 399 l 1
 233 399 l 1
 233 286 l 1
 249.666666667 297.333333333 268.333333333 303 289 303 c 0
 321.666666667 303 350.333333333 291.333333333 375 268 c 0
 403 241.333333333 417 206.666666667 417 164 c 0
 417 136.666666667 412.833333333 112.666666667 404.5 92 c 128
 396.166666667 71.3333333333 384.666666667 55.3333333333 370 44 c 1
 496 44 l 1
 496 384 l 1
 461.333333333 384 433 396 411 420 c 0
 387 446.666666667 375 484 375 532 c 0
 375 587.333333333 388.833333333 629.833333333 416.5 659.5 c 128
 444.166666667 689.166666667 483.333333333 704 534 704 c 0
 588.666666667 704 628.333333333 687.166666667 653 653.5 c 128
 677.666666667 619.833333333 690 571 690 507 c 2
 690 -3 l 1
EndSplineSet
EndChar

StartChar: u0B99_u0BC0
Encoding: 62 -1 62
Width: 783
Flags: HW
AnchorPoint: "V" 303.5 453 basechar 0
AnchorPoint: "N" 303.5 -3 basechar 0
LayerCount: 2
Fore
SplineSet
796 578 m 0
 796 545.333333333 785.166666667 518.166666667 763.5 496.5 c 128
 741.833333333 474.833333333 712.666666667 464 676 464 c 0
 640.666666667 464 613.166666667 473.833333333 593.5 493.5 c 128
 573.833333333 513.166666667 564 537.666666667 564 567 c 256
 564 596.333333333 573.333333333 622 592 644 c 1
 579 644 l 2
 546.333333333 644 519.333333333 631.333333333 498 606 c 128
 476.666666667 580.666666667 466 552.333333333 466 521 c 0
 466 495 470.166666667 473.333333333 478.5 456 c 128
 486.833333333 438.666666667 497.333333333 428 510 424 c 1
 510 452 l 1
 602 452 l 1
 602 -3 l 1
 142 -3 l 1
 142 44 l 1
 261 44 l 1
 284.333333333 53.3333333333 301.833333333 69.3333333333 313.5 92 c 128
 325.166666667 114.666666667 331 140 331 168 c 0
 331 190 325 207.666666667 313 221 c 128
 301 234.333333333 287.333333333 241 272 241 c 0
 251.333333333 241 238.333333333 230.333333333 233 209 c 1
 233 123 l 1
 142 123 l 1
 142 399 l 1
 49 399 l 1
 49 -3 l 1
 -3 -3 l 1
 -3 452 l 1
 330 452 l 1
 330 399 l 1
 233 399 l 1
 233 286 l 1
 249.666666667 297.333333333 268.333333333 303 289 303 c 0
 321.666666667 303 350.333333333 291.333333333 375 268 c 0
 403 241.333333333 417 206.666666667 417 164 c 0
 417 136.666666667 412.833333333 112.666666667 404.5 92 c 128
 396.166666667 71.3333333333 384.666666667 55.3333333333 370 44 c 1
 510 44 l 1
 510 381 l 1
 482.666666667 385 460 398.666666667 442 422 c 0
 420 450 409 487 409 533 c 0
 409 596.333333333 431.666666667 645 477 679 c 0
 513.666666667 706.333333333 556.666666667 720 606 720 c 0
 656.666666667 720 698 711 730 693 c 0
 774 668.333333333 796 630 796 578 c 0
720 567 m 0
 720 583 714.666666667 596.666666667 704 608 c 128
 693.333333333 619.333333333 679.666666667 625 663 625 c 1
 649 622.333333333 637.5 615.5 628.5 604.5 c 128
 619.5 593.5 615 580.666666667 615 566 c 0
 615 552 619.833333333 539.5 629.5 528.5 c 128
 639.166666667 517.5 651.333333333 512 666 512 c 256
 680.666666667 512 693.333333333 517.333333333 704 528 c 128
 714.666666667 538.666666667 720 551.666666667 720 567 c 0
EndSplineSet
EndChar

StartChar: u0B99_u0BC1
Encoding: 63 -1 63
Width: 693
Flags: HW
AnchorPoint: "V" 303.5 453 basechar 0
AnchorPoint: "N" 303.5 -3 basechar 0
LayerCount: 2
Fore
SplineSet
597 -134 m 1
 510 -134 l 1
 510 -3 l 1
 142 -3 l 1
 142 44 l 1
 261 44 l 1
 284.333333333 53.3333333333 301.833333333 69.3333333333 313.5 92 c 128
 325.166666667 114.666666667 331 140 331 168 c 0
 331 190 325 207.666666667 313 221 c 128
 301 234.333333333 287.333333333 241 272 241 c 0
 251.333333333 241 238.333333333 230.333333333 233 209 c 1
 233 123 l 1
 142 123 l 1
 142 399 l 1
 49 399 l 1
 49 -3 l 1
 -3 -3 l 1
 -3 452 l 1
 330 452 l 1
 330 399 l 1
 233 399 l 1
 233 286 l 1
 249.666666667 297.333333333 268.333333333 303 289 303 c 0
 321.666666667 303 350.333333333 291.333333333 375 268 c 0
 403 241.333333333 417 206.666666667 417 164 c 0
 417 136.666666667 412.833333333 112.666666667 404.5 92 c 128
 396.166666667 71.3333333333 384.666666667 55.3333333333 370 44 c 1
 510 44 l 1
 510 452 l 1
 597 452 l 1
 597 -134 l 1
EndSplineSet
EndChar

StartChar: u0B99_u0BC2
Encoding: 64 -1 64
Width: 911
Flags: HW
AnchorPoint: "V" 303.5 453 basechar 0
AnchorPoint: "N" 303.5 -3 basechar 0
LayerCount: 2
Fore
SplineSet
815 106 m 0
 815 -3.33333333333 780.666666667 -88 712 -148 c 0
 637.333333333 -213.333333333 525 -246 375 -246 c 0
 311.666666667 -246 262.333333333 -235 227 -213 c 128
 191.666666667 -191 174 -160 174 -120 c 0
 174 -86.6666666667 183.5 -60.8333333333 202.5 -42.5 c 128
 221.5 -24.1666666667 248.666666667 -15 284 -15 c 256
 319.333333333 -15 346.833333333 -24.8333333333 366.5 -44.5 c 128
 386.166666667 -64.1666666667 396 -89.3333333333 396 -120 c 0
 396 -134.666666667 393 -148 387 -160 c 128
 381 -172 372 -183 360 -193 c 1
 378 -195 l 1
 496.666666667 -195 586.666666667 -163 648 -99 c 0
 699.333333333 -45 725 23 725 105 c 0
 725 130.333333333 720 152.666666667 710 172 c 0
 696 198.666666667 675 212 647 212 c 0
 621.666666667 212 605 204.333333333 597 189 c 1
 597 -110 l 1
 510 -110 l 1
 510 -3 l 1
 142 -3 l 1
 142 44 l 1
 261 44 l 1
 284.333333333 53.3333333333 301.833333333 69.3333333333 313.5 92 c 128
 325.166666667 114.666666667 331 140 331 168 c 0
 331 190 325 207.666666667 313 221 c 128
 301 234.333333333 287.333333333 241 272 241 c 0
 251.333333333 241 238.333333333 230.333333333 233 209 c 1
 233 123 l 1
 142 123 l 1
 142 399 l 1
 49 399 l 1
 49 -3 l 1
 -3 -3 l 1
 -3 452 l 1
 330 452 l 1
 330 399 l 1
 233 399 l 1
 233 286 l 1
 249.666666667 297.333333333 268.333333333 303 289 303 c 0
 321.666666667 303 350.333333333 291.333333333 375 268 c 0
 403 241.333333333 417 206.666666667 417 164 c 0
 417 136.666666667 412.833333333 112.666666667 404.5 92 c 128
 396.166666667 71.3333333333 384.666666667 55.3333333333 370 44 c 1
 510 44 l 1
 510 452 l 1
 597 452 l 1
 597 256 l 1
 615 270 636.666666667 277 662 277 c 0
 711.333333333 277 750 258.333333333 778 221 c 0
 802.666666667 188.333333333 815 150 815 106 c 0
330 -118 m 0
 330 -102.666666667 325.333333333 -89.6666666667 316 -79 c 128
 306.666666667 -68.3333333333 294.666666667 -63 280 -63 c 0
 264 -63 250.666666667 -68.3333333333 240 -79 c 128
 229.333333333 -89.6666666667 224 -103 224 -119 c 0
 224 -135.666666667 229.166666667 -149.5 239.5 -160.5 c 128
 249.833333333 -171.5 263.666666667 -177 281 -177 c 1
 295.666666667 -174.333333333 307.5 -167.5 316.5 -156.5 c 128
 325.5 -145.5 330 -132.666666667 330 -118 c 0
EndSplineSet
EndChar

StartChar: u0B99_u0BCD
Encoding: 65 -1 65
Width: 693
Flags: HW
AnchorPoint: "N" 303.5 -3 basechar 0
LayerCount: 2
Fore
SplineSet
370 586 m 256
 370 568.666666667 363.333333333 553.333333333 350 540 c 128
 336.666666667 526.666666667 321.333333333 520 304 520 c 0
 286 520 270.333333333 526.333333333 257 539 c 128
 243.666666667 551.666666667 237 567.333333333 237 586 c 0
 237 603.333333333 243.666666667 618.666666667 257 632 c 128
 270.333333333 645.333333333 286 652 304 652 c 0
 321.333333333 652 336.666666667 645.333333333 350 632 c 128
 363.333333333 618.666666667 370 603.333333333 370 586 c 256
597 -3 m 1
 142 -3 l 1
 142 44 l 1
 261 44 l 1
 284.333333333 53.3333333333 301.833333333 69.3333333333 313.5 92 c 128
 325.166666667 114.666666667 331 140 331 168 c 0
 331 190 325 207.666666667 313 221 c 128
 301 234.333333333 287.333333333 241 272 241 c 0
 251.333333333 241 238.333333333 230.333333333 233 209 c 1
 233 123 l 1
 142 123 l 1
 142 399 l 1
 49 399 l 1
 49 -3 l 1
 -3 -3 l 1
 -3 452 l 1
 330 452 l 1
 330 399 l 1
 233 399 l 1
 233 286 l 1
 249.666666667 297.333333333 268.333333333 303 289 303 c 0
 321.666666667 303 350.333333333 291.333333333 375 268 c 0
 403 241.333333333 417 206.666666667 417 164 c 0
 417 136.666666667 412.833333333 112.666666667 404.5 92 c 128
 396.166666667 71.3333333333 384.666666667 55.3333333333 370 44 c 1
 510 44 l 1
 510 452 l 1
 597 452 l 1
 597 -3 l 1
EndSplineSet
EndChar

StartChar: u0B99_u0BCD.alt
Encoding: 66 -1 66
Width: 693
Flags: HW
AnchorPoint: "N" 303.5 -3 basechar 0
LayerCount: 2
Fore
SplineSet
408 583 m 0
 408 553.666666667 397.833333333 528.833333333 377.5 508.5 c 128
 357.166666667 488.166666667 332.666666667 478 304 478 c 0
 274.666666667 478 249.833333333 488.166666667 229.5 508.5 c 128
 209.166666667 528.833333333 199 553.666666667 199 583 c 0
 199 611 209.333333333 635.333333333 230 656 c 128
 250.666666667 676.666666667 275.333333333 687 304 687 c 256
 332.666666667 687 357.166666667 676.833333333 377.5 656.5 c 128
 397.833333333 636.166666667 408 611.666666667 408 583 c 0
597 -3 m 1
 142 -3 l 1
 142 44 l 1
 261 44 l 1
 284.333333333 53.3333333333 301.833333333 69.3333333333 313.5 92 c 128
 325.166666667 114.666666667 331 140 331 168 c 0
 331 190 325 207.666666667 313 221 c 128
 301 234.333333333 287.333333333 241 272 241 c 0
 251.333333333 241 238.333333333 230.333333333 233 209 c 1
 233 123 l 1
 142 123 l 1
 142 399 l 1
 49 399 l 1
 49 -3 l 1
 -3 -3 l 1
 -3 452 l 1
 330 452 l 1
 330 399 l 1
 233 399 l 1
 233 286 l 1
 249.666666667 297.333333333 268.333333333 303 289 303 c 0
 321.666666667 303 350.333333333 291.333333333 375 268 c 0
 403 241.333333333 417 206.666666667 417 164 c 0
 417 136.666666667 412.833333333 112.666666667 404.5 92 c 128
 396.166666667 71.3333333333 384.666666667 55.3333333333 370 44 c 1
 510 44 l 1
 510 452 l 1
 597 452 l 1
 597 -3 l 1
364 586 m 0
 364 601.333333333 358 615 346 627 c 128
 334 639 320 645 304 645 c 256
 288 645 274 639.333333333 262 628 c 128
 250 616.666666667 244 602.666666667 244 586 c 256
 244 569.333333333 249.833333333 555.166666667 261.5 543.5 c 128
 273.166666667 531.833333333 287.333333333 526 304 526 c 0
 320 526 334 532 346 544 c 128
 358 556 364 570 364 586 c 0
EndSplineSet
EndChar

StartChar: u0B95_u0BB7
Encoding: 67 -1 67
Width: 1464
Flags: HW
AnchorPoint: "V" 239 453 basechar 0
AnchorPoint: "N" 239 -3 basechar 0
LayerCount: 2
Fore
SplineSet
1368 106 m 0
 1368 74.6666666667 1360 49.6666666667 1344 31 c 0
 1324.66666667 8.33333333333 1295 -3 1255 -3 c 2
 1204 -3 l 1
 1204 -212 l 1
 1117 -212 l 1
 1117 -3 l 1
 690 -3 l 1
 724 31 748.833333333 65 764.5 99 c 128
 780.166666667 133 788 168.333333333 788 205 c 0
 788 261 773 307.333333333 743 344 c 128
 713 380.666666667 673.333333333 399 624 399 c 0
 572 399 530 384 498 354 c 0
 472 330 456.666666667 301 452 267 c 1
 544 267 l 2
 584.666666667 267 615.666666667 259.333333333 637 244 c 0
 661.666666667 226 674 196.333333333 674 155 c 0
 674 107.666666667 663.333333333 69.5 642 40.5 c 128
 620.666666667 11.5 591.333333333 -3 554 -3 c 0
 502 -3 463.166666667 16.1666666667 437.5 54.5 c 128
 411.833333333 92.8333333333 399 146.333333333 399 215 c 1
 321 215 l 1
 321 109 l 2
 321 80.3333333333 303.5 54.5 268.5 31.5 c 128
 233.5 8.5 196 -3 156 -3 c 0
 108 -3 70 8.66666666667 42 32 c 0
 12 57.3333333333 -3 94.3333333333 -3 143 c 0
 -3 178.333333333 8 208 30 232 c 0
 47.3333333333 250.666666667 65.6666666667 261.666666667 85 265 c 1
 85 452 l 1
 418 452 l 1
 418 399 l 1
 321 399 l 1
 321 267 l 1
 404 267 l 1
 414 325 438 370.333333333 476 403 c 128
 514 435.666666667 564 452 626 452 c 0
 710 452 773.666666667 427.666666667 817 379 c 0
 855 336.333333333 874 279.333333333 874 208 c 0
 874 176.666666667 870.333333333 149 863 125 c 128
 855.666666667 101 842.333333333 75.6666666667 823 49 c 1
 1117 49 l 1
 1117 185 l 1
 1066.33333333 195 1027.33333333 209.333333333 1000 228 c 0
 964 252.666666667 946 285 946 325 c 256
 946 365 956.666666667 396.166666667 978 418.5 c 128
 999.333333333 440.833333333 1031.33333333 452 1074 452 c 0
 1115.33333333 452 1147.33333333 443.333333333 1170 426 c 128
 1192.66666667 408.666666667 1204 386.333333333 1204 359 c 2
 1204 225 l 1
 1251.33333333 216.333333333 1289 203.333333333 1317 186 c 0
 1351 164.666666667 1368 138 1368 106 c 0
1117 239 m 1
 1117 348 l 2
 1117 362.666666667 1111 374.333333333 1099 383 c 128
 1087 391.666666667 1071.33333333 396 1052 396 c 0
 1033.33333333 396 1019 389.666666667 1009 377 c 128
 999 364.333333333 994 347 994 325 c 0
 994 302.333333333 1007.33333333 283.333333333 1034 268 c 0
 1054 256 1081.66666667 246.333333333 1117 239 c 1
1310 110 m 0
 1310 125.333333333 1300.5 137.666666667 1281.5 147 c 128
 1262.5 156.333333333 1236.66666667 164 1204 170 c 1
 1204 49 l 1
 1256 49 l 2
 1276 49 1290 54.3333333333 1298 65 c 128
 1306 75.6666666667 1310 90.6666666667 1310 110 c 0
583 154 m 0
 583 194.666666667 559.666666667 215 513 215 c 2
 451 215 l 1
 451 199.666666667 452 182.833333333 454 164.5 c 128
 456 146.166666667 459.166666667 131 463.5 119 c 128
 467.833333333 107 475.5 96.3333333333 486.5 87 c 128
 497.5 77.6666666667 510.333333333 73 525 73 c 0
 543.666666667 73 558 81.1666666667 568 97.5 c 128
 578 113.833333333 583 132.666666667 583 154 c 0
231 267 m 1
 231 399 l 1
 137 399 l 1
 137 267 l 1
 231 267 l 1
231 105 m 2
 231 215 l 1
 113 215 l 2
 93.6666666667 215 78.1666666667 207 66.5 191 c 128
 54.8333333333 175 49 156 49 134 c 0
 49 77.3333333333 81 49 145 49 c 0
 162.333333333 49 181 54.8333333333 201 66.5 c 128
 221 78.1666666667 231 91 231 105 c 2
EndSplineSet
EndChar

StartChar: u0B95_u0BB7_u0BBF
Encoding: 68 -1 68
Width: 1572
Flags: HW
AnchorPoint: "V" 239 453 basechar 0
AnchorPoint: "N" 239 -3 basechar 0
LayerCount: 2
Fore
SplineSet
1476 -3 m 1
 1428 -3 l 1
 1428 510 l 2
 1428 547.333333333 1417 576.333333333 1395 597 c 0
 1368.33333333 622.333333333 1325 635 1265 635 c 0
 1161.66666667 635 1110 591.666666667 1110 505 c 0
 1110 491.666666667 1111.83333333 480.166666667 1115.5 470.5 c 128
 1119.16666667 460.833333333 1124 452.333333333 1130 445 c 1
 1179.33333333 431 1204 402.333333333 1204 359 c 2
 1204 225 l 1
 1251.33333333 216.333333333 1289 203.333333333 1317 186 c 0
 1351 164.666666667 1368 138 1368 106 c 0
 1368 74.6666666667 1360 49.6666666667 1344 31 c 0
 1324.66666667 8.33333333333 1295 -3 1255 -3 c 2
 1204 -3 l 1
 1204 -212 l 1
 1117 -212 l 1
 1117 -3 l 1
 690 -3 l 1
 724 31 748.833333333 65 764.5 99 c 128
 780.166666667 133 788 168.333333333 788 205 c 0
 788 261 773 307.333333333 743 344 c 128
 713 380.666666667 673.333333333 399 624 399 c 0
 572 399 530 384 498 354 c 0
 472 330 456.666666667 301 452 267 c 1
 544 267 l 2
 584.666666667 267 615.666666667 259.333333333 637 244 c 0
 661.666666667 226 674 196.333333333 674 155 c 0
 674 107.666666667 663.333333333 69.5 642 40.5 c 128
 620.666666667 11.5 591.333333333 -3 554 -3 c 0
 502 -3 463.166666667 16.1666666667 437.5 54.5 c 128
 411.833333333 92.8333333333 399 146.333333333 399 215 c 1
 321 215 l 1
 321 109 l 2
 321 80.3333333333 303.5 54.5 268.5 31.5 c 128
 233.5 8.5 196 -3 156 -3 c 0
 108 -3 70 8.66666666667 42 32 c 0
 12 57.3333333333 -3 94.3333333333 -3 143 c 0
 -3 178.333333333 8 208 30 232 c 0
 47.3333333333 250.666666667 65.6666666667 261.666666667 85 265 c 1
 85 452 l 1
 418 452 l 1
 418 399 l 1
 321 399 l 1
 321 267 l 1
 404 267 l 1
 414 325 438 370.333333333 476 403 c 128
 514 435.666666667 564 452 626 452 c 0
 710 452 773.666666667 427.666666667 817 379 c 0
 855 336.333333333 874 279.333333333 874 208 c 0
 874 176.666666667 870.333333333 149 863 125 c 128
 855.666666667 101 842.333333333 75.6666666667 823 49 c 1
 1117 49 l 1
 1117 185 l 1
 1066.33333333 195 1027.33333333 209.333333333 1000 228 c 0
 964 252.666666667 946 285 946 325 c 256
 946 365 956.666666667 396.166666667 978 418.5 c 128
 999.333333333 440.833333333 1031.33333333 452 1074 452 c 1
 1060.66666667 473.333333333 1054 504 1054 544 c 0
 1054 601.333333333 1072.33333333 645 1109 675 c 128
 1145.66666667 705 1198 720 1266 720 c 0
 1347.33333333 720 1405 697 1439 651 c 0
 1463.66666667 617.666666667 1476 571 1476 511 c 2
 1476 -3 l 1
1117 239 m 1
 1117 348 l 2
 1117 362.666666667 1111 374.333333333 1099 383 c 128
 1087 391.666666667 1071.33333333 396 1052 396 c 0
 1033.33333333 396 1019 389.666666667 1009 377 c 128
 999 364.333333333 994 347 994 325 c 0
 994 302.333333333 1007.33333333 283.333333333 1034 268 c 0
 1054 256 1081.66666667 246.333333333 1117 239 c 1
1310 110 m 0
 1310 125.333333333 1300.5 137.666666667 1281.5 147 c 128
 1262.5 156.333333333 1236.66666667 164 1204 170 c 1
 1204 49 l 1
 1256 49 l 2
 1276 49 1290 54.3333333333 1298 65 c 128
 1306 75.6666666667 1310 90.6666666667 1310 110 c 0
583 154 m 0
 583 194.666666667 559.666666667 215 513 215 c 2
 451 215 l 1
 451 199.666666667 452 182.833333333 454 164.5 c 128
 456 146.166666667 459.166666667 131 463.5 119 c 128
 467.833333333 107 475.5 96.3333333333 486.5 87 c 128
 497.5 77.6666666667 510.333333333 73 525 73 c 0
 543.666666667 73 558 81.1666666667 568 97.5 c 128
 578 113.833333333 583 132.666666667 583 154 c 0
231 267 m 1
 231 399 l 1
 137 399 l 1
 137 267 l 1
 231 267 l 1
231 105 m 2
 231 215 l 1
 113 215 l 2
 93.6666666667 215 78.1666666667 207 66.5 191 c 128
 54.8333333333 175 49 156 49 134 c 0
 49 77.3333333333 81 49 145 49 c 0
 162.333333333 49 181 54.8333333333 201 66.5 c 128
 221 78.1666666667 231 91 231 105 c 2
EndSplineSet
EndChar

StartChar: u0B95_u0BB7_u0BC0
Encoding: 69 -1 69
Width: 1464
Flags: HW
AnchorPoint: "V" 239 453 basechar 0
AnchorPoint: "N" 239 -3 basechar 0
LayerCount: 2
Fore
SplineSet
1368 106 m 0
 1368 74.6666666667 1360 49.6666666667 1344 31 c 0
 1324.66666667 8.33333333333 1295 -3 1255 -3 c 2
 1204 -3 l 1
 1204 -212 l 1
 1117 -212 l 1
 1117 -3 l 1
 690 -3 l 1
 724 31 748.833333333 65 764.5 99 c 128
 780.166666667 133 788 168.333333333 788 205 c 0
 788 261 773 307.333333333 743 344 c 128
 713 380.666666667 673.333333333 399 624 399 c 0
 572 399 530 384 498 354 c 0
 472 330 456.666666667 301 452 267 c 1
 544 267 l 2
 584.666666667 267 615.666666667 259.333333333 637 244 c 0
 661.666666667 226 674 196.333333333 674 155 c 0
 674 107.666666667 663.333333333 69.5 642 40.5 c 128
 620.666666667 11.5 591.333333333 -3 554 -3 c 0
 502 -3 463.166666667 16.1666666667 437.5 54.5 c 128
 411.833333333 92.8333333333 399 146.333333333 399 215 c 1
 321 215 l 1
 321 109 l 2
 321 80.3333333333 303.5 54.5 268.5 31.5 c 128
 233.5 8.5 196 -3 156 -3 c 0
 108 -3 70 8.66666666667 42 32 c 0
 12 57.3333333333 -3 94.3333333333 -3 143 c 0
 -3 178.333333333 8 208 30 232 c 0
 47.3333333333 250.666666667 65.6666666667 261.666666667 85 265 c 1
 85 452 l 1
 418 452 l 1
 418 399 l 1
 321 399 l 1
 321 267 l 1
 404 267 l 1
 414 325 438 370.333333333 476 403 c 128
 514 435.666666667 564 452 626 452 c 0
 710 452 773.666666667 427.666666667 817 379 c 0
 855 336.333333333 874 279.333333333 874 208 c 0
 874 176.666666667 870.333333333 149 863 125 c 128
 855.666666667 101 842.333333333 75.6666666667 823 49 c 1
 1117 49 l 1
 1117 185 l 1
 1066.33333333 195 1027.33333333 209.333333333 1000 228 c 0
 964 252.666666667 946 285 946 325 c 0
 946 395 977 436.333333333 1039 449 c 1
 1024.33333333 464.333333333 1013.33333333 479.666666667 1006 495 c 0
 996 515 991 535.333333333 991 556 c 0
 991 620.666666667 1012 669.333333333 1054 702 c 0
 1088 728.666666667 1129 742 1177 742 c 0
 1227.66666667 742 1269.33333333 733 1302 715 c 0
 1346 690.333333333 1368 652.333333333 1368 601 c 0
 1368 569 1357.16666667 541.833333333 1335.5 519.5 c 128
 1313.83333333 497.166666667 1284.66666667 486 1248 486 c 0
 1212.66666667 486 1185.16666667 496 1165.5 516 c 128
 1145.83333333 536 1136 560.333333333 1136 589 c 0
 1136 603.666666667 1138.33333333 617.833333333 1143 631.5 c 128
 1147.66666667 645.166666667 1154.66666667 656.666666667 1164 666 c 1
 1151 667 l 2
 1119 667 1093.66666667 654.5 1075 629.5 c 128
 1056.33333333 604.5 1047 576 1047 544 c 0
 1047 526 1051 509.166666667 1059 493.5 c 128
 1067 477.833333333 1077.66666667 464 1091 452 c 1
 1126.33333333 452 1154 443 1174 425 c 128
 1194 407 1204 385 1204 359 c 2
 1204 225 l 1
 1251.33333333 216.333333333 1289 203.333333333 1317 186 c 0
 1351 164.666666667 1368 138 1368 106 c 0
1292 589 m 0
 1292 605.666666667 1286.83333333 619.833333333 1276.5 631.5 c 128
 1266.16666667 643.166666667 1252.66666667 649 1236 649 c 1
 1221.33333333 646.333333333 1209.5 639.333333333 1200.5 628 c 128
 1191.5 616.666666667 1187 603.333333333 1187 588 c 0
 1187 573.333333333 1191.83333333 560.833333333 1201.5 550.5 c 128
 1211.16666667 540.166666667 1223.33333333 535 1238 535 c 0
 1253.33333333 535 1266.16666667 540.166666667 1276.5 550.5 c 128
 1286.83333333 560.833333333 1292 573.666666667 1292 589 c 0
1117 239 m 1
 1117 348 l 2
 1117 362.666666667 1111 374.333333333 1099 383 c 128
 1087 391.666666667 1071.33333333 396 1052 396 c 0
 1033.33333333 396 1019 389.666666667 1009 377 c 128
 999 364.333333333 994 347 994 325 c 0
 994 302.333333333 1007.33333333 283.333333333 1034 268 c 0
 1054 256 1081.66666667 246.333333333 1117 239 c 1
1310 110 m 0
 1310 125.333333333 1300.5 137.666666667 1281.5 147 c 128
 1262.5 156.333333333 1236.66666667 164 1204 170 c 1
 1204 49 l 1
 1256 49 l 2
 1276 49 1290 54.3333333333 1298 65 c 128
 1306 75.6666666667 1310 90.6666666667 1310 110 c 0
583 154 m 0
 583 194.666666667 559.666666667 215 513 215 c 2
 451 215 l 1
 451 199.666666667 452 182.833333333 454 164.5 c 128
 456 146.166666667 459.166666667 131 463.5 119 c 128
 467.833333333 107 475.5 96.3333333333 486.5 87 c 128
 497.5 77.6666666667 510.333333333 73 525 73 c 0
 543.666666667 73 558 81.1666666667 568 97.5 c 128
 578 113.833333333 583 132.666666667 583 154 c 0
231 267 m 1
 231 399 l 1
 137 399 l 1
 137 267 l 1
 231 267 l 1
231 105 m 2
 231 215 l 1
 113 215 l 2
 93.6666666667 215 78.1666666667 207 66.5 191 c 128
 54.8333333333 175 49 156 49 134 c 0
 49 77.3333333333 81 49 145 49 c 0
 162.333333333 49 181 54.8333333333 201 66.5 c 128
 221 78.1666666667 231 91 231 105 c 2
EndSplineSet
EndChar

StartChar: u0B95_u0BB7_u0BCD
Encoding: 70 -1 70
Width: 1464
Flags: HW
AnchorPoint: "N" 239 -3 basechar 0
LayerCount: 2
Fore
SplineSet
719 586 m 256
 719 568.666666667 712.333333333 553.333333333 699 540 c 128
 685.666666667 526.666666667 670 520 652 520 c 256
 634 520 618.5 526.5 605.5 539.5 c 128
 592.5 552.5 586 568 586 586 c 0
 586 603.333333333 592.666666667 618.666666667 606 632 c 128
 619.333333333 645.333333333 634.666666667 652 652 652 c 0
 670 652 685.666666667 645.333333333 699 632 c 128
 712.333333333 618.666666667 719 603.333333333 719 586 c 256
1368 106 m 0
 1368 74.6666666667 1360 49.6666666667 1344 31 c 0
 1324.66666667 8.33333333333 1295 -3 1255 -3 c 2
 1204 -3 l 1
 1204 -212 l 1
 1117 -212 l 1
 1117 -3 l 1
 690 -3 l 1
 724 31 748.833333333 65 764.5 99 c 128
 780.166666667 133 788 168.333333333 788 205 c 0
 788 261 773 307.333333333 743 344 c 128
 713 380.666666667 673.333333333 399 624 399 c 0
 572 399 530 384 498 354 c 0
 472 330 456.666666667 301 452 267 c 1
 544 267 l 2
 584.666666667 267 615.666666667 259.333333333 637 244 c 0
 661.666666667 226 674 196.333333333 674 155 c 0
 674 107.666666667 663.333333333 69.5 642 40.5 c 128
 620.666666667 11.5 591.333333333 -3 554 -3 c 0
 502 -3 463.166666667 16.1666666667 437.5 54.5 c 128
 411.833333333 92.8333333333 399 146.333333333 399 215 c 1
 321 215 l 1
 321 109 l 2
 321 80.3333333333 303.5 54.5 268.5 31.5 c 128
 233.5 8.5 196 -3 156 -3 c 0
 108 -3 70 8.66666666667 42 32 c 0
 12 57.3333333333 -3 94.3333333333 -3 143 c 0
 -3 178.333333333 8 208 30 232 c 0
 47.3333333333 250.666666667 65.6666666667 261.666666667 85 265 c 1
 85 452 l 1
 418 452 l 1
 418 399 l 1
 321 399 l 1
 321 267 l 1
 404 267 l 1
 414 325 438 370.333333333 476 403 c 128
 514 435.666666667 564 452 626 452 c 0
 710 452 773.666666667 427.666666667 817 379 c 0
 855 336.333333333 874 279.333333333 874 208 c 0
 874 176.666666667 870.333333333 149 863 125 c 128
 855.666666667 101 842.333333333 75.6666666667 823 49 c 1
 1117 49 l 1
 1117 185 l 1
 1066.33333333 195 1027.33333333 209.333333333 1000 228 c 0
 964 252.666666667 946 285 946 325 c 256
 946 365 956.666666667 396.166666667 978 418.5 c 128
 999.333333333 440.833333333 1031.33333333 452 1074 452 c 0
 1115.33333333 452 1147.33333333 443.333333333 1170 426 c 128
 1192.66666667 408.666666667 1204 386.333333333 1204 359 c 2
 1204 225 l 1
 1251.33333333 216.333333333 1289 203.333333333 1317 186 c 0
 1351 164.666666667 1368 138 1368 106 c 0
1117 239 m 1
 1117 348 l 2
 1117 362.666666667 1111 374.333333333 1099 383 c 128
 1087 391.666666667 1071.33333333 396 1052 396 c 0
 1033.33333333 396 1019 389.666666667 1009 377 c 128
 999 364.333333333 994 347 994 325 c 0
 994 302.333333333 1007.33333333 283.333333333 1034 268 c 0
 1054 256 1081.66666667 246.333333333 1117 239 c 1
1310 110 m 0
 1310 125.333333333 1300.5 137.666666667 1281.5 147 c 128
 1262.5 156.333333333 1236.66666667 164 1204 170 c 1
 1204 49 l 1
 1256 49 l 2
 1276 49 1290 54.3333333333 1298 65 c 128
 1306 75.6666666667 1310 90.6666666667 1310 110 c 0
583 154 m 0
 583 194.666666667 559.666666667 215 513 215 c 2
 451 215 l 1
 451 199.666666667 452 182.833333333 454 164.5 c 128
 456 146.166666667 459.166666667 131 463.5 119 c 128
 467.833333333 107 475.5 96.3333333333 486.5 87 c 128
 497.5 77.6666666667 510.333333333 73 525 73 c 0
 543.666666667 73 558 81.1666666667 568 97.5 c 128
 578 113.833333333 583 132.666666667 583 154 c 0
231 267 m 1
 231 399 l 1
 137 399 l 1
 137 267 l 1
 231 267 l 1
231 105 m 2
 231 215 l 1
 113 215 l 2
 93.6666666667 215 78.1666666667 207 66.5 191 c 128
 54.8333333333 175 49 156 49 134 c 0
 49 77.3333333333 81 49 145 49 c 0
 162.333333333 49 181 54.8333333333 201 66.5 c 128
 221 78.1666666667 231 91 231 105 c 2
EndSplineSet
EndChar

StartChar: u0B9A
Encoding: 71 2970 71
Width: 515
Flags: HW
AnchorPoint: "V" 239 453 basechar 0
AnchorPoint: "N" 239 -3 basechar 0
LayerCount: 2
Fore
SplineSet
418 215 m 1
 321 215 l 1
 321 109 l 2
 321 80.3333333333 303.5 54.5 268.5 31.5 c 128
 233.5 8.5 196 -3 156 -3 c 0
 108 -3 70 8.66666666667 42 32 c 0
 12 57.3333333333 -3 94.3333333333 -3 143 c 0
 -3 178.333333333 8 208 30 232 c 0
 47.3333333333 250.666666667 65.6666666667 261.666666667 85 265 c 1
 85 452 l 1
 418 452 l 1
 418 399 l 1
 321 399 l 1
 321 267 l 1
 418 267 l 1
 418 215 l 1
231 267 m 1
 231 399 l 1
 137 399 l 1
 137 267 l 1
 231 267 l 1
231 105 m 2
 231 215 l 1
 113 215 l 2
 93.6666666667 215 78.1666666667 207 66.5 191 c 128
 54.8333333333 175 49 156 49 134 c 0
 49 77.3333333333 81 49 145 49 c 0
 162.333333333 49 181 54.8333333333 201 66.5 c 128
 221 78.1666666667 231 91 231 105 c 2
EndSplineSet
EndChar

StartChar: u0B9A_u0BBF
Encoding: 72 -1 72
Width: 626
Flags: HW
AnchorPoint: "V" 239 717.591 basechar 0
AnchorPoint: "N" 239 -3 basechar 0
LayerCount: 2
Fore
SplineSet
530 -3 m 1
 481 -3 l 1
 481 444 l 2
 481 496.666666667 460.666666667 540.333333333 420 575 c 128
 379.333333333 609.666666667 329.333333333 627 270 627 c 0
 194.666666667 627 138 608 100 570 c 0
 66 536 49 490 49 432 c 0
 49 408.666666667 52.1666666667 384.833333333 58.5 360.5 c 128
 64.8333333333 336.166666667 73.6666666667 316 85 300 c 1
 85 452 l 1
 418 452 l 1
 418 399 l 1
 321 399 l 1
 321 267 l 1
 418 267 l 1
 418 215 l 1
 321 215 l 1
 321 109 l 2
 321 80.3333333333 303.5 54.5 268.5 31.5 c 128
 233.5 8.5 196 -3 156 -3 c 0
 108 -3 70 8.66666666667 42 32 c 0
 12 57.3333333333 -3 94.3333333333 -3 143 c 0
 -3 171 3.33333333333 195 16 215 c 0
 26 231 40 244.333333333 58 255 c 1
 36 276.333333333 20.3333333333 301.666666667 11 331 c 128
 1.66666666667 360.333333333 -3 392.333333333 -3 427 c 0
 -3 506.333333333 17 572.333333333 57 625 c 0
 105 687.666666667 175.666666667 719 269 719 c 0
 352.333333333 719 416.666666667 695 462 647 c 128
 507.333333333 599 530 529 530 437 c 2
 530 -3 l 1
231 267 m 1
 231 399 l 1
 137 399 l 1
 137 267 l 1
 231 267 l 1
231 105 m 2
 231 215 l 1
 113 215 l 2
 93.6666666667 215 78.1666666667 207 66.5 191 c 128
 54.8333333333 175 49 156 49 134 c 0
 49 77.3333333333 81 49 145 49 c 0
 162.333333333 49 181 54.8333333333 201 66.5 c 128
 221 78.1666666667 231 91 231 105 c 2
EndSplineSet
EndChar

StartChar: u0B9A_u0BC0
Encoding: 73 -1 73
Width: 514
Flags: HW
AnchorPoint: "V" 239 734.428 basechar 0
AnchorPoint: "N" 239 -3 basechar 0
LayerCount: 2
Fore
SplineSet
507 601 m 0
 507 569 496.166666667 541.833333333 474.5 519.5 c 128
 452.833333333 497.166666667 424 486 388 486 c 0
 354 486 326.833333333 496.166666667 306.5 516.5 c 128
 286.166666667 536.833333333 276 561 276 589 c 0
 276 603.666666667 278.5 617.833333333 283.5 631.5 c 128
 288.5 645.166666667 295.666666667 656.666666667 305 666 c 1
 291 667 l 1
 221 667 162 641.333333333 114 590 c 0
 70.6666666667 543.333333333 49 490.666666667 49 432 c 0
 49 408.666666667 52.1666666667 384.833333333 58.5 360.5 c 128
 64.8333333333 336.166666667 73.6666666667 316 85 300 c 1
 85 452 l 1
 417 452 l 1
 417 399 l 1
 321 399 l 1
 321 267 l 1
 417 267 l 1
 417 215 l 1
 321 215 l 1
 321 109 l 2
 321 80.3333333333 303.5 54.5 268.5 31.5 c 128
 233.5 8.5 196 -3 156 -3 c 0
 108 -3 70 8.66666666667 42 32 c 0
 12 57.3333333333 -3 94.3333333333 -3 143 c 0
 -3 171 3.33333333333 195 16 215 c 0
 26 231 40 244.333333333 58 255 c 1
 36 276.333333333 20.3333333333 301.666666667 11 331 c 128
 1.66666666667 360.333333333 -3 392.333333333 -3 427 c 0
 -3 520.333333333 26.8333333333 596.166666667 86.5 654.5 c 128
 146.166666667 712.833333333 223.333333333 742 318 742 c 0
 368 742 409 733 441 715 c 0
 485 690.333333333 507 652.333333333 507 601 c 0
432 589 m 0
 432 605.666666667 426.5 619.833333333 415.5 631.5 c 128
 404.5 643.166666667 391 649 375 649 c 1
 360.333333333 646.333333333 348.5 639.333333333 339.5 628 c 128
 330.5 616.666666667 326 603.333333333 326 588 c 0
 326 574 331 561.666666667 341 551 c 128
 351 540.333333333 363.333333333 535 378 535 c 0
 393.333333333 535 406.166666667 540.166666667 416.5 550.5 c 128
 426.833333333 560.833333333 432 573.666666667 432 589 c 0
231 267 m 1
 231 399 l 1
 137 399 l 1
 137 267 l 1
 231 267 l 1
231 105 m 2
 231 215 l 1
 113 215 l 2
 93.6666666667 215 78.1666666667 207 66.5 191 c 128
 54.8333333333 175 49 156 49 134 c 0
 49 77.3333333333 81 49 145 49 c 0
 162.333333333 49 181 54.8333333333 201 66.5 c 128
 221 78.1666666667 231 91 231 105 c 2
EndSplineSet
EndChar

StartChar: u0B9A_u0BC1
Encoding: 74 -1 74
Width: 674
Flags: HW
AnchorPoint: "V" 239 453 basechar 0
AnchorPoint: "N" 239 -3 basechar 0
LayerCount: 2
Fore
SplineSet
578 215 m 1
 491 215 l 1
 491 -3 l 1
 399 -3 l 1
 399 215 l 1
 321 215 l 1
 321 109 l 2
 321 80.3333333333 303.5 54.5 268.5 31.5 c 128
 233.5 8.5 196 -3 156 -3 c 0
 108 -3 70 8.66666666667 42 32 c 0
 12 57.3333333333 -3 94.3333333333 -3 143 c 0
 -3 178.333333333 8 208 30 232 c 0
 47.3333333333 250.666666667 65.6666666667 261.666666667 85 265 c 1
 85 452 l 1
 418 452 l 1
 418 399 l 1
 321 399 l 1
 321 267 l 1
 578 267 l 1
 578 215 l 1
231 267 m 1
 231 399 l 1
 137 399 l 1
 137 267 l 1
 231 267 l 1
231 105 m 2
 231 215 l 1
 113 215 l 2
 93.6666666667 215 78.1666666667 207 66.5 191 c 128
 54.8333333333 175 49 156 49 134 c 0
 49 77.3333333333 81 49 145 49 c 0
 162.333333333 49 181 54.8333333333 201 66.5 c 128
 221 78.1666666667 231 91 231 105 c 2
EndSplineSet
EndChar

StartChar: u0B9A_u0BC2
Encoding: 75 -1 75
Width: 766
Flags: HW
AnchorPoint: "V" 239 453 basechar 0
AnchorPoint: "N" 239 -3 basechar 0
LayerCount: 2
Fore
SplineSet
670 22 m 0
 670 -57.3333333333 639.166666667 -121.833333333 577.5 -171.5 c 128
 515.833333333 -221.166666667 438.333333333 -246 345 -246 c 0
 259 -246 192.166666667 -234 144.5 -210 c 128
 96.8333333333 -186 73 -153 73 -111 c 0
 73 -81 85.8333333333 -58 111.5 -42 c 128
 137.166666667 -26 168.666666667 -18 206 -18 c 0
 232.666666667 -18 258.666666667 -22.8333333333 284 -32.5 c 128
 309.333333333 -42.1666666667 331 -55.3333333333 349 -72 c 1
 330 -105 l 1
 311.333333333 -90.3333333333 290.833333333 -79.5 268.5 -72.5 c 128
 246.166666667 -65.5 224.333333333 -62 203 -62 c 0
 177.666666667 -62 158.166666667 -66.1666666667 144.5 -74.5 c 128
 130.833333333 -82.8333333333 124 -94.6666666667 124 -110 c 0
 124 -140 144.666666667 -162.333333333 186 -177 c 0
 218.666666667 -188.333333333 262.333333333 -194 317 -194 c 0
 393 -194 456.333333333 -172 507 -128 c 0
 555 -86.6666666667 579 -38 579 18 c 0
 579 54 572.166666667 81.3333333333 558.5 100 c 128
 544.833333333 118.666666667 529 128 511 128 c 0
 503 128 496.333333333 126 491 122 c 1
 491 -3 l 1
 399 -3 l 1
 399 215 l 1
 321 215 l 1
 321 109 l 2
 321 80.3333333333 303.5 54.5 268.5 31.5 c 128
 233.5 8.5 196 -3 156 -3 c 0
 108 -3 70 8.66666666667 42 32 c 0
 12 57.3333333333 -3 94.3333333333 -3 143 c 0
 -3 178.333333333 8 208 30 232 c 0
 47.3333333333 250.666666667 65.6666666667 261.666666667 85 265 c 1
 85 452 l 1
 418 452 l 1
 418 399 l 1
 321 399 l 1
 321 267 l 1
 578 267 l 1
 578 215 l 1
 491 215 l 1
 491 178 l 1
 504.333333333 186.666666667 520.333333333 191 539 191 c 0
 575 191 605.833333333 176.166666667 631.5 146.5 c 128
 657.166666667 116.833333333 670 75.3333333333 670 22 c 0
231 267 m 1
 231 399 l 1
 137 399 l 1
 137 267 l 1
 231 267 l 1
231 105 m 2
 231 215 l 1
 113 215 l 2
 93.6666666667 215 78.1666666667 207 66.5 191 c 128
 54.8333333333 175 49 156 49 134 c 0
 49 77.3333333333 81 49 145 49 c 0
 162.333333333 49 181 54.8333333333 201 66.5 c 128
 221 78.1666666667 231 91 231 105 c 2
EndSplineSet
EndChar

StartChar: u0B9A_u0BCD
Encoding: 76 -1 76
Width: 515
Flags: HW
AnchorPoint: "N" 239 -3 basechar 0
LayerCount: 2
Fore
SplineSet
305 586 m 0
 305 568 298.5 552.5 285.5 539.5 c 128
 272.5 526.5 257 520 239 520 c 256
 221 520 205.5 526.5 192.5 539.5 c 128
 179.5 552.5 173 568 173 586 c 256
 173 604 179.5 619.5 192.5 632.5 c 128
 205.5 645.5 221 652 239 652 c 0
 256.333333333 652 271.666666667 645.333333333 285 632 c 128
 298.333333333 618.666666667 305 603.333333333 305 586 c 0
418 215 m 1
 321 215 l 1
 321 109 l 2
 321 80.3333333333 303.5 54.5 268.5 31.5 c 128
 233.5 8.5 196 -3 156 -3 c 0
 108 -3 70 8.66666666667 42 32 c 0
 12 57.3333333333 -3 94.3333333333 -3 143 c 0
 -3 178.333333333 8 208 30 232 c 0
 47.3333333333 250.666666667 65.6666666667 261.666666667 85 265 c 1
 85 452 l 1
 418 452 l 1
 418 399 l 1
 321 399 l 1
 321 267 l 1
 418 267 l 1
 418 215 l 1
231 267 m 1
 231 399 l 1
 137 399 l 1
 137 267 l 1
 231 267 l 1
231 105 m 2
 231 215 l 1
 113 215 l 2
 93.6666666667 215 78.1666666667 207 66.5 191 c 128
 54.8333333333 175 49 156 49 134 c 0
 49 77.3333333333 81 49 145 49 c 0
 162.333333333 49 181 54.8333333333 201 66.5 c 128
 221 78.1666666667 231 91 231 105 c 2
EndSplineSet
EndChar

StartChar: u0B9C
Encoding: 77 2972 77
Width: 644
Flags: HW
AnchorPoint: "V" 283.5 453 basechar 0
AnchorPoint: "N" 283.5 -166 basechar 0
LayerCount: 2
Fore
SplineSet
548 289 m 0
 548 254.333333333 542.333333333 222.333333333 531 193 c 0
 516.333333333 155.666666667 495.666666667 129.666666667 469 115 c 0
 435 97.6666666667 380.833333333 87 306.5 83 c 128
 232.166666667 79 182.333333333 72 157 62 c 0
 143 58 131.333333333 50.3333333333 122 39 c 0
 108.666666667 23.6666666667 102 4 102 -20 c 0
 102 -49.3333333333 106.5 -71.8333333333 115.5 -87.5 c 128
 124.5 -103.166666667 140.666666667 -111 164 -111 c 0
 200.666666667 -111 231.333333333 -96.3333333333 256 -67 c 0
 272 -45 284 -28.6666666667 292 -18 c 0
 324 20.6666666667 344.333333333 42.3333333333 353 47 c 0
 372.333333333 57.6666666667 398 63 430 63 c 0
 466.666666667 63 495.333333333 54 516 36 c 128
 536.666666667 18 547 -8 547 -42 c 0
 547 -75.3333333333 537.333333333 -102.333333333 518 -123 c 0
 496 -147 464.333333333 -159 423 -159 c 0
 409 -159 395.666666667 -157.5 383 -154.5 c 128
 370.333333333 -151.5 357.666666667 -146.333333333 345 -139 c 1
 359 -97 l 1
 367 -100.333333333 376.166666667 -102.666666667 386.5 -104 c 128
 396.833333333 -105.333333333 406 -106 414 -106 c 0
 430 -106 441.833333333 -100.833333333 449.5 -90.5 c 128
 457.166666667 -80.1666666667 461 -66.6666666667 461 -50 c 0
 461 -28.6666666667 457.166666667 -13.8333333333 449.5 -5.5 c 128
 441.833333333 2.83333333333 427.666666667 7 407 7 c 0
 397 7 387 2.66666666667 377 -6 c 0
 375.666666667 -7.33333333333 361.333333333 -24.6666666667 334 -58 c 0
 308 -92.6666666667 287 -116.666666667 271 -130 c 0
 242.333333333 -154 210 -166 174 -166 c 0
 118 -166 77.6666666667 -153.666666667 53 -129 c 128
 28.3333333333 -104.333333333 16 -68 16 -20 c 0
 16 15.3333333333 24.6666666667 43.3333333333 42 64 c 0
 55.3333333333 80 75.3333333333 93 102 103 c 0
 138 117 208.333333333 128 313 136 c 0
 357 139.333333333 390.333333333 146.666666667 413 158 c 0
 431.666666667 166.666666667 445.333333333 189 454 225 c 0
 460 249.666666667 463 273.666666667 463 297 c 0
 463 327 456.666666667 351.5 444 370.5 c 128
 431.333333333 389.5 411.333333333 399 384 399 c 0
 367.333333333 399 354.333333333 390.666666667 345 374 c 0
 338.333333333 362 335 349 335 335 c 2
 335 205 l 1
 249 205 l 1
 249 330 l 2
 249 346 243.333333333 360.333333333 232 373 c 0
 216 390.333333333 193.333333333 399 164 399 c 0
 143.333333333 399 124 395 106 387 c 128
 88 379 73.6666666667 368.333333333 63 355 c 1
 78.3333333333 364.333333333 95.3333333333 369 114 369 c 0
 143.333333333 369 167.333333333 358 186 336 c 128
 204.666666667 314 214 287.666666667 214 257 c 0
 214 223 204 196.333333333 184 177 c 128
 164 157.666666667 137.666666667 148 105 148 c 0
 67 148 38.6666666667 163.666666667 20 195 c 0
 4.66666666667 221 -3 256 -3 300 c 0
 -3 341.333333333 12.3333333333 376.333333333 43 405 c 0
 76.3333333333 436.333333333 121.333333333 452 178 452 c 0
 212 452 238.666666667 448 258 440 c 128
 277.333333333 432 291.666666667 421 301 407 c 1
 309.666666667 420.333333333 320 430.666666667 332 438 c 0
 348 447.333333333 368.333333333 452 393 452 c 0
 443.666666667 452 482.166666667 437.833333333 508.5 409.5 c 128
 534.833333333 381.166666667 548 341 548 289 c 0
133 273 m 0
 131 282.333333333 126.166666667 290 118.5 296 c 128
 110.833333333 302 102.333333333 305 93 305 c 0
 85 305 77.1666666667 302.833333333 69.5 298.5 c 128
 61.8333333333 294.166666667 55 287.666666667 49 279 c 1
 49 258.333333333 53.1666666667 241.5 61.5 228.5 c 128
 69.8333333333 215.5 81.3333333333 209 96 209 c 0
 108 209 117.5 214.166666667 124.5 224.5 c 128
 131.5 234.833333333 135 246 135 258 c 0
 135 261.333333333 134.333333333 266.333333333 133 273 c 0
EndSplineSet
EndChar

StartChar: u0B9C_u0BBF
Encoding: 78 -1 78
Width: 771
Flags: HW
AnchorPoint: "V" 283.5 453 basechar 0
AnchorPoint: "N" 283.5 -166 basechar 0
LayerCount: 2
Fore
SplineSet
675 -3 m 1
 627 -3 l 1
 627 510 l 2
 627 544.666666667 619 573 603 595 c 0
 583.666666667 621.666666667 553.666666667 635 513 635 c 0
 475 635 446.166666667 623.833333333 426.5 601.5 c 128
 406.833333333 579.166666667 397 547 397 505 c 0
 397 493.666666667 398.5 483.5 401.5 474.5 c 128
 404.5 465.5 408.666666667 458 414 452 c 1
 458 447.333333333 491.333333333 431 514 403 c 128
 536.666666667 375 548 337 548 289 c 0
 548 254.333333333 542.333333333 222.333333333 531 193 c 0
 516.333333333 155.666666667 495.666666667 129.666666667 469 115 c 0
 435 97.6666666667 380.833333333 87 306.5 83 c 128
 232.166666667 79 182.333333333 72 157 62 c 0
 143 58 131.333333333 50.3333333333 122 39 c 0
 108.666666667 23.6666666667 102 4 102 -20 c 0
 102 -49.3333333333 106.5 -71.8333333333 115.5 -87.5 c 128
 124.5 -103.166666667 140.666666667 -111 164 -111 c 0
 200.666666667 -111 231.333333333 -96.3333333333 256 -67 c 0
 272 -45 284 -28.6666666667 292 -18 c 0
 324 20.6666666667 344.333333333 42.3333333333 353 47 c 0
 372.333333333 57.6666666667 398 63 430 63 c 0
 466.666666667 63 495.333333333 54 516 36 c 128
 536.666666667 18 547 -8 547 -42 c 0
 547 -75.3333333333 537.333333333 -102.333333333 518 -123 c 0
 496 -147 464.333333333 -159 423 -159 c 0
 409 -159 395.666666667 -157.5 383 -154.5 c 128
 370.333333333 -151.5 357.666666667 -146.333333333 345 -139 c 1
 359 -97 l 1
 367 -100.333333333 376.166666667 -102.666666667 386.5 -104 c 128
 396.833333333 -105.333333333 406 -106 414 -106 c 0
 430 -106 441.833333333 -100.833333333 449.5 -90.5 c 128
 457.166666667 -80.1666666667 461 -66.6666666667 461 -50 c 0
 461 -28.6666666667 457.166666667 -13.8333333333 449.5 -5.5 c 128
 441.833333333 2.83333333333 427.666666667 7 407 7 c 0
 397 7 387 2.66666666667 377 -6 c 0
 375.666666667 -7.33333333333 361.333333333 -24.6666666667 334 -58 c 0
 308 -92.6666666667 287 -116.666666667 271 -130 c 0
 242.333333333 -154 210 -166 174 -166 c 0
 118 -166 77.6666666667 -153.666666667 53 -129 c 128
 28.3333333333 -104.333333333 16 -68 16 -20 c 0
 16 15.3333333333 24.6666666667 43.3333333333 42 64 c 0
 55.3333333333 80 75.3333333333 93 102 103 c 0
 138 117 208.333333333 128 313 136 c 0
 357 139.333333333 390.333333333 146.666666667 413 158 c 0
 431.666666667 166.666666667 445.333333333 189 454 225 c 0
 460 249.666666667 463 273.666666667 463 297 c 0
 463 327 456.666666667 351.5 444 370.5 c 128
 431.333333333 389.5 411.333333333 399 384 399 c 0
 367.333333333 399 354.333333333 390.666666667 345 374 c 0
 338.333333333 362 335 349 335 335 c 2
 335 205 l 1
 249 205 l 1
 249 330 l 2
 249 346 243.333333333 360.333333333 232 373 c 0
 216 390.333333333 193.333333333 399 164 399 c 0
 143.333333333 399 124 395 106 387 c 128
 88 379 73.6666666667 368.333333333 63 355 c 1
 78.3333333333 364.333333333 95.3333333333 369 114 369 c 0
 143.333333333 369 167.333333333 358 186 336 c 128
 204.666666667 314 214 287.666666667 214 257 c 0
 214 223 204 196.333333333 184 177 c 128
 164 157.666666667 137.666666667 148 105 148 c 0
 67 148 38.6666666667 163.666666667 20 195 c 0
 4.66666666667 221 -3 256 -3 300 c 0
 -3 341.333333333 12.3333333333 376.333333333 43 405 c 0
 76.3333333333 436.333333333 121.333333333 452 178 452 c 0
 212 452 238.666666667 448 258 440 c 128
 277.333333333 432 291.666666667 421 301 407 c 1
 307 416.333333333 314.833333333 424.666666667 324.5 432 c 128
 334.166666667 439.333333333 346 444.333333333 360 447 c 1
 354.666666667 460.333333333 350.166666667 475.666666667 346.5 493 c 128
 342.833333333 510.333333333 341 527.333333333 341 544 c 0
 341 595.333333333 354.333333333 636.333333333 381 667 c 0
 411.666666667 702.333333333 456 720 514 720 c 0
 577.333333333 720 622 695.666666667 648 647 c 0
 666 613.666666667 675 568.333333333 675 511 c 2
 675 -3 l 1
133 273 m 0
 131 282.333333333 126.166666667 290 118.5 296 c 128
 110.833333333 302 102.333333333 305 93 305 c 0
 85 305 77.1666666667 302.833333333 69.5 298.5 c 128
 61.8333333333 294.166666667 55 287.666666667 49 279 c 1
 49 258.333333333 53.1666666667 241.5 61.5 228.5 c 128
 69.8333333333 215.5 81.3333333333 209 96 209 c 0
 108 209 117.5 214.166666667 124.5 224.5 c 128
 131.5 234.833333333 135 246 135 258 c 0
 135 261.333333333 134.333333333 266.333333333 133 273 c 0
EndSplineSet
EndChar

StartChar: u0B9C_u0BC0
Encoding: 79 -1 79
Width: 676
Flags: HW
AnchorPoint: "V" 283.5 453 basechar 0
AnchorPoint: "N" 283.5 -166 basechar 0
LayerCount: 2
Fore
SplineSet
690 601 m 0
 690 568.333333333 679 541 657 519 c 128
 635 497 605.666666667 486 569 486 c 0
 534.333333333 486 507.166666667 496.166666667 487.5 516.5 c 128
 467.833333333 536.833333333 458 561 458 589 c 0
 458 603.666666667 460.333333333 617.833333333 465 631.5 c 128
 469.666666667 645.166666667 476.666666667 656.666666667 486 666 c 1
 472 667 l 2
 440 667 414.666666667 654.5 396 629.5 c 128
 377.333333333 604.5 368 576 368 544 c 0
 368 526 372 509.333333333 380 494 c 128
 388 478.666666667 398.333333333 464.666666667 411 452 c 1
 455 448 488.833333333 431.833333333 512.5 403.5 c 128
 536.166666667 375.166666667 548 337 548 289 c 0
 548 254.333333333 542.333333333 222.333333333 531 193 c 0
 516.333333333 155.666666667 495.666666667 129.666666667 469 115 c 0
 435 97.6666666667 380.833333333 87 306.5 83 c 128
 232.166666667 79 182.333333333 72 157 62 c 0
 143 58 131.333333333 50.3333333333 122 39 c 0
 108.666666667 23.6666666667 102 4 102 -20 c 0
 102 -49.3333333333 106.5 -71.8333333333 115.5 -87.5 c 128
 124.5 -103.166666667 140.666666667 -111 164 -111 c 0
 200.666666667 -111 231.333333333 -96.3333333333 256 -67 c 0
 272 -45 284 -28.6666666667 292 -18 c 0
 324 20.6666666667 344.333333333 42.3333333333 353 47 c 0
 372.333333333 57.6666666667 398 63 430 63 c 0
 466.666666667 63 495.333333333 54 516 36 c 128
 536.666666667 18 547 -8 547 -42 c 0
 547 -75.3333333333 537.333333333 -102.333333333 518 -123 c 0
 496 -147 464.333333333 -159 423 -159 c 0
 409 -159 395.666666667 -157.5 383 -154.5 c 128
 370.333333333 -151.5 357.666666667 -146.333333333 345 -139 c 1
 359 -97 l 1
 367 -100.333333333 376.166666667 -102.666666667 386.5 -104 c 128
 396.833333333 -105.333333333 406 -106 414 -106 c 0
 430 -106 441.833333333 -100.833333333 449.5 -90.5 c 128
 457.166666667 -80.1666666667 461 -66.6666666667 461 -50 c 0
 461 -28.6666666667 457.166666667 -13.8333333333 449.5 -5.5 c 128
 441.833333333 2.83333333333 427.666666667 7 407 7 c 0
 397 7 387 2.66666666667 377 -6 c 0
 375.666666667 -7.33333333333 361.333333333 -24.6666666667 334 -58 c 0
 308 -92.6666666667 287 -116.666666667 271 -130 c 0
 242.333333333 -154 210 -166 174 -166 c 0
 118 -166 77.6666666667 -153.666666667 53 -129 c 128
 28.3333333333 -104.333333333 16 -68 16 -20 c 0
 16 15.3333333333 24.6666666667 43.3333333333 42 64 c 0
 55.3333333333 80 75.3333333333 93 102 103 c 0
 138 117 208.333333333 128 313 136 c 0
 357 139.333333333 390.333333333 146.666666667 413 158 c 0
 431.666666667 166.666666667 445.333333333 189 454 225 c 0
 460 249.666666667 463 273.666666667 463 297 c 0
 463 327 456.666666667 351.5 444 370.5 c 128
 431.333333333 389.5 411.333333333 399 384 399 c 0
 367.333333333 399 354.333333333 390.666666667 345 374 c 0
 338.333333333 362 335 349 335 335 c 2
 335 205 l 1
 249 205 l 1
 249 330 l 2
 249 346 243.333333333 360.333333333 232 373 c 0
 216 390.333333333 193.333333333 399 164 399 c 0
 143.333333333 399 124 395 106 387 c 128
 88 379 73.6666666667 368.333333333 63 355 c 1
 78.3333333333 364.333333333 95.3333333333 369 114 369 c 0
 143.333333333 369 167.333333333 358 186 336 c 128
 204.666666667 314 214 287.666666667 214 257 c 0
 214 223 204 196.333333333 184 177 c 128
 164 157.666666667 137.666666667 148 105 148 c 0
 67 148 38.6666666667 163.666666667 20 195 c 0
 4.66666666667 221 -3 256 -3 300 c 0
 -3 341.333333333 12.3333333333 376.333333333 43 405 c 0
 76.3333333333 436.333333333 121.333333333 452 178 452 c 0
 212 452 238.666666667 448 258 440 c 128
 277.333333333 432 291.666666667 421 301 407 c 1
 307.666666667 417 315.5 425.333333333 324.5 432 c 128
 333.5 438.666666667 345.333333333 443.666666667 360 447 c 1
 345.333333333 463.666666667 334.333333333 479.333333333 327 494 c 0
 317 514 312 534.666666667 312 556 c 0
 312 620.666666667 333 669.333333333 375 702 c 0
 409 728.666666667 450.333333333 742 499 742 c 0
 549.666666667 742 591.333333333 733 624 715 c 0
 668 690.333333333 690 652.333333333 690 601 c 0
613 589 m 0
 613 605.666666667 607.833333333 619.833333333 597.5 631.5 c 128
 587.166666667 643.166666667 573.666666667 649 557 649 c 1
 542.333333333 646.333333333 530.333333333 639.333333333 521 628 c 128
 511.666666667 616.666666667 507 603.333333333 507 588 c 0
 507 574 512 561.666666667 522 551 c 128
 532 540.333333333 544.333333333 535 559 535 c 0
 574.333333333 535 587.166666667 540.166666667 597.5 550.5 c 128
 607.833333333 560.833333333 613 573.666666667 613 589 c 0
133 273 m 0
 131 282.333333333 126.166666667 290 118.5 296 c 128
 110.833333333 302 102.333333333 305 93 305 c 0
 85 305 77.1666666667 302.833333333 69.5 298.5 c 128
 61.8333333333 294.166666667 55 287.666666667 49 279 c 1
 49 258.333333333 53.1666666667 241.5 61.5 228.5 c 128
 69.8333333333 215.5 81.3333333333 209 96 209 c 0
 108 209 117.5 214.166666667 124.5 224.5 c 128
 131.5 234.833333333 135 246 135 258 c 0
 135 261.333333333 134.333333333 266.333333333 133 273 c 0
EndSplineSet
EndChar

StartChar: u0B9C_u0BCD
Encoding: 80 -1 80
Width: 644
Flags: HW
AnchorPoint: "N" 283.5 -166 basechar 0
LayerCount: 2
Fore
SplineSet
350 586 m 0
 350 568 343.5 552.5 330.5 539.5 c 128
 317.5 526.5 302 520 284 520 c 256
 266 520 250.333333333 526.333333333 237 539 c 128
 223.666666667 551.666666667 217 567.333333333 217 586 c 0
 217 603.333333333 223.666666667 618.666666667 237 632 c 128
 250.333333333 645.333333333 266 652 284 652 c 0
 301.333333333 652 316.666666667 645.333333333 330 632 c 128
 343.333333333 618.666666667 350 603.333333333 350 586 c 0
548 289 m 0
 548 254.333333333 542.333333333 222.333333333 531 193 c 0
 516.333333333 155.666666667 495.666666667 129.666666667 469 115 c 0
 435 97.6666666667 380.833333333 87 306.5 83 c 128
 232.166666667 79 182.333333333 72 157 62 c 0
 143 58 131.333333333 50.3333333333 122 39 c 0
 108.666666667 23.6666666667 102 4 102 -20 c 0
 102 -49.3333333333 106.5 -71.8333333333 115.5 -87.5 c 128
 124.5 -103.166666667 140.666666667 -111 164 -111 c 0
 200.666666667 -111 231.333333333 -96.3333333333 256 -67 c 0
 272 -45 284 -28.6666666667 292 -18 c 0
 324 20.6666666667 344.333333333 42.3333333333 353 47 c 0
 372.333333333 57.6666666667 398 63 430 63 c 0
 466.666666667 63 495.333333333 54 516 36 c 128
 536.666666667 18 547 -8 547 -42 c 0
 547 -75.3333333333 537.333333333 -102.333333333 518 -123 c 0
 496 -147 464.333333333 -159 423 -159 c 0
 409 -159 395.666666667 -157.5 383 -154.5 c 128
 370.333333333 -151.5 357.666666667 -146.333333333 345 -139 c 1
 359 -97 l 1
 367 -100.333333333 376.166666667 -102.666666667 386.5 -104 c 128
 396.833333333 -105.333333333 406 -106 414 -106 c 0
 430 -106 441.833333333 -100.833333333 449.5 -90.5 c 128
 457.166666667 -80.1666666667 461 -66.6666666667 461 -50 c 0
 461 -28.6666666667 457.166666667 -13.8333333333 449.5 -5.5 c 128
 441.833333333 2.83333333333 427.666666667 7 407 7 c 0
 397 7 387 2.66666666667 377 -6 c 0
 375.666666667 -7.33333333333 361.333333333 -24.6666666667 334 -58 c 0
 308 -92.6666666667 287 -116.666666667 271 -130 c 0
 242.333333333 -154 210 -166 174 -166 c 0
 118 -166 77.6666666667 -153.666666667 53 -129 c 128
 28.3333333333 -104.333333333 16 -68 16 -20 c 0
 16 15.3333333333 24.6666666667 43.3333333333 42 64 c 0
 55.3333333333 80 75.3333333333 93 102 103 c 0
 138 117 208.333333333 128 313 136 c 0
 357 139.333333333 390.333333333 146.666666667 413 158 c 0
 431.666666667 166.666666667 445.333333333 189 454 225 c 0
 460 249.666666667 463 273.666666667 463 297 c 0
 463 327 456.666666667 351.5 444 370.5 c 128
 431.333333333 389.5 411.333333333 399 384 399 c 0
 367.333333333 399 354.333333333 390.666666667 345 374 c 0
 338.333333333 362 335 349 335 335 c 2
 335 205 l 1
 249 205 l 1
 249 330 l 2
 249 346 243.333333333 360.333333333 232 373 c 0
 216 390.333333333 193.333333333 399 164 399 c 0
 143.333333333 399 124 395 106 387 c 128
 88 379 73.6666666667 368.333333333 63 355 c 1
 78.3333333333 364.333333333 95.3333333333 369 114 369 c 0
 143.333333333 369 167.333333333 358 186 336 c 128
 204.666666667 314 214 287.666666667 214 257 c 0
 214 223 204 196.333333333 184 177 c 128
 164 157.666666667 137.666666667 148 105 148 c 0
 67 148 38.6666666667 163.666666667 20 195 c 0
 4.66666666667 221 -3 256 -3 300 c 0
 -3 341.333333333 12.3333333333 376.333333333 43 405 c 0
 76.3333333333 436.333333333 121.333333333 452 178 452 c 0
 212 452 238.666666667 448 258 440 c 128
 277.333333333 432 291.666666667 421 301 407 c 1
 309.666666667 420.333333333 320 430.666666667 332 438 c 0
 348 447.333333333 368.333333333 452 393 452 c 0
 443.666666667 452 482.166666667 437.833333333 508.5 409.5 c 128
 534.833333333 381.166666667 548 341 548 289 c 0
133 273 m 0
 131 282.333333333 126.166666667 290 118.5 296 c 128
 110.833333333 302 102.333333333 305 93 305 c 0
 85 305 77.1666666667 302.833333333 69.5 298.5 c 128
 61.8333333333 294.166666667 55 287.666666667 49 279 c 1
 49 258.333333333 53.1666666667 241.5 61.5 228.5 c 128
 69.8333333333 215.5 81.3333333333 209 96 209 c 0
 108 209 117.5 214.166666667 124.5 224.5 c 128
 131.5 234.833333333 135 246 135 258 c 0
 135 261.333333333 134.333333333 266.333333333 133 273 c 0
EndSplineSet
EndChar

StartChar: u0B9E
Encoding: 81 2974 81
Width: 872
Flags: HW
AnchorPoint: "V" 458.5 453 basechar 0
AnchorPoint: "N" 458.5 -198 basechar 0
LayerCount: 2
Fore
SplineSet
776 106 m 0
 776 16.6666666667 746.333333333 -54.3333333333 687 -107 c 0
 619 -167.666666667 518 -198 384 -198 c 0
 262.666666667 -198 167.833333333 -167 99.5 -105 c 128
 31.1666666667 -43 -3 42.3333333333 -3 151 c 0
 -3 216.333333333 6.33333333333 275.5 25 328.5 c 128
 43.6666666667 381.5 70.3333333333 423.666666667 105 455 c 1
 141 425 l 1
 109 393 85.6666666667 353.166666667 71 305.5 c 128
 56.3333333333 257.833333333 49 205.666666667 49 149 c 0
 49 60.3333333333 79.1666666667 -10.8333333333 139.5 -64.5 c 128
 199.833333333 -118.166666667 279 -145 377 -145 c 0
 481.666666667 -145 561.333333333 -118.666666667 616 -66 c 0
 662.666666667 -21.3333333333 686 35.6666666667 686 105 c 0
 686 139.666666667 677.666666667 167 661 187 c 0
 647 203.666666667 629.333333333 212 608 212 c 0
 582.666666667 212 566 204.333333333 558 189 c 1
 558 -3 l 1
 466 -3 l 1
 466 399 l 1
 339 399 l 2
 290.333333333 399 250.666666667 386 220 360 c 0
 194 338 177.333333333 310.666666667 170 278 c 1
 192.666666667 294 219.666666667 302 251 302 c 0
 291.666666667 302 324.666666667 288.333333333 350 261 c 128
 375.333333333 233.666666667 388 198.333333333 388 155 c 0
 388 107 378 68.6666666667 358 40 c 128
 338 11.3333333333 308.333333333 -3 269 -3 c 0
 219.666666667 -3 181.333333333 15.3333333333 154 52 c 128
 126.666666667 88.6666666667 113 140.666666667 113 208 c 0
 113 283.333333333 132.5 342.833333333 171.5 386.5 c 128
 210.5 430.166666667 263.333333333 452 330 452 c 2
 656 452 l 1
 656 399 l 1
 558 399 l 1
 558 256 l 1
 576 270 597.666666667 277 623 277 c 0
 671.666666667 277 710.333333333 258 739 220 c 0
 763.666666667 187.333333333 776 149.333333333 776 106 c 0
296 154 m 0
 296 174.666666667 289.5 193.666666667 276.5 211 c 128
 263.5 228.333333333 248 237 230 237 c 0
 214 237 200.166666667 232.166666667 188.5 222.5 c 128
 176.833333333 212.833333333 169.333333333 201.333333333 166 188 c 1
 166 154 172 126.333333333 184 105 c 128
 196 83.6666666667 214.333333333 73 239 73 c 0
 257 73 271 81.1666666667 281 97.5 c 128
 291 113.833333333 296 132.666666667 296 154 c 0
EndSplineSet
EndChar

StartChar: u0B9E_u0BBF
Encoding: 82 -1 82
Width: 965
Flags: HW
AnchorPoint: "V" 458.5 453 basechar 0
AnchorPoint: "N" 458.5 -198 basechar 0
LayerCount: 2
Fore
SplineSet
869 -3 m 1
 822 -3 l 1
 822 510 l 2
 822 547.333333333 813.666666667 575.666666667 797 595 c 0
 774.333333333 621.666666667 734.666666667 635 678 635 c 0
 581.333333333 635 533 591.666666667 533 505 c 0
 533 491 534.333333333 480.333333333 537 473 c 128
 539.666666667 465.666666667 543.666666667 458.666666667 549 452 c 1
 656 452 l 1
 656 399 l 1
 558 399 l 1
 558 272 l 1
 577.333333333 286 599.333333333 293 624 293 c 0
 628 293 634 292.333333333 642 291 c 0
 675.333333333 285.666666667 703 266 725 232 c 0
 749.666666667 193.333333333 762 143 762 81 c 0
 762 0.333333333333 731 -65 669 -115 c 0
 600.333333333 -170.333333333 502 -198 374 -198 c 0
 268.666666667 -198 180.333333333 -167 109 -105 c 0
 34.3333333333 -39.6666666667 -3 45.6666666667 -3 151 c 0
 -3 216.333333333 6.33333333333 275.5 25 328.5 c 128
 43.6666666667 381.5 70.3333333333 423.666666667 105 455 c 1
 141 425 l 1
 109 393 85.6666666667 353.166666667 71 305.5 c 128
 56.3333333333 257.833333333 49 205.666666667 49 149 c 0
 49 63 82.3333333333 -8.33333333333 149 -65 c 0
 212.333333333 -118.333333333 288.333333333 -145 377 -145 c 0
 478.333333333 -145 555.333333333 -120 608 -70 c 0
 653.333333333 -27.3333333333 676 26 676 90 c 0
 676 124 671 151.833333333 661 173.5 c 128
 651 195.166666667 637.666666667 211 621 221 c 0
 613 225 605.333333333 227 598 227 c 0
 582.666666667 227 569.333333333 220.666666667 558 208 c 1
 558 -3 l 1
 466 -3 l 1
 466 399 l 1
 339 399 l 2
 290.333333333 399 250.666666667 386 220 360 c 0
 194 338 177.333333333 310.666666667 170 278 c 1
 192.666666667 294 219.666666667 302 251 302 c 0
 291.666666667 302 324.666666667 288.333333333 350 261 c 128
 375.333333333 233.666666667 388 198.333333333 388 155 c 0
 388 107 378 68.6666666667 358 40 c 128
 338 11.3333333333 308.333333333 -3 269 -3 c 0
 219.666666667 -3 181.333333333 15.3333333333 154 52 c 128
 126.666666667 88.6666666667 113 140.666666667 113 208 c 0
 113 283.333333333 132.5 342.833333333 171.5 386.5 c 128
 210.5 430.166666667 263.333333333 452 330 452 c 2
 495 452 l 1
 489.666666667 465.333333333 485.166666667 479.666666667 481.5 495 c 128
 477.833333333 510.333333333 476 526.666666667 476 544 c 0
 476 600.666666667 492.833333333 644.166666667 526.5 674.5 c 128
 560.166666667 704.833333333 611 720 679 720 c 0
 759.666666667 720 814.333333333 695.666666667 843 647 c 0
 860.333333333 617 869 571.666666667 869 511 c 2
 869 -3 l 1
296 154 m 0
 296 174.666666667 289.5 193.666666667 276.5 211 c 128
 263.5 228.333333333 248 237 230 237 c 0
 214 237 200.166666667 232.166666667 188.5 222.5 c 128
 176.833333333 212.833333333 169.333333333 201.333333333 166 188 c 1
 166 154 172 126.333333333 184 105 c 128
 196 83.6666666667 214.333333333 73 239 73 c 0
 257 73 271 81.1666666667 281 97.5 c 128
 291 113.833333333 296 132.666666667 296 154 c 0
EndSplineSet
EndChar

StartChar: u0B9E_u0BC0
Encoding: 83 -1 83
Width: 872
Flags: HW
AnchorPoint: "V" 458.5 687.242 basechar 0
AnchorPoint: "N" 458.5 -198 basechar 0
LayerCount: 2
Fore
SplineSet
789 601 m 0
 789 568.333333333 778 541 756 519 c 128
 734 497 704.666666667 486 668 486 c 0
 634 486 607.166666667 496.166666667 587.5 516.5 c 128
 567.833333333 536.833333333 558 561 558 589 c 0
 558 603.666666667 560.333333333 617.666666667 565 631 c 128
 569.666666667 644.333333333 576.333333333 656 585 666 c 1
 573 667 l 2
 541 667 515.5 654.5 496.5 629.5 c 128
 477.5 604.5 468 576 468 544 c 0
 468 526 471.833333333 509.166666667 479.5 493.5 c 128
 487.166666667 477.833333333 497 464 509 452 c 1
 656 452 l 1
 656 399 l 1
 558 399 l 1
 558 256 l 1
 576 270 597.666666667 277 623 277 c 0
 671.666666667 277 710.333333333 258 739 220 c 0
 763.666666667 187.333333333 776 149.333333333 776 106 c 0
 776 16.6666666667 746.333333333 -54.3333333333 687 -107 c 0
 619 -167.666666667 518 -198 384 -198 c 0
 262.666666667 -198 167.833333333 -167 99.5 -105 c 128
 31.1666666667 -43 -3 42.3333333333 -3 151 c 0
 -3 216.333333333 6.33333333333 275.5 25 328.5 c 128
 43.6666666667 381.5 70.3333333333 423.666666667 105 455 c 1
 141 425 l 1
 109 393 85.6666666667 353.166666667 71 305.5 c 128
 56.3333333333 257.833333333 49 205.666666667 49 149 c 0
 49 60.3333333333 79.1666666667 -10.8333333333 139.5 -64.5 c 128
 199.833333333 -118.166666667 279 -145 377 -145 c 0
 481.666666667 -145 561.333333333 -118.666666667 616 -66 c 0
 662.666666667 -21.3333333333 686 35.6666666667 686 105 c 0
 686 139.666666667 677.666666667 167 661 187 c 0
 647 203.666666667 629.333333333 212 608 212 c 0
 582.666666667 212 566 204.333333333 558 189 c 1
 558 -3 l 1
 466 -3 l 1
 466 399 l 1
 339 399 l 2
 290.333333333 399 250.666666667 386 220 360 c 0
 194 338 177.333333333 310.666666667 170 278 c 1
 192.666666667 294 219.666666667 302 251 302 c 0
 291.666666667 302 324.666666667 288.333333333 350 261 c 128
 375.333333333 233.666666667 388 198.333333333 388 155 c 0
 388 107 378 68.6666666667 358 40 c 128
 338 11.3333333333 308.333333333 -3 269 -3 c 0
 219.666666667 -3 181.333333333 15.3333333333 154 52 c 128
 126.666666667 88.6666666667 113 140.666666667 113 208 c 0
 113 283.333333333 132.5 342.833333333 171.5 386.5 c 128
 210.5 430.166666667 263.333333333 452 330 452 c 2
 455 452 l 1
 442.333333333 466 432 481.833333333 424 499.5 c 128
 416 517.166666667 412 536 412 556 c 0
 412 620.666666667 433 669.333333333 475 702 c 0
 509 728.666666667 550 742 598 742 c 0
 648.666666667 742 690.333333333 733 723 715 c 0
 767 690.333333333 789 652.333333333 789 601 c 0
714 589 m 0
 714 605.666666667 708.5 619.833333333 697.5 631.5 c 128
 686.5 643.166666667 673 649 657 649 c 1
 641.666666667 645.666666667 629.666666667 638.666666667 621 628 c 128
 612.333333333 617.333333333 608 604 608 588 c 0
 608 574 612.666666667 561.666666667 622 551 c 128
 631.333333333 540.333333333 643.333333333 535 658 535 c 0
 674 535 687.333333333 540 698 550 c 128
 708.666666667 560 714 573 714 589 c 0
296 154 m 0
 296 174.666666667 289.5 193.666666667 276.5 211 c 128
 263.5 228.333333333 248 237 230 237 c 0
 214 237 200.166666667 232.166666667 188.5 222.5 c 128
 176.833333333 212.833333333 169.333333333 201.333333333 166 188 c 1
 166 154 172 126.333333333 184 105 c 128
 196 83.6666666667 214.333333333 73 239 73 c 0
 257 73 271 81.1666666667 281 97.5 c 128
 291 113.833333333 296 132.666666667 296 154 c 0
EndSplineSet
EndChar

StartChar: u0B9E_u0BC1
Encoding: 84 -1 84
Width: 1057
Flags: HW
AnchorPoint: "V" 458.5 453 basechar 0
AnchorPoint: "N" 458.5 -198 basechar 0
LayerCount: 2
Fore
SplineSet
960 -76 m 1
 728 -76 l 1
 696 -127.333333333 652.666666667 -167.666666667 598 -197 c 0
 536.666666667 -229.666666667 465.333333333 -246 384 -246 c 0
 272.666666667 -246 180.666666667 -224.666666667 108 -182 c 0
 58 -152.666666667 22.6666666667 -117.666666667 2 -77 c 0
 -1.33333333333 -71.6666666667 -3 -65.3333333333 -3 -58 c 0
 -3 -48 0.333333333333 -39.6666666667 7 -33 c 128
 13.6666666667 -26.3333333333 24 -23 38 -23 c 2
 655 -23 l 1
 675.666666667 18.3333333333 686 61 686 105 c 0
 686 139.666666667 677.666666667 167 661 187 c 0
 647 203.666666667 629.333333333 212 608 212 c 0
 582.666666667 212 566 204.333333333 558 189 c 1
 558 -3 l 1
 466 -3 l 1
 466 399 l 1
 339 399 l 2
 290.333333333 399 250.666666667 386 220 360 c 0
 194 338 177.333333333 310.666666667 170 278 c 1
 192.666666667 294 219.666666667 302 251 302 c 0
 291.666666667 302 324.666666667 288.333333333 350 261 c 128
 375.333333333 233.666666667 388 198.333333333 388 155 c 0
 388 107 378 68.6666666667 358 40 c 128
 338 11.3333333333 308.333333333 -3 269 -3 c 0
 219.666666667 -3 181.333333333 15.3333333333 154 52 c 128
 126.666666667 88.6666666667 113 140.666666667 113 208 c 0
 113 283.333333333 132.5 342.833333333 171.5 386.5 c 128
 210.5 430.166666667 263.333333333 452 330 452 c 2
 656 452 l 1
 656 399 l 1
 558 399 l 1
 558 256 l 1
 576 270 597.666666667 277 623 277 c 0
 671.666666667 277 710.333333333 258 739 220 c 0
 763.666666667 187.333333333 776 149.333333333 776 106 c 0
 776 58.6666666667 768.333333333 15.6666666667 753 -23 c 1
 870 -23 l 1
 870 452 l 1
 960 452 l 1
 960 -76 l 1
296 154 m 0
 296 174.666666667 289.5 193.666666667 276.5 211 c 128
 263.5 228.333333333 248 237 230 237 c 0
 214 237 200.166666667 232.166666667 188.5 222.5 c 128
 176.833333333 212.833333333 169.333333333 201.333333333 166 188 c 1
 166 154 172 126.333333333 184 105 c 128
 196 83.6666666667 214.333333333 73 239 73 c 0
 257 73 271 81.1666666667 281 97.5 c 128
 291 113.833333333 296 132.666666667 296 154 c 0
625 -76 m 1
 73 -76 l 2
 67.6666666667 -76 64.3333333333 -76.6666666667 63 -78 c 128
 61.6666666667 -79.3333333333 61.6666666667 -81 63 -83 c 0
 79.6666666667 -107 110.333333333 -129.333333333 155 -150 c 0
 218.333333333 -179.333333333 292.333333333 -194 377 -194 c 0
 431.666666667 -194 479.666666667 -183.5 521 -162.5 c 128
 562.333333333 -141.5 597 -112.666666667 625 -76 c 1
EndSplineSet
EndChar

StartChar: u0B9E_u0BC2
Encoding: 85 -1 85
Width: 1300
Flags: HW
AnchorPoint: "V" 458.5 453 basechar 0
AnchorPoint: "N" 458.5 -198 basechar 0
LayerCount: 2
Fore
SplineSet
1204 399 m 1
 1106 399 l 1
 1106 -76 l 1
 1016 -76 l 1
 1016 399 l 1
 921 399 l 1
 921 -76 l 1
 727 -76 l 1
 695.666666667 -127.333333333 652.666666667 -167.666666667 598 -197 c 0
 536.666666667 -229.666666667 465.333333333 -246 384 -246 c 0
 272.666666667 -246 180.666666667 -224.666666667 108 -182 c 0
 58 -152.666666667 22.6666666667 -117.666666667 2 -77 c 0
 -1.33333333333 -71.6666666667 -3 -65.3333333333 -3 -58 c 0
 -3 -48 0.333333333333 -39.6666666667 7 -33 c 128
 13.6666666667 -26.3333333333 24 -23 38 -23 c 2
 655 -23 l 1
 675.666666667 18.3333333333 686 61 686 105 c 0
 686 139.666666667 677.666666667 167 661 187 c 0
 647 203.666666667 629.333333333 212 608 212 c 0
 582.666666667 212 566 204.333333333 558 189 c 1
 558 -3 l 1
 466 -3 l 1
 466 399 l 1
 339 399 l 2
 290.333333333 399 250.666666667 386 220 360 c 0
 194 338 177.333333333 310.666666667 170 278 c 1
 192.666666667 294 219.666666667 302 251 302 c 0
 291.666666667 302 324.666666667 288.333333333 350 261 c 128
 375.333333333 233.666666667 388 198.333333333 388 155 c 0
 388 107 378 68.6666666667 358 40 c 128
 338 11.3333333333 308.333333333 -3 269 -3 c 0
 219.666666667 -3 181.333333333 15.3333333333 154 52 c 128
 126.666666667 88.6666666667 113 140.666666667 113 208 c 0
 113 283.333333333 132.5 342.833333333 171.5 386.5 c 128
 210.5 430.166666667 263.333333333 452 330 452 c 2
 656 452 l 1
 656 399 l 1
 558 399 l 1
 558 256 l 1
 576 270 597.666666667 277 623 277 c 0
 671.666666667 277 710.333333333 258 739 220 c 0
 763.666666667 187.333333333 776 149.333333333 776 106 c 0
 776 82.6666666667 774.166666667 60.1666666667 770.5 38.5 c 128
 766.833333333 16.8333333333 761.333333333 -3.66666666667 754 -23 c 1
 870 -23 l 1
 870 452 l 1
 1204 452 l 1
 1204 399 l 1
296 154 m 0
 296 174.666666667 289.5 193.666666667 276.5 211 c 128
 263.5 228.333333333 248 237 230 237 c 0
 214 237 200.166666667 232.166666667 188.5 222.5 c 128
 176.833333333 212.833333333 169.333333333 201.333333333 166 188 c 1
 166 154 172 126.333333333 184 105 c 128
 196 83.6666666667 214.333333333 73 239 73 c 0
 257 73 271 81.1666666667 281 97.5 c 128
 291 113.833333333 296 132.666666667 296 154 c 0
625 -76 m 1
 68 -76 l 2
 63.3333333333 -76 60.1666666667 -76.6666666667 58.5 -78 c 128
 56.8333333333 -79.3333333333 56.6666666667 -81 58 -83 c 0
 82.6666666667 -117 128.666666667 -145 196 -167 c 0
 251.333333333 -185 311.666666667 -194 377 -194 c 0
 433 -194 482.333333333 -183 525 -161 c 0
 563.666666667 -141.666666667 597 -113.333333333 625 -76 c 1
EndSplineSet
EndChar

StartChar: u0B9E_u0BCD
Encoding: 86 -1 86
Width: 872
Flags: HW
AnchorPoint: "N" 458.5 -198 basechar 0
LayerCount: 2
Fore
SplineSet
525 586 m 256
 525 568.666666667 518.333333333 553.333333333 505 540 c 128
 491.666666667 526.666666667 476 520 458 520 c 256
 440 520 424.5 526.5 411.5 539.5 c 128
 398.5 552.5 392 568 392 586 c 256
 392 604 398.5 619.5 411.5 632.5 c 128
 424.5 645.5 440 652 458 652 c 256
 476 652 491.666666667 645.333333333 505 632 c 128
 518.333333333 618.666666667 525 603.333333333 525 586 c 256
776 106 m 0
 776 16.6666666667 746.333333333 -54.3333333333 687 -107 c 0
 619 -167.666666667 518 -198 384 -198 c 0
 262.666666667 -198 167.833333333 -167 99.5 -105 c 128
 31.1666666667 -43 -3 42.3333333333 -3 151 c 0
 -3 216.333333333 6.33333333333 275.5 25 328.5 c 128
 43.6666666667 381.5 70.3333333333 423.666666667 105 455 c 1
 141 425 l 1
 109 393 85.6666666667 353.166666667 71 305.5 c 128
 56.3333333333 257.833333333 49 205.666666667 49 149 c 0
 49 60.3333333333 79.1666666667 -10.8333333333 139.5 -64.5 c 128
 199.833333333 -118.166666667 279 -145 377 -145 c 0
 481.666666667 -145 561.333333333 -118.666666667 616 -66 c 0
 662.666666667 -21.3333333333 686 35.6666666667 686 105 c 0
 686 139.666666667 677.666666667 167 661 187 c 0
 647 203.666666667 629.333333333 212 608 212 c 0
 582.666666667 212 566 204.333333333 558 189 c 1
 558 -3 l 1
 466 -3 l 1
 466 399 l 1
 339 399 l 2
 290.333333333 399 250.666666667 386 220 360 c 0
 194 338 177.333333333 310.666666667 170 278 c 1
 192.666666667 294 219.666666667 302 251 302 c 0
 291.666666667 302 324.666666667 288.333333333 350 261 c 128
 375.333333333 233.666666667 388 198.333333333 388 155 c 0
 388 107 378 68.6666666667 358 40 c 128
 338 11.3333333333 308.333333333 -3 269 -3 c 0
 219.666666667 -3 181.333333333 15.3333333333 154 52 c 128
 126.666666667 88.6666666667 113 140.666666667 113 208 c 0
 113 283.333333333 132.5 342.833333333 171.5 386.5 c 128
 210.5 430.166666667 263.333333333 452 330 452 c 2
 656 452 l 1
 656 399 l 1
 558 399 l 1
 558 256 l 1
 576 270 597.666666667 277 623 277 c 0
 671.666666667 277 710.333333333 258 739 220 c 0
 763.666666667 187.333333333 776 149.333333333 776 106 c 0
296 154 m 0
 296 174.666666667 289.5 193.666666667 276.5 211 c 128
 263.5 228.333333333 248 237 230 237 c 0
 214 237 200.166666667 232.166666667 188.5 222.5 c 128
 176.833333333 212.833333333 169.333333333 201.333333333 166 188 c 1
 166 154 172 126.333333333 184 105 c 128
 196 83.6666666667 214.333333333 73 239 73 c 0
 257 73 271 81.1666666667 281 97.5 c 128
 291 113.833333333 296 132.666666667 296 154 c 0
EndSplineSet
EndChar

StartChar: u0B9F
Encoding: 87 2975 87
Width: 713
Flags: HW
AnchorPoint: "V" 274 453 basechar 0
AnchorPoint: "N" 274 -3 basechar 0
LayerCount: 2
Fore
SplineSet
617 -3 m 1
 -3 -3 l 1
 -3 452 l 1
 83 452 l 1
 83 49 l 1
 617 49 l 1
 617 -3 l 1
EndSplineSet
EndChar

StartChar: u0B9F_u0BBF
Encoding: 88 -1 88
Width: 636
Flags: HW
AnchorPoint: "V" 274 453 basechar 0
AnchorPoint: "N" 274 -3 basechar 0
LayerCount: 2
Fore
SplineSet
540 -3 m 1
 442 -3 l 1
 442 -212 l 1
 355 -212 l 1
 355 -3 l 1
 -3 -3 l 1
 -3 452 l 1
 83 452 l 1
 83 44 l 1
 276 44 l 1
 262 58 249.333333333 72.6666666667 238 88 c 0
 224.666666667 106.666666667 212.333333333 128.666666667 201 154 c 0
 193 172 186.5 191.5 181.5 212.5 c 128
 176.5 233.5 174 255.666666667 174 279 c 0
 174 303.666666667 177.166666667 326.333333333 183.5 347 c 128
 189.833333333 367.666666667 201 386.666666667 217 404 c 0
 229.666666667 418 246.166666667 429.5 266.5 438.5 c 128
 286.833333333 447.5 308 452 330 452 c 0
 365.333333333 452 393.333333333 440 414 416 c 0
 432.666666667 394 442 366.666666667 442 334 c 2
 442 44 l 1
 540 44 l 1
 540 -3 l 1
355 50 m 1
 355 339 l 2
 355 351 351.166666667 360.5 343.5 367.5 c 128
 335.833333333 374.5 327.666666667 378 319 378 c 0
 294.333333333 378 274.666666667 368 260 348 c 0
 242 326.666666667 233 296 233 256 c 0
 233 221.333333333 240.333333333 190.5 255 163.5 c 128
 269.666666667 136.5 285.166666667 113.5 301.5 94.5 c 128
 317.833333333 75.5 335.666666667 60.6666666667 355 50 c 1
EndSplineSet
EndChar

StartChar: u0B9F_u0BC0
Encoding: 89 -1 89
Width: 597
Flags: HW
AnchorPoint: "V" 274 453 basechar 0
AnchorPoint: "N" 274 -3 basechar 0
LayerCount: 2
Fore
SplineSet
502 199 m 0
 502 166.333333333 491.166666667 139.166666667 469.5 117.5 c 128
 447.833333333 95.8333333333 418.666666667 85 382 85 c 0
 346.666666667 85 319.333333333 95 300 115 c 128
 280.666666667 135 271 159.333333333 271 188 c 0
 271 218 280 244 298 266 c 1
 285 266 l 2
 253 266 227.666666667 253.5 209 228.5 c 128
 190.333333333 203.5 181 175 181 143 c 0
 181 122.333333333 185.333333333 103.5 194 86.5 c 128
 202.666666667 69.5 214.333333333 55.3333333333 229 44 c 1
 500 44 l 1
 500 -3 l 1
 -3 -3 l 1
 -3 452 l 1
 83 452 l 1
 83 44 l 1
 173 44 l 1
 159 58.6666666667 148 74.6666666667 140 92 c 0
 130 112.666666667 125 133.333333333 125 154 c 0
 125 218.666666667 146 267.666666667 188 301 c 0
 222 327.666666667 263.333333333 341 312 341 c 0
 362.666666667 341 404 332 436 314 c 0
 480 289.333333333 502 251 502 199 c 0
426 188 m 0
 426 205.333333333 420.833333333 219.5 410.5 230.5 c 128
 400.166666667 241.5 386.333333333 247 369 247 c 1
 354.333333333 244.333333333 342.666666667 237.666666667 334 227 c 128
 325.333333333 216.333333333 321 203.333333333 321 188 c 0
 321 173.333333333 325.666666667 160.666666667 335 150 c 128
 344.333333333 139.333333333 356.666666667 134 372 134 c 256
 387.333333333 134 400.166666667 139.166666667 410.5 149.5 c 128
 420.833333333 159.833333333 426 172.666666667 426 188 c 0
EndSplineSet
EndChar

StartChar: u0B9F_u0BC1
Encoding: 90 -1 90
Width: 739
Flags: HW
AnchorPoint: "V" 274 651.644 basechar 0
AnchorPoint: "N" 274 -3 basechar 0
LayerCount: 2
Fore
SplineSet
617 -2 m 1
 569 -2 l 1
 576.333333333 26 582 58 586 94 c 128
 590 130 592 166.666666667 592 204 c 0
 592 243.333333333 589.666666667 281.166666667 585 317.5 c 128
 580.333333333 353.833333333 573 384 563 408 c 0
 541 462 509.666666667 500.666666667 469 524 c 128
 428.333333333 547.333333333 376.333333333 559 313 559 c 0
 229 559 164 528.166666667 118 466.5 c 128
 72 404.833333333 49 323 49 221 c 0
 49 118.333333333 64.6666666667 38 96 -20 c 0
 132.666666667 -88 189.666666667 -122 267 -122 c 0
 323 -122 367 -97.6666666667 399 -49 c 0
 427 -6.33333333333 441 45 441 105 c 0
 441 129.666666667 435.333333333 152 424 172 c 0
 408.666666667 198.666666667 387 212 359 212 c 0
 344.333333333 212 332.666666667 210.333333333 324 207 c 128
 315.333333333 203.666666667 309 197.666666667 305 189 c 1
 305 -3 l 1
 214 -3 l 1
 214 452 l 1
 305 452 l 1
 305 257 l 1
 314.333333333 263.666666667 324.833333333 268.666666667 336.5 272 c 128
 348.166666667 275.333333333 360.666666667 277 374 277 c 0
 423.333333333 277 463 258.333333333 493 221 c 0
 519 188.333333333 532 150.666666667 532 108 c 0
 532 16 509.666666667 -54 465 -102 c 128
 420.333333333 -150 357 -174 275 -174 c 0
 178.333333333 -174 106.666666667 -135.666666667 60 -59 c 0
 18 9.66666666667 -3 106 -3 230 c 0
 -3 357.333333333 22.3333333333 458 73 532 c 0
 129 613.333333333 210.333333333 654 317 654 c 0
 391.666666667 654 454.833333333 637 506.5 603 c 128
 558.166666667 569 594.333333333 522.666666667 615 464 c 0
 624.333333333 439.333333333 631.333333333 407.166666667 636 367.5 c 128
 640.666666667 327.833333333 643 287.333333333 643 246 c 0
 643 201.333333333 640.666666667 156.833333333 636 112.5 c 128
 631.333333333 68.1666666667 625 30 617 -2 c 1
EndSplineSet
EndChar

StartChar: u0B9F_u0BC2
Encoding: 91 -1 91
Width: 759
Flags: HW
AnchorPoint: "V" 274 648.084 basechar 0
AnchorPoint: "N" 274 -3 basechar 0
LayerCount: 2
Fore
SplineSet
662 373 m 0
 662 338.333333333 653 310 635 288 c 0
 614.333333333 262.666666667 584.666666667 250 546 250 c 0
 504.666666667 250 473.166666667 260.166666667 451.5 280.5 c 128
 429.833333333 300.833333333 419 327.333333333 419 360 c 0
 419 391.333333333 428.333333333 417 447 437 c 0
 469 460.333333333 500.333333333 472 541 472 c 1
 520.333333333 502.666666667 490 527.666666667 450 547 c 128
 410 566.333333333 366 576 318 576 c 0
 230 576 162.333333333 541.666666667 115 473 c 0
 71 409.666666667 49 325.333333333 49 220 c 0
 49 117.333333333 64.6666666667 37 96 -21 c 0
 132.666666667 -89 189.666666667 -123 267 -123 c 0
 323.666666667 -123 368 -98.6666666667 400 -50 c 0
 428 -7.33333333333 442 44.3333333333 442 105 c 0
 442 130.333333333 436.333333333 152.666666667 425 172 c 0
 409.666666667 198.666666667 387.666666667 212 359 212 c 0
 346.333333333 212 335.333333333 210.166666667 326 206.5 c 128
 316.666666667 202.833333333 309.666666667 196.666666667 305 188 c 1
 305 -3 l 1
 215 -3 l 1
 215 452 l 1
 305 452 l 1
 305 256 l 1
 314.333333333 262 325 266.833333333 337 270.5 c 128
 349 274.166666667 361.333333333 276 374 276 c 0
 424 276 463.666666667 257.333333333 493 220 c 0
 519 186.666666667 532 148.666666667 532 106 c 0
 532 14 509.666666667 -56 465 -104 c 128
 420.333333333 -152 357 -176 275 -176 c 0
 179 -176 107.333333333 -137.333333333 60 -60 c 0
 18 9.33333333333 -3 105.666666667 -3 229 c 0
 -3 360.333333333 24.6666666667 462.666666667 80 536 c 0
 138 613.333333333 222 652 332 652 c 0
 432 652 513 623.333333333 575 566 c 0
 633 512.666666667 662 448.333333333 662 373 c 0
571 339 m 0
 575 349 577 358.333333333 577 367 c 0
 577 383.666666667 570.666666667 398.333333333 558 411 c 1
 546.666666667 414.333333333 537 416 529 416 c 0
 505 416 487.666666667 405 477 383 c 0
 473 375.666666667 471 368 471 360 c 0
 471 338 480.333333333 323 499 315 c 0
 505 312.333333333 512.666666667 311 522 311 c 0
 547.333333333 311 563.666666667 320.333333333 571 339 c 0
EndSplineSet
EndChar

StartChar: u0B9F_u0BCD
Encoding: 92 -1 92
Width: 713
Flags: HW
AnchorPoint: "N" 274 -3 basechar 0
LayerCount: 2
Fore
SplineSet
340 586 m 0
 340 568 333.5 552.5 320.5 539.5 c 128
 307.5 526.5 292 520 274 520 c 256
 256 520 240.5 526.5 227.5 539.5 c 128
 214.5 552.5 208 568 208 586 c 256
 208 604 214.5 619.5 227.5 632.5 c 128
 240.5 645.5 256 652 274 652 c 0
 291.333333333 652 306.666666667 645.333333333 320 632 c 128
 333.333333333 618.666666667 340 603.333333333 340 586 c 0
617 -3 m 1
 -3 -3 l 1
 -3 452 l 1
 83 452 l 1
 83 49 l 1
 617 49 l 1
 617 -3 l 1
EndSplineSet
EndChar

StartChar: u0BA3
Encoding: 93 2979 93
Width: 1276
Flags: HW
AnchorPoint: "V" 627.5 453 basechar 0
AnchorPoint: "N" 627.5 -3 basechar 0
LayerCount: 2
Fore
SplineSet
1179 399 m 1
 1082 399 l 1
 1082 -3 l 1
 991 -3 l 1
 991 399 l 1
 920 399 l 2
 886.666666667 399 856 393.666666667 828 383 c 1
 858 359.666666667 880 332.666666667 894 302 c 128
 908 271.333333333 915 238.333333333 915 203 c 0
 915 131 904.5 78.6666666667 883.5 46 c 128
 862.5 13.3333333333 827.666666667 -3 779 -3 c 0
 731.666666667 -3 697 13.6666666667 675 47 c 128
 653 80.3333333333 642 128.333333333 642 191 c 0
 642 227.666666667 648.333333333 262.166666667 661 294.5 c 128
 673.666666667 326.833333333 691.666666667 354.666666667 715 378 c 1
 699.666666667 384.666666667 682.166666667 389.833333333 662.5 393.5 c 128
 642.833333333 397.166666667 622.333333333 399 601 399 c 0
 565.666666667 399 535.333333333 393.666666667 510 383 c 1
 538 361 559.166666667 333.833333333 573.5 301.5 c 128
 587.833333333 269.166666667 595 236.333333333 595 203 c 0
 595 131 584.5 78.6666666667 563.5 46 c 128
 542.5 13.3333333333 507.666666667 -3 459 -3 c 0
 412.333333333 -3 377.666666667 14 355 48 c 128
 332.333333333 82 321 129.666666667 321 191 c 0
 321 229 327.166666667 263.5 339.5 294.5 c 128
 351.833333333 325.5 370 353.333333333 394 378 c 1
 362 392 324 399 280 399 c 0
 229.333333333 399 182.666666667 386.666666667 140 362 c 0
 100.666666667 339.333333333 73.6666666667 312.666666667 59 282 c 1
 81 295.333333333 106 302 134 302 c 0
 174.666666667 302 207.666666667 288.333333333 233 261 c 128
 258.333333333 233.666666667 271 198.333333333 271 155 c 0
 271 105.666666667 261.333333333 67.6666666667 242 41 c 0
 220.666666667 11.6666666667 187.666666667 -3 143 -3 c 0
 101 -3 66.6666666667 15.3333333333 40 52 c 0
 11.3333333333 90.6666666667 -3 142.666666667 -3 208 c 0
 -3 282.666666667 25 342.666666667 81 388 c 0
 133.666666667 430.666666667 197.666666667 452 273 452 c 0
 341 452 400.666666667 441 452 419 c 1
 492.666666667 441 539.666666667 452 593 452 c 0
 663 452 722.666666667 440.666666667 772 418 c 1
 810.666666667 440.666666667 857.666666667 452 913 452 c 2
 1179 452 l 1
 1179 399 l 1
825 203 m 0
 825 229.666666667 820 255.166666667 810 279.5 c 128
 800 303.833333333 784.666666667 325.333333333 764 344 c 1
 718 305.333333333 695 254.333333333 695 191 c 0
 695 147.666666667 700.5 113.166666667 711.5 87.5 c 128
 722.5 61.8333333333 738.666666667 49 760 49 c 0
 784.666666667 49 801.666666667 61.5 811 86.5 c 128
 820.333333333 111.5 825 150.333333333 825 203 c 0
505 203 m 0
 505 229.666666667 500 255 490 279 c 128
 480 303 464.333333333 324.666666667 443 344 c 1
 397 306 374 255 374 191 c 0
 374 147.666666667 379.5 113.166666667 390.5 87.5 c 128
 401.5 61.8333333333 417.666666667 49 439 49 c 0
 464.333333333 49 481.666666667 61.5 491 86.5 c 128
 500.333333333 111.5 505 150.333333333 505 203 c 0
180 154 m 0
 180 174 173.166666667 192.833333333 159.5 210.5 c 128
 145.833333333 228.166666667 130.666666667 237 114 237 c 256
 97.3333333333 237 83.3333333333 232.333333333 72 223 c 128
 60.6666666667 213.666666667 53 202 49 188 c 1
 49 154 55 126.333333333 67 105 c 128
 79 83.6666666667 97.6666666667 73 123 73 c 0
 141.666666667 73 156.333333333 81.6666666667 167 99 c 0
 175.666666667 113.666666667 180 132 180 154 c 0
EndSplineSet
EndChar

StartChar: u0BA3_u0BBE.old
Encoding: 95 -1 95
Width: 1378
Flags: HW
AnchorPoint: "V" 627.5 453 basechar 0
AnchorPoint: "N" 627.5 -3 basechar 0
LayerCount: 2
Fore
SplineSet
1282 189 m 0
 1282 56.3333333333 1228 -48.6666666667 1120 -126 c 0
 1008.66666667 -206 852.333333333 -246 651 -246 c 0
 538.333333333 -246 437 -234.333333333 347 -211 c 0
 240.333333333 -183 157.666666667 -141.333333333 99 -86 c 0
 31 -21.3333333333 -3 61 -3 161 c 0
 -3 224.333333333 6.33333333333 281.333333333 25 332 c 128
 43.6666666667 382.666666667 70.3333333333 423.666666667 105 455 c 1
 141 425 l 1
 109 393 85.6666666667 354.666666667 71 310 c 128
 56.3333333333 265.333333333 49 215 49 159 c 0
 49 71 82.3333333333 -1.66666666667 149 -59 c 0
 204.333333333 -106.333333333 281.666666667 -141.666666667 381 -165 c 0
 463.666666667 -184.333333333 552.333333333 -194 647 -194 c 0
 811 -194 942.5 -157.333333333 1041.5 -84 c 128
 1140.5 -10.6666666667 1190 84 1190 200 c 0
 1190 256 1174.5 303.166666667 1143.5 341.5 c 128
 1112.5 379.833333333 1072.33333333 399 1023 399 c 0
 994.333333333 399 968 393.666666667 944 383 c 1
 972.666666667 361 994.333333333 334 1009 302 c 128
 1023.66666667 270 1031 237 1031 203 c 0
 1031 131.666666667 1020.5 79.5 999.5 46.5 c 128
 978.5 13.5 944 -3 896 -3 c 0
 848.666666667 -3 814 13.6666666667 792 47 c 128
 770 80.3333333333 759 128.333333333 759 191 c 0
 759 229.666666667 765.166666667 264.333333333 777.5 295 c 128
 789.833333333 325.666666667 808 353 832 377 c 1
 799.333333333 391.666666667 761 399 717 399 c 0
 683 399 652.333333333 393.666666667 625 383 c 1
 654.333333333 360.333333333 676 333.333333333 690 302 c 128
 704 270.666666667 711 237.666666667 711 203 c 0
 711 131.666666667 700.5 79.5 679.5 46.5 c 128
 658.5 13.5 624 -3 576 -3 c 0
 528.666666667 -3 493.833333333 13.6666666667 471.5 47 c 128
 449.166666667 80.3333333333 438 128.333333333 438 191 c 0
 438 229 444 263.5 456 294.5 c 128
 468 325.5 486 353.333333333 510 378 c 1
 478 392 440.333333333 399 397 399 c 0
 345.666666667 399 298.666666667 386.666666667 256 362 c 0
 218 340 191.333333333 313.333333333 176 282 c 1
 198 295.333333333 223 302 251 302 c 0
 291.666666667 302 324.666666667 288.333333333 350 261 c 128
 375.333333333 233.666666667 388 198.333333333 388 155 c 0
 388 106.333333333 377.666666667 67.8333333333 357 39.5 c 128
 336.333333333 11.1666666667 303.666666667 -3 259 -3 c 0
 217 -3 182.666666667 15.3333333333 156 52 c 0
 127.333333333 90.6666666667 113 142.666666667 113 208 c 0
 113 282.666666667 140.666666667 342.666666667 196 388 c 0
 248 430.666666667 312.333333333 452 389 452 c 0
 458.333333333 452 518 441 568 419 c 1
 588 429.666666667 609.833333333 437.833333333 633.5 443.5 c 128
 657.166666667 449.166666667 682.333333333 452 709 452 c 0
 745.666666667 452 778 449.166666667 806 443.5 c 128
 834 437.833333333 860.666666667 429.333333333 886 418 c 1
 925.333333333 440.666666667 970 452 1020 452 c 0
 1101.33333333 452 1166 425.666666667 1214 373 c 0
 1259.33333333 323.666666667 1282 262.333333333 1282 189 c 0
942 203 m 0
 942 229.666666667 937.166666667 254.833333333 927.5 278.5 c 128
 917.833333333 302.166666667 902 324 880 344 c 1
 858 325.333333333 840.833333333 303 828.5 277 c 128
 816.166666667 251 810 222.333333333 810 191 c 0
 810 148.333333333 815.833333333 114 827.5 88 c 128
 839.166666667 62 855.333333333 49 876 49 c 0
 901.333333333 49 918.666666667 61.5 928 86.5 c 128
 937.333333333 111.5 942 150.333333333 942 203 c 0
621 203 m 0
 621 229.666666667 616 255.166666667 606 279.5 c 128
 596 303.833333333 580.333333333 325.333333333 559 344 c 1
 513.666666667 306 491 255 491 191 c 0
 491 147.666666667 496.5 113.166666667 507.5 87.5 c 128
 518.5 61.8333333333 534.666666667 49 556 49 c 0
 581.333333333 49 599 62.3333333333 609 89 c 0
 617 111 621 149 621 203 c 0
296 154 m 0
 296 174.666666667 289.5 193.666666667 276.5 211 c 128
 263.5 228.333333333 248 237 230 237 c 0
 214 237 200.166666667 232.166666667 188.5 222.5 c 128
 176.833333333 212.833333333 169.333333333 201.333333333 166 188 c 1
 166 154 172 126.333333333 184 105 c 128
 196 83.6666666667 214.333333333 73 239 73 c 0
 257 73 271 81.1666666667 281 97.5 c 128
 291 113.833333333 296 132.666666667 296 154 c 0
EndSplineSet
EndChar

StartChar: u0BA3_u0BBF
Encoding: 96 -1 96
Width: 1383
Flags: HW
AnchorPoint: "V" 627.5 453 basechar 0
AnchorPoint: "N" 627.5 -3 basechar 0
LayerCount: 2
Fore
SplineSet
1287 -3 m 1
 1238 -3 l 1
 1238 496 l 2
 1238 538 1232 568 1220 586 c 0
 1205.33333333 607.333333333 1180 618 1144 618 c 0
 1117.33333333 618 1095.5 609.166666667 1078.5 591.5 c 128
 1061.5 573.833333333 1053 549.666666667 1053 519 c 0
 1053 505 1054.66666667 492.5 1058 481.5 c 128
 1061.33333333 470.5 1066 460.666666667 1072 452 c 1
 1179 452 l 1
 1179 399 l 1
 1082 399 l 1
 1082 -3 l 1
 991 -3 l 1
 991 399 l 1
 920 399 l 2
 886.666666667 399 856 393.666666667 828 383 c 1
 858 359.666666667 880 332.666666667 894 302 c 128
 908 271.333333333 915 238.333333333 915 203 c 0
 915 131 904.5 78.6666666667 883.5 46 c 128
 862.5 13.3333333333 827.666666667 -3 779 -3 c 0
 731.666666667 -3 697 13.6666666667 675 47 c 128
 653 80.3333333333 642 128.333333333 642 191 c 0
 642 227.666666667 648.333333333 262.166666667 661 294.5 c 128
 673.666666667 326.833333333 691.666666667 354.666666667 715 378 c 1
 699.666666667 384.666666667 682.166666667 389.833333333 662.5 393.5 c 128
 642.833333333 397.166666667 622.333333333 399 601 399 c 0
 565.666666667 399 535.333333333 393.666666667 510 383 c 1
 538 361 559.166666667 333.833333333 573.5 301.5 c 128
 587.833333333 269.166666667 595 236.333333333 595 203 c 0
 595 131 584.5 78.6666666667 563.5 46 c 128
 542.5 13.3333333333 507.666666667 -3 459 -3 c 0
 412.333333333 -3 377.666666667 14 355 48 c 128
 332.333333333 82 321 129.666666667 321 191 c 0
 321 229 327.166666667 263.5 339.5 294.5 c 128
 351.833333333 325.5 370 353.333333333 394 378 c 1
 362 392 324 399 280 399 c 0
 229.333333333 399 182.666666667 386.666666667 140 362 c 0
 100.666666667 339.333333333 73.6666666667 312.666666667 59 282 c 1
 81 295.333333333 106 302 134 302 c 0
 174.666666667 302 207.666666667 288.333333333 233 261 c 128
 258.333333333 233.666666667 271 198.333333333 271 155 c 0
 271 105.666666667 261.333333333 67.6666666667 242 41 c 0
 220.666666667 11.6666666667 187.666666667 -3 143 -3 c 0
 101 -3 66.6666666667 15.3333333333 40 52 c 0
 11.3333333333 90.6666666667 -3 142.666666667 -3 208 c 0
 -3 282.666666667 25 342.666666667 81 388 c 0
 133.666666667 430.666666667 197.666666667 452 273 452 c 0
 341 452 400.666666667 441 452 419 c 1
 492.666666667 441 539.666666667 452 593 452 c 0
 663 452 722.666666667 440.666666667 772 418 c 1
 810.666666667 440.666666667 857.666666667 452 913 452 c 2
 1019 452 l 1
 1007 478 1001 503.666666667 1001 529 c 0
 1001 583.666666667 1013.5 626.5 1038.5 657.5 c 128
 1063.5 688.5 1099 704 1145 704 c 0
 1196.33333333 704 1233.33333333 686.333333333 1256 651 c 0
 1276.66666667 619 1287 571 1287 507 c 2
 1287 -3 l 1
825 203 m 0
 825 229.666666667 820 255.166666667 810 279.5 c 128
 800 303.833333333 784.666666667 325.333333333 764 344 c 1
 718 305.333333333 695 254.333333333 695 191 c 0
 695 147.666666667 700.5 113.166666667 711.5 87.5 c 128
 722.5 61.8333333333 738.666666667 49 760 49 c 0
 784.666666667 49 801.666666667 61.5 811 86.5 c 128
 820.333333333 111.5 825 150.333333333 825 203 c 0
505 203 m 0
 505 229.666666667 500 255 490 279 c 128
 480 303 464.333333333 324.666666667 443 344 c 1
 397 306 374 255 374 191 c 0
 374 147.666666667 379.5 113.166666667 390.5 87.5 c 128
 401.5 61.8333333333 417.666666667 49 439 49 c 0
 464.333333333 49 481.666666667 61.5 491 86.5 c 128
 500.333333333 111.5 505 150.333333333 505 203 c 0
180 154 m 0
 180 174 173.166666667 192.833333333 159.5 210.5 c 128
 145.833333333 228.166666667 130.666666667 237 114 237 c 256
 97.3333333333 237 83.3333333333 232.333333333 72 223 c 128
 60.6666666667 213.666666667 53 202 49 188 c 1
 49 154 55 126.333333333 67 105 c 128
 79 83.6666666667 97.6666666667 73 123 73 c 0
 141.666666667 73 156.333333333 81.6666666667 167 99 c 0
 175.666666667 113.666666667 180 132 180 154 c 0
EndSplineSet
EndChar

StartChar: u0BA3_u0BC0
Encoding: 97 -1 97
Width: 1300
Flags: HW
AnchorPoint: "V" 627.5 453 basechar 0
AnchorPoint: "N" 627.5 -3 basechar 0
LayerCount: 2
Fore
SplineSet
1313 601 m 0
 1313 568.333333333 1302 541 1280 519 c 128
 1258 497 1228.66666667 486 1192 486 c 0
 1157.33333333 486 1130.16666667 496.166666667 1110.5 516.5 c 128
 1090.83333333 536.833333333 1081 561 1081 589 c 0
 1081 603.666666667 1083.33333333 617.833333333 1088 631.5 c 128
 1092.66666667 645.166666667 1099.66666667 656.666666667 1109 666 c 1
 1096 667 l 2
 1064 667 1038.83333333 654.666666667 1020.5 630 c 128
 1002.16666667 605.333333333 993 576.666666667 993 544 c 0
 993 525.333333333 996.5 508.333333333 1003.5 493 c 128
 1010.5 477.666666667 1020.33333333 464 1033 452 c 1
 1179 452 l 1
 1179 399 l 1
 1082 399 l 1
 1082 -3 l 1
 991 -3 l 1
 991 399 l 1
 920 399 l 2
 886.666666667 399 856 393.666666667 828 383 c 1
 858 359.666666667 880 332.666666667 894 302 c 128
 908 271.333333333 915 238.333333333 915 203 c 0
 915 131 904.5 78.6666666667 883.5 46 c 128
 862.5 13.3333333333 827.666666667 -3 779 -3 c 0
 731.666666667 -3 697 13.6666666667 675 47 c 128
 653 80.3333333333 642 128.333333333 642 191 c 0
 642 227.666666667 648.333333333 262.166666667 661 294.5 c 128
 673.666666667 326.833333333 691.666666667 354.666666667 715 378 c 1
 699.666666667 384.666666667 682.166666667 389.833333333 662.5 393.5 c 128
 642.833333333 397.166666667 622.333333333 399 601 399 c 0
 565.666666667 399 535.333333333 393.666666667 510 383 c 1
 538 361 559.166666667 333.833333333 573.5 301.5 c 128
 587.833333333 269.166666667 595 236.333333333 595 203 c 0
 595 131 584.5 78.6666666667 563.5 46 c 128
 542.5 13.3333333333 507.666666667 -3 459 -3 c 0
 412.333333333 -3 377.666666667 14 355 48 c 128
 332.333333333 82 321 129.666666667 321 191 c 0
 321 229 327.166666667 263.5 339.5 294.5 c 128
 351.833333333 325.5 370 353.333333333 394 378 c 1
 362 392 324 399 280 399 c 0
 229.333333333 399 182.666666667 386.666666667 140 362 c 0
 100.666666667 339.333333333 73.6666666667 312.666666667 59 282 c 1
 81 295.333333333 106 302 134 302 c 0
 174.666666667 302 207.666666667 288.333333333 233 261 c 128
 258.333333333 233.666666667 271 198.333333333 271 155 c 0
 271 105.666666667 261.333333333 67.6666666667 242 41 c 0
 220.666666667 11.6666666667 187.666666667 -3 143 -3 c 0
 101 -3 66.6666666667 15.3333333333 40 52 c 0
 11.3333333333 90.6666666667 -3 142.666666667 -3 208 c 0
 -3 282.666666667 25 342.666666667 81 388 c 0
 133.666666667 430.666666667 197.666666667 452 273 452 c 0
 341 452 400.666666667 441 452 419 c 1
 492.666666667 441 539.666666667 452 593 452 c 0
 663 452 722.666666667 440.666666667 772 418 c 1
 810.666666667 440.666666667 857.666666667 452 913 452 c 2
 979 452 l 1
 966.333333333 466 956 481.833333333 948 499.5 c 128
 940 517.166666667 936 536 936 556 c 0
 936 620.666666667 957 669.333333333 999 702 c 0
 1033 728.666666667 1074 742 1122 742 c 0
 1172.66666667 742 1214.33333333 733 1247 715 c 0
 1291 690.333333333 1313 652.333333333 1313 601 c 0
1238 589 m 0
 1238 605.666666667 1232.5 619.833333333 1221.5 631.5 c 128
 1210.5 643.166666667 1196.66666667 649 1180 649 c 1
 1148 642.333333333 1132 622 1132 588 c 0
 1132 574 1136.66666667 561.666666667 1146 551 c 128
 1155.33333333 540.333333333 1167.33333333 535 1182 535 c 0
 1198 535 1211.33333333 540 1222 550 c 128
 1232.66666667 560 1238 573 1238 589 c 0
825 203 m 0
 825 229.666666667 820 255.166666667 810 279.5 c 128
 800 303.833333333 784.666666667 325.333333333 764 344 c 1
 718 305.333333333 695 254.333333333 695 191 c 0
 695 147.666666667 700.5 113.166666667 711.5 87.5 c 128
 722.5 61.8333333333 738.666666667 49 760 49 c 0
 784.666666667 49 801.666666667 61.5 811 86.5 c 128
 820.333333333 111.5 825 150.333333333 825 203 c 0
505 203 m 0
 505 229.666666667 500 255 490 279 c 128
 480 303 464.333333333 324.666666667 443 344 c 1
 397 306 374 255 374 191 c 0
 374 147.666666667 379.5 113.166666667 390.5 87.5 c 128
 401.5 61.8333333333 417.666666667 49 439 49 c 0
 464.333333333 49 481.666666667 61.5 491 86.5 c 128
 500.333333333 111.5 505 150.333333333 505 203 c 0
180 154 m 0
 180 174 173.166666667 192.833333333 159.5 210.5 c 128
 145.833333333 228.166666667 130.666666667 237 114 237 c 256
 97.3333333333 237 83.3333333333 232.333333333 72 223 c 128
 60.6666666667 213.666666667 53 202 49 188 c 1
 49 154 55 126.333333333 67 105 c 128
 79 83.6666666667 97.6666666667 73 123 73 c 0
 141.666666667 73 156.333333333 81.6666666667 167 99 c 0
 175.666666667 113.666666667 180 132 180 154 c 0
EndSplineSet
EndChar

StartChar: u0BA3_u0BC1
Encoding: 98 -1 98
Width: 1445
Flags: HW
AnchorPoint: "V" 627.5 453 basechar 0
AnchorPoint: "N" 627.5 -3 basechar 0
LayerCount: 2
Fore
SplineSet
1349 -76 m 1
 1079 -76 l 1
 987 -189.333333333 820.333333333 -246 579 -246 c 0
 424.333333333 -246 296.166666667 -230.166666667 194.5 -198.5 c 128
 92.8333333333 -166.833333333 28.6666666667 -126.333333333 2 -77 c 0
 -1.33333333333 -71.6666666667 -3 -65.3333333333 -3 -58 c 0
 -3 -48 0.333333333333 -39.6666666667 7 -33 c 128
 13.6666666667 -26.3333333333 24 -23 38 -23 c 2
 996 -23 l 1
 1047.33333333 41.6666666667 1073 116 1073 200 c 0
 1073 256 1057.5 303.166666667 1026.5 341.5 c 128
 995.5 379.833333333 955.333333333 399 906 399 c 0
 878 399 852 394 828 384 c 1
 857.333333333 360.666666667 879.166666667 333.5 893.5 302.5 c 128
 907.833333333 271.5 915 238.333333333 915 203 c 0
 915 131 904.5 78.6666666667 883.5 46 c 128
 862.5 13.3333333333 827.666666667 -3 779 -3 c 0
 731.666666667 -3 697 13.6666666667 675 47 c 128
 653 80.3333333333 642 128.333333333 642 191 c 0
 642 229.666666667 648.166666667 264.333333333 660.5 295 c 128
 672.833333333 325.666666667 691 353 715 377 c 1
 682.333333333 391.666666667 644.333333333 399 601 399 c 0
 565.666666667 399 535.333333333 393.666666667 510 383 c 1
 538 361 559.166666667 333.833333333 573.5 301.5 c 128
 587.833333333 269.166666667 595 236.333333333 595 203 c 0
 595 131 584.5 78.6666666667 563.5 46 c 128
 542.5 13.3333333333 507.666666667 -3 459 -3 c 0
 412.333333333 -3 377.666666667 14 355 48 c 128
 332.333333333 82 321 129.666666667 321 191 c 0
 321 229 327.166666667 263.5 339.5 294.5 c 128
 351.833333333 325.5 370 353.333333333 394 378 c 1
 362 392 324 399 280 399 c 0
 229.333333333 399 182.666666667 386.666666667 140 362 c 0
 101.333333333 340 74.3333333333 313.333333333 59 282 c 1
 81 295.333333333 106 302 134 302 c 0
 174.666666667 302 207.666666667 288.333333333 233 261 c 128
 258.333333333 233.666666667 271 198.333333333 271 155 c 0
 271 105.666666667 261.333333333 67.6666666667 242 41 c 0
 220.666666667 11.6666666667 187.666666667 -3 143 -3 c 0
 101 -3 66.6666666667 15.3333333333 40 52 c 0
 11.3333333333 90.6666666667 -3 142.666666667 -3 208 c 0
 -3 282.666666667 25 342.666666667 81 388 c 0
 133.666666667 430.666666667 197.666666667 452 273 452 c 0
 341 452 400.666666667 441 452 419 c 1
 492.666666667 441 539.666666667 452 593 452 c 0
 629 452 661 449.166666667 689 443.5 c 128
 717 437.833333333 743.666666667 429.333333333 769 418 c 1
 808.333333333 440.666666667 853 452 903 452 c 0
 984.333333333 452 1049 425.666666667 1097 373 c 0
 1141.66666667 323.666666667 1164 262.333333333 1164 189 c 0
 1164 106.333333333 1147.33333333 35.6666666667 1114 -23 c 1
 1257 -23 l 1
 1257 452 l 1
 1349 452 l 1
 1349 -76 l 1
825 203 m 0
 825 229.666666667 820 255 810 279 c 128
 800 303 784.666666667 324.666666667 764 344 c 1
 742.666666667 326 725.833333333 303.666666667 713.5 277 c 128
 701.166666667 250.333333333 695 221.666666667 695 191 c 0
 695 147.666666667 700.5 113.166666667 711.5 87.5 c 128
 722.5 61.8333333333 738.666666667 49 760 49 c 0
 784.666666667 49 801.666666667 61.5 811 86.5 c 128
 820.333333333 111.5 825 150.333333333 825 203 c 0
505 203 m 0
 505 229.666666667 500 255 490 279 c 128
 480 303 464.333333333 324.666666667 443 344 c 1
 397 306 374 255 374 191 c 0
 374 147.666666667 379.5 113.166666667 390.5 87.5 c 128
 401.5 61.8333333333 417.666666667 49 439 49 c 0
 464.333333333 49 481.666666667 61.5 491 86.5 c 128
 500.333333333 111.5 505 150.333333333 505 203 c 0
946 -76 m 1
 78 -76 l 2
 72 -76 68.1666666667 -76.5 66.5 -77.5 c 128
 64.8333333333 -78.5 65 -79.6666666667 67 -81 c 0
 97 -113 158.166666667 -139.833333333 250.5 -161.5 c 128
 342.833333333 -183.166666667 449.666666667 -194 571 -194 c 0
 650.333333333 -194 721.833333333 -183.666666667 785.5 -163 c 128
 849.166666667 -142.333333333 902.666666667 -113.333333333 946 -76 c 1
180 154 m 0
 180 174 173.166666667 192.833333333 159.5 210.5 c 128
 145.833333333 228.166666667 130.666666667 237 114 237 c 256
 97.3333333333 237 83.3333333333 232.333333333 72 223 c 128
 60.6666666667 213.666666667 53 202 49 188 c 1
 49 154 55 126.333333333 67 105 c 128
 79 83.6666666667 97.6666666667 73 123 73 c 0
 141.666666667 73 156.333333333 81.6666666667 167 99 c 0
 175.666666667 113.666666667 180 132 180 154 c 0
EndSplineSet
EndChar

StartChar: u0BA3_u0BC2
Encoding: 99 -1 99
Width: 1687
Flags: HW
AnchorPoint: "V" 627.5 453 basechar 0
AnchorPoint: "N" 627.5 -3 basechar 0
LayerCount: 2
Fore
SplineSet
1591 399 m 1
 1494 399 l 1
 1494 -76 l 1
 1403 -76 l 1
 1403 399 l 1
 1310 399 l 1
 1310 -76 l 1
 1079 -76 l 1
 987 -189.333333333 820.333333333 -246 579 -246 c 0
 424.333333333 -246 296.166666667 -230.166666667 194.5 -198.5 c 128
 92.8333333333 -166.833333333 28.6666666667 -126.333333333 2 -77 c 0
 -1.33333333333 -71.6666666667 -3 -65.3333333333 -3 -58 c 0
 -3 -48 0.333333333333 -39.6666666667 7 -33 c 128
 13.6666666667 -26.3333333333 24 -23 38 -23 c 2
 996 -23 l 1
 1047.33333333 41.6666666667 1073 116 1073 200 c 0
 1073 256 1057.5 303.166666667 1026.5 341.5 c 128
 995.5 379.833333333 955.333333333 399 906 399 c 0
 878 399 852 394 828 384 c 1
 857.333333333 360.666666667 879.166666667 333.5 893.5 302.5 c 128
 907.833333333 271.5 915 238.333333333 915 203 c 0
 915 131 904.5 78.6666666667 883.5 46 c 128
 862.5 13.3333333333 827.666666667 -3 779 -3 c 0
 731.666666667 -3 697 13.6666666667 675 47 c 128
 653 80.3333333333 642 128.333333333 642 191 c 0
 642 229.666666667 648.166666667 264.333333333 660.5 295 c 128
 672.833333333 325.666666667 691 353 715 377 c 1
 682.333333333 391.666666667 644.333333333 399 601 399 c 0
 565.666666667 399 535.333333333 393.666666667 510 383 c 1
 538 361 559.166666667 333.833333333 573.5 301.5 c 128
 587.833333333 269.166666667 595 236.333333333 595 203 c 0
 595 131 584.5 78.6666666667 563.5 46 c 128
 542.5 13.3333333333 507.666666667 -3 459 -3 c 0
 412.333333333 -3 377.666666667 14 355 48 c 128
 332.333333333 82 321 129.666666667 321 191 c 0
 321 229 327.166666667 263.5 339.5 294.5 c 128
 351.833333333 325.5 370 353.333333333 394 378 c 1
 362 392 324 399 280 399 c 0
 229.333333333 399 182.666666667 386.666666667 140 362 c 0
 101.333333333 340 74.3333333333 313.333333333 59 282 c 1
 81 295.333333333 106 302 134 302 c 0
 174.666666667 302 207.666666667 288.333333333 233 261 c 128
 258.333333333 233.666666667 271 198.333333333 271 155 c 0
 271 105.666666667 261.333333333 67.6666666667 242 41 c 0
 220.666666667 11.6666666667 187.666666667 -3 143 -3 c 0
 101 -3 66.6666666667 15.3333333333 40 52 c 0
 11.3333333333 90.6666666667 -3 142.666666667 -3 208 c 0
 -3 282.666666667 25 342.666666667 81 388 c 0
 133.666666667 430.666666667 197.666666667 452 273 452 c 0
 341 452 400.666666667 441 452 419 c 1
 492.666666667 441 539.666666667 452 593 452 c 0
 629 452 661 449.166666667 689 443.5 c 128
 717 437.833333333 743.666666667 429.333333333 769 418 c 1
 808.333333333 440.666666667 853 452 903 452 c 0
 984.333333333 452 1049 425.666666667 1097 373 c 0
 1141.66666667 323.666666667 1164 262.333333333 1164 189 c 0
 1164 106.333333333 1147.33333333 35.6666666667 1114 -23 c 1
 1257 -23 l 1
 1257 452 l 1
 1591 452 l 1
 1591 399 l 1
825 203 m 0
 825 229.666666667 820 255 810 279 c 128
 800 303 784.666666667 324.666666667 764 344 c 1
 742.666666667 326 725.833333333 303.666666667 713.5 277 c 128
 701.166666667 250.333333333 695 221.666666667 695 191 c 0
 695 147.666666667 700.5 113.166666667 711.5 87.5 c 128
 722.5 61.8333333333 738.666666667 49 760 49 c 0
 784.666666667 49 801.666666667 61.5 811 86.5 c 128
 820.333333333 111.5 825 150.333333333 825 203 c 0
505 203 m 0
 505 229.666666667 500 255 490 279 c 128
 480 303 464.333333333 324.666666667 443 344 c 1
 397 306 374 255 374 191 c 0
 374 147.666666667 379.5 113.166666667 390.5 87.5 c 128
 401.5 61.8333333333 417.666666667 49 439 49 c 0
 464.333333333 49 481.666666667 61.5 491 86.5 c 128
 500.333333333 111.5 505 150.333333333 505 203 c 0
946 -76 m 1
 78 -76 l 2
 72 -76 68.1666666667 -76.5 66.5 -77.5 c 128
 64.8333333333 -78.5 65 -79.6666666667 67 -81 c 0
 97 -113 158.166666667 -139.833333333 250.5 -161.5 c 128
 342.833333333 -183.166666667 449.666666667 -194 571 -194 c 0
 650.333333333 -194 721.833333333 -183.666666667 785.5 -163 c 128
 849.166666667 -142.333333333 902.666666667 -113.333333333 946 -76 c 1
180 154 m 0
 180 174 173.166666667 192.833333333 159.5 210.5 c 128
 145.833333333 228.166666667 130.666666667 237 114 237 c 256
 97.3333333333 237 83.3333333333 232.333333333 72 223 c 128
 60.6666666667 213.666666667 53 202 49 188 c 1
 49 154 55 126.333333333 67 105 c 128
 79 83.6666666667 97.6666666667 73 123 73 c 0
 141.666666667 73 156.333333333 81.6666666667 167 99 c 0
 175.666666667 113.666666667 180 132 180 154 c 0
EndSplineSet
EndChar

StartChar: u0BA3_u0BCD
Encoding: 102 -1 102
Width: 1276
Flags: HW
AnchorPoint: "N" 627.5 -3 basechar 0
LayerCount: 2
Fore
SplineSet
694 586 m 256
 694 568.666666667 687.333333333 553.333333333 674 540 c 128
 660.666666667 526.666666667 645 520 627 520 c 256
 609 520 593.5 526.5 580.5 539.5 c 128
 567.5 552.5 561 568 561 586 c 0
 561 603.333333333 567.666666667 618.666666667 581 632 c 128
 594.333333333 645.333333333 609.666666667 652 627 652 c 0
 645 652 660.666666667 645.333333333 674 632 c 128
 687.333333333 618.666666667 694 603.333333333 694 586 c 256
1179 399 m 1
 1082 399 l 1
 1082 -3 l 1
 991 -3 l 1
 991 399 l 1
 920 399 l 2
 886.666666667 399 856 393.666666667 828 383 c 1
 858 359.666666667 880 332.666666667 894 302 c 128
 908 271.333333333 915 238.333333333 915 203 c 0
 915 131 904.5 78.6666666667 883.5 46 c 128
 862.5 13.3333333333 827.666666667 -3 779 -3 c 0
 731.666666667 -3 697 13.6666666667 675 47 c 128
 653 80.3333333333 642 128.333333333 642 191 c 0
 642 227.666666667 648.333333333 262.166666667 661 294.5 c 128
 673.666666667 326.833333333 691.666666667 354.666666667 715 378 c 1
 699.666666667 384.666666667 682.166666667 389.833333333 662.5 393.5 c 128
 642.833333333 397.166666667 622.333333333 399 601 399 c 0
 565.666666667 399 535.333333333 393.666666667 510 383 c 1
 538 361 559.166666667 333.833333333 573.5 301.5 c 128
 587.833333333 269.166666667 595 236.333333333 595 203 c 0
 595 131 584.5 78.6666666667 563.5 46 c 128
 542.5 13.3333333333 507.666666667 -3 459 -3 c 0
 412.333333333 -3 377.666666667 14 355 48 c 128
 332.333333333 82 321 129.666666667 321 191 c 0
 321 229 327.166666667 263.5 339.5 294.5 c 128
 351.833333333 325.5 370 353.333333333 394 378 c 1
 362 392 324 399 280 399 c 0
 229.333333333 399 182.666666667 386.666666667 140 362 c 0
 100.666666667 339.333333333 73.6666666667 312.666666667 59 282 c 1
 81 295.333333333 106 302 134 302 c 0
 174.666666667 302 207.666666667 288.333333333 233 261 c 128
 258.333333333 233.666666667 271 198.333333333 271 155 c 0
 271 105.666666667 261.333333333 67.6666666667 242 41 c 0
 220.666666667 11.6666666667 187.666666667 -3 143 -3 c 0
 101 -3 66.6666666667 15.3333333333 40 52 c 0
 11.3333333333 90.6666666667 -3 142.666666667 -3 208 c 0
 -3 282.666666667 25 342.666666667 81 388 c 0
 133.666666667 430.666666667 197.666666667 452 273 452 c 0
 341 452 400.666666667 441 452 419 c 1
 492.666666667 441 539.666666667 452 593 452 c 0
 663 452 722.666666667 440.666666667 772 418 c 1
 810.666666667 440.666666667 857.666666667 452 913 452 c 2
 1179 452 l 1
 1179 399 l 1
825 203 m 0
 825 229.666666667 820 255.166666667 810 279.5 c 128
 800 303.833333333 784.666666667 325.333333333 764 344 c 1
 718 305.333333333 695 254.333333333 695 191 c 0
 695 147.666666667 700.5 113.166666667 711.5 87.5 c 128
 722.5 61.8333333333 738.666666667 49 760 49 c 0
 784.666666667 49 801.666666667 61.5 811 86.5 c 128
 820.333333333 111.5 825 150.333333333 825 203 c 0
505 203 m 0
 505 229.666666667 500 255 490 279 c 128
 480 303 464.333333333 324.666666667 443 344 c 1
 397 306 374 255 374 191 c 0
 374 147.666666667 379.5 113.166666667 390.5 87.5 c 128
 401.5 61.8333333333 417.666666667 49 439 49 c 0
 464.333333333 49 481.666666667 61.5 491 86.5 c 128
 500.333333333 111.5 505 150.333333333 505 203 c 0
180 154 m 0
 180 174 173.166666667 192.833333333 159.5 210.5 c 128
 145.833333333 228.166666667 130.666666667 237 114 237 c 256
 97.3333333333 237 83.3333333333 232.333333333 72 223 c 128
 60.6666666667 213.666666667 53 202 49 188 c 1
 49 154 55 126.333333333 67 105 c 128
 79 83.6666666667 97.6666666667 73 123 73 c 0
 141.666666667 73 156.333333333 81.6666666667 167 99 c 0
 175.666666667 113.666666667 180 132 180 154 c 0
EndSplineSet
EndChar

StartChar: u0BA4
Encoding: 103 2980 103
Width: 644
Flags: HW
AnchorPoint: "V" 259 453 basechar 0
AnchorPoint: "N" 259 -246 basechar 0
LayerCount: 2
Fore
SplineSet
548 91 m 0
 548 50.3333333333 536 14 512 -18 c 128
 488 -50 455 -73.6666666667 413 -89 c 0
 379 -100.333333333 328 -106.666666667 260 -108 c 128
 192 -109.333333333 145.333333333 -118.333333333 120 -135 c 0
 100 -148.333333333 89.5 -170.166666667 88.5 -200.5 c 128
 87.5 -230.833333333 73 -246 45 -246 c 0
 32.3333333333 -246 21.5 -237.833333333 12.5 -221.5 c 128
 3.5 -205.166666667 -1 -186 -1 -164 c 0
 -1 -149.333333333 1.16666666667 -136.333333333 5.5 -125 c 128
 9.83333333333 -113.666666667 17 -103.666666667 27 -95 c 0
 61 -68.3333333333 119.666666667 -54 203 -52 c 128
 286.333333333 -50 346.666666667 -42.6666666667 384 -30 c 0
 403.333333333 -24 420.666666667 -11 436 9 c 0
 454 31.6666666667 463 55.6666666667 463 81 c 0
 463 104.333333333 461.833333333 123 459.5 137 c 128
 457.166666667 151 453 163.333333333 447 174 c 0
 432.333333333 201.333333333 400.333333333 215 351 215 c 1
 351 109 l 2
 351 84.3333333333 336.666666667 60.6666666667 308 38 c 0
 274 10.6666666667 233 -3 185 -3 c 256
 137 -3 99 8.66666666667 71 32 c 0
 41 57.3333333333 26 94.3333333333 26 143 c 0
 26 178.333333333 37 207.666666667 59 231 c 0
 76.3333333333 249.666666667 95 261 115 265 c 1
 115 452 l 1
 447 452 l 1
 447 399 l 1
 351 399 l 1
 351 267 l 1
 387.666666667 267 419 262.5 445 253.5 c 128
 471 244.5 492.333333333 231 509 213 c 0
 535 185 548 144.333333333 548 91 c 0
260 267 m 1
 260 399 l 1
 167 399 l 1
 167 267 l 1
 260 267 l 1
260 105 m 2
 260 215 l 1
 141 215 l 2
 127.666666667 215 115 209.666666667 103 199 c 0
 86.3333333333 183.666666667 78 162 78 134 c 0
 78 77.3333333333 110 49 174 49 c 0
 191.333333333 49 210 54.8333333333 230 66.5 c 128
 250 78.1666666667 260 91 260 105 c 2
EndSplineSet
EndChar

StartChar: u0BA4_u0BBF
Encoding: 104 -1 104
Width: 752
Flags: HW
AnchorPoint: "V" 259 710.773 basechar 0
AnchorPoint: "N" 259 -246 basechar 0
LayerCount: 2
Fore
SplineSet
656 -3 m 1
 608 -3 l 1
 608 444 l 2
 608 497.333333333 584.166666667 541.333333333 536.5 576 c 128
 488.833333333 610.666666667 429 628 357 628 c 0
 267 628 198 610.5 150 575.5 c 128
 102 540.5 78 492.666666667 78 432 c 0
 78 408.666666667 81.1666666667 385 87.5 361 c 128
 93.8333333333 337 103 316.666666667 115 300 c 1
 115 452 l 1
 447 452 l 1
 447 399 l 1
 351 399 l 1
 351 267 l 1
 387.666666667 267 419 262.5 445 253.5 c 128
 471 244.5 492.333333333 231 509 213 c 0
 535 185 548 144.333333333 548 91 c 0
 548 50.3333333333 536 14 512 -18 c 128
 488 -50 455 -73.6666666667 413 -89 c 0
 379 -100.333333333 328 -106.666666667 260 -108 c 128
 192 -109.333333333 145.333333333 -118.333333333 120 -135 c 0
 100 -148.333333333 89.5 -170.166666667 88.5 -200.5 c 128
 87.5 -230.833333333 73 -246 45 -246 c 0
 32.3333333333 -246 21.5 -237.833333333 12.5 -221.5 c 128
 3.5 -205.166666667 -1 -186 -1 -164 c 0
 -1 -149.333333333 1.16666666667 -136.333333333 5.5 -125 c 128
 9.83333333333 -113.666666667 17 -103.666666667 27 -95 c 0
 61 -68.3333333333 119.666666667 -54 203 -52 c 128
 286.333333333 -50 346.666666667 -42.6666666667 384 -30 c 0
 403.333333333 -24 420.666666667 -11 436 9 c 0
 454 31.6666666667 463 55.6666666667 463 81 c 0
 463 104.333333333 461.833333333 123 459.5 137 c 128
 457.166666667 151 453 163.333333333 447 174 c 0
 432.333333333 201.333333333 400.333333333 215 351 215 c 1
 351 109 l 2
 351 84.3333333333 336.666666667 60.6666666667 308 38 c 0
 274 10.6666666667 233 -3 185 -3 c 256
 137 -3 99 8.66666666667 71 32 c 0
 41 57.3333333333 26 94.3333333333 26 143 c 0
 26 171 32.3333333333 195 45 215 c 0
 55 231 69.3333333333 244.333333333 88 255 c 1
 66.6666666667 275.666666667 51 301.166666667 41 331.5 c 128
 31 361.833333333 26 393.666666667 26 427 c 0
 26 512.333333333 51 580.666666667 101 632 c 0
 158.333333333 690.666666667 243 720 355 720 c 0
 457 720 532.666666667 696.333333333 582 649 c 128
 631.333333333 601.666666667 656 531 656 437 c 2
 656 -3 l 1
260 267 m 1
 260 399 l 1
 167 399 l 1
 167 267 l 1
 260 267 l 1
260 105 m 2
 260 215 l 1
 141 215 l 2
 127.666666667 215 115 209.666666667 103 199 c 0
 86.3333333333 183.666666667 78 162 78 134 c 0
 78 77.3333333333 110 49 174 49 c 0
 191.333333333 49 210 54.8333333333 230 66.5 c 128
 250 78.1666666667 260 91 260 105 c 2
EndSplineSet
EndChar

StartChar: u0BA4_u0BC0
Encoding: 105 -1 105
Width: 644
Flags: HW
AnchorPoint: "V" 259 732.472 basechar 0
AnchorPoint: "N" 259 -246 basechar 0
LayerCount: 2
Fore
SplineSet
548 91 m 0
 548 50.3333333333 536 14 512 -18 c 128
 488 -50 455 -73.6666666667 413 -89 c 0
 379 -100.333333333 328 -106.666666667 260 -108 c 128
 192 -109.333333333 145.333333333 -118.333333333 120 -135 c 0
 100 -148.333333333 89.5 -170.166666667 88.5 -200.5 c 128
 87.5 -230.833333333 73 -246 45 -246 c 0
 32.3333333333 -246 21.5 -237.833333333 12.5 -221.5 c 128
 3.5 -205.166666667 -1 -186 -1 -164 c 0
 -1 -149.333333333 1.16666666667 -136.333333333 5.5 -125 c 128
 9.83333333333 -113.666666667 17 -103.666666667 27 -95 c 0
 61 -68.3333333333 119.666666667 -54 203 -52 c 128
 286.333333333 -50 346.666666667 -42.6666666667 384 -30 c 0
 403.333333333 -24 420.666666667 -11 436 9 c 0
 454 31.6666666667 463 55.6666666667 463 81 c 0
 463 104.333333333 461.833333333 123 459.5 137 c 128
 457.166666667 151 453 163.333333333 447 174 c 0
 432.333333333 201.333333333 400.333333333 215 351 215 c 1
 351 109 l 2
 351 84.3333333333 336.666666667 60.6666666667 308 38 c 0
 274 10.6666666667 233 -3 185 -3 c 256
 137 -3 99 8.66666666667 71 32 c 0
 41 57.3333333333 26 94.3333333333 26 143 c 0
 26 171 32.3333333333 195 45 215 c 0
 55 231 69.3333333333 244.333333333 88 255 c 1
 66.6666666667 275.666666667 51 301.166666667 41 331.5 c 128
 31 361.833333333 26 393.666666667 26 427 c 0
 26 520.333333333 55.8333333333 596.166666667 115.5 654.5 c 128
 175.166666667 712.833333333 252.333333333 742 347 742 c 0
 397.666666667 742 439 733 471 715 c 0
 515 690.333333333 537 652.333333333 537 601 c 0
 537 569 526.166666667 541.833333333 504.5 519.5 c 128
 482.833333333 497.166666667 453.666666667 486 417 486 c 0
 381.666666667 486 354.166666667 496 334.5 516 c 128
 314.833333333 536 305 560.333333333 305 589 c 0
 305 603.666666667 307.333333333 617.833333333 312 631.5 c 128
 316.666666667 645.166666667 323.666666667 656.666666667 333 666 c 1
 320 667 l 1
 250 667 191 641.333333333 143 590 c 0
 99.6666666667 543.333333333 78 490.666666667 78 432 c 0
 78 408.666666667 81.1666666667 385 87.5 361 c 128
 93.8333333333 337 103 316.666666667 115 300 c 1
 115 452 l 1
 447 452 l 1
 447 399 l 1
 351 399 l 1
 351 267 l 1
 387.666666667 267 419 262.5 445 253.5 c 128
 471 244.5 492.333333333 231 509 213 c 0
 535 185 548 144.333333333 548 91 c 0
461 589 m 0
 461 605.666666667 455.5 619.833333333 444.5 631.5 c 128
 433.5 643.166666667 420 649 404 649 c 1
 372 642.333333333 356 622 356 588 c 0
 356 573.333333333 360.833333333 560.833333333 370.5 550.5 c 128
 380.166666667 540.166666667 392.333333333 535 407 535 c 0
 422.333333333 535 435.166666667 540.166666667 445.5 550.5 c 128
 455.833333333 560.833333333 461 573.666666667 461 589 c 0
260 267 m 1
 260 399 l 1
 167 399 l 1
 167 267 l 1
 260 267 l 1
260 105 m 2
 260 215 l 1
 141 215 l 2
 127.666666667 215 115 209.666666667 103 199 c 0
 86.3333333333 183.666666667 78 162 78 134 c 0
 78 77.3333333333 110 49 174 49 c 0
 191.333333333 49 210 54.8333333333 230 66.5 c 128
 250 78.1666666667 260 91 260 105 c 2
EndSplineSet
EndChar

StartChar: u0BA4_u0BC1
Encoding: 106 -1 106
Width: 843
Flags: HW
AnchorPoint: "V" 259 453 basechar 0
AnchorPoint: "N" 259 -246 basechar 0
LayerCount: 2
Fore
SplineSet
747 -76 m 1
 511 -76 l 1
 487 -116 454.666666667 -147.833333333 414 -171.5 c 128
 373.333333333 -195.166666667 324.666666667 -207 268 -207 c 0
 200.666666667 -207 141.666666667 -192.666666667 91 -164 c 0
 49.6666666667 -140.666666667 20 -111.666666667 2 -77 c 0
 -1.33333333333 -69 -3 -61.6666666667 -3 -55 c 0
 -3 -45.6666666667 0.166666666667 -38 6.5 -32 c 128
 12.8333333333 -26 23.3333333333 -23 38 -23 c 2
 442 -23 l 1
 461.333333333 21 471 63.6666666667 471 105 c 0
 471 141 463.333333333 167.666666667 448 185 c 0
 430.666666667 205 401.333333333 215 360 215 c 1
 360 109 l 2
 360 85 345.666666667 61.3333333333 317 38 c 0
 283 10.6666666667 242.333333333 -3 195 -3 c 0
 147 -3 109 8.66666666667 81 32 c 0
 51 57.3333333333 36 94.3333333333 36 143 c 0
 36 178.333333333 47 208 69 232 c 0
 86.3333333333 250.666666667 105 261.666666667 125 265 c 1
 125 452 l 1
 457 452 l 1
 457 399 l 1
 360 399 l 1
 360 267 l 1
 428 267 477.666666667 256 509 234 c 0
 545 208.666666667 563 166 563 106 c 0
 563 61.3333333333 555 18.3333333333 539 -23 c 1
 656 -23 l 1
 656 452 l 1
 747 452 l 1
 747 -76 l 1
270 267 m 1
 270 399 l 1
 176 399 l 1
 176 267 l 1
 270 267 l 1
270 105 m 2
 270 215 l 1
 151 215 l 2
 136.333333333 215 123.333333333 209.666666667 112 199 c 0
 96 184.333333333 88 162.666666667 88 134 c 0
 88 77.3333333333 120 49 184 49 c 0
 201.333333333 49 220 54.8333333333 240 66.5 c 128
 260 78.1666666667 270 91 270 105 c 2
413 -76 m 1
 73 -76 l 2
 67.6666666667 -76 64.3333333333 -76.6666666667 63 -78 c 128
 61.6666666667 -79.3333333333 61.6666666667 -81 63 -83 c 0
 75.6666666667 -101.666666667 98 -117.666666667 130 -131 c 0
 168 -147 211.333333333 -155 260 -155 c 0
 292 -155 320.833333333 -148 346.5 -134 c 128
 372.166666667 -120 394.333333333 -100.666666667 413 -76 c 1
EndSplineSet
EndChar

StartChar: u0BA4_u0BC2
Encoding: 107 -1 107
Width: 1086
Flags: HW
AnchorPoint: "V" 259 453 basechar 0
AnchorPoint: "N" 259 -246 basechar 0
LayerCount: 2
Fore
SplineSet
990 399 m 1
 893 399 l 1
 893 -76 l 1
 802 -76 l 1
 802 399 l 1
 709 399 l 1
 709 -76 l 1
 511 -76 l 1
 487 -116.666666667 456 -148 418 -170 c 0
 376 -194.666666667 326 -207 268 -207 c 0
 200.666666667 -207 141.666666667 -192.666666667 91 -164 c 0
 49.6666666667 -140.666666667 20 -111.666666667 2 -77 c 0
 -1.33333333333 -69 -3 -61.6666666667 -3 -55 c 0
 -3 -45.6666666667 0.166666666667 -38 6.5 -32 c 128
 12.8333333333 -26 23.3333333333 -23 38 -23 c 2
 442 -23 l 1
 461.333333333 21 471 63.6666666667 471 105 c 0
 471 141 463.333333333 167.666666667 448 185 c 0
 430.666666667 205 401.333333333 215 360 215 c 1
 360 109 l 2
 360 85 345.666666667 61.3333333333 317 38 c 0
 283 10.6666666667 242.333333333 -3 195 -3 c 0
 147 -3 109 8.66666666667 81 32 c 0
 51 57.3333333333 36 94.3333333333 36 143 c 0
 36 178.333333333 47 208 69 232 c 0
 86.3333333333 250.666666667 105 261.666666667 125 265 c 1
 125 452 l 1
 457 452 l 1
 457 399 l 1
 360 399 l 1
 360 267 l 1
 428 267 477.666666667 256 509 234 c 0
 545 208.666666667 563 166 563 106 c 0
 563 58.6666666667 555 15.6666666667 539 -23 c 1
 656 -23 l 1
 656 452 l 1
 990 452 l 1
 990 399 l 1
270 267 m 1
 270 399 l 1
 176 399 l 1
 176 267 l 1
 270 267 l 1
270 105 m 2
 270 215 l 1
 151 215 l 2
 136.333333333 215 123.333333333 209.666666667 112 199 c 0
 96 184.333333333 88 162.666666667 88 134 c 0
 88 77.3333333333 120 49 184 49 c 0
 201.333333333 49 220 54.8333333333 240 66.5 c 128
 260 78.1666666667 270 91 270 105 c 2
413 -76 m 1
 73 -76 l 2
 67.6666666667 -76 64.3333333333 -76.6666666667 63 -78 c 128
 61.6666666667 -79.3333333333 61.6666666667 -81 63 -83 c 0
 75.6666666667 -101.666666667 98 -117.666666667 130 -131 c 0
 168 -147 211.333333333 -155 260 -155 c 0
 291.333333333 -155 320.166666667 -147.833333333 346.5 -133.5 c 128
 372.833333333 -119.166666667 395 -100 413 -76 c 1
EndSplineSet
EndChar

StartChar: u0BA4_u0BCD
Encoding: 108 -1 108
Width: 644
Flags: HW
AnchorPoint: "N" 259 -246 basechar 0
LayerCount: 2
Fore
SplineSet
325 586 m 0
 325 568 318.5 552.5 305.5 539.5 c 128
 292.5 526.5 277 520 259 520 c 256
 241 520 225.5 526.5 212.5 539.5 c 128
 199.5 552.5 193 568 193 586 c 256
 193 604 199.5 619.5 212.5 632.5 c 128
 225.5 645.5 241 652 259 652 c 0
 276.333333333 652 291.666666667 645.333333333 305 632 c 128
 318.333333333 618.666666667 325 603.333333333 325 586 c 0
548 91 m 0
 548 50.3333333333 536 14 512 -18 c 128
 488 -50 455 -73.6666666667 413 -89 c 0
 379 -100.333333333 328 -106.666666667 260 -108 c 128
 192 -109.333333333 145.333333333 -118.333333333 120 -135 c 0
 100 -148.333333333 89.5 -170.166666667 88.5 -200.5 c 128
 87.5 -230.833333333 73 -246 45 -246 c 0
 32.3333333333 -246 21.5 -237.833333333 12.5 -221.5 c 128
 3.5 -205.166666667 -1 -186 -1 -164 c 0
 -1 -149.333333333 1.16666666667 -136.333333333 5.5 -125 c 128
 9.83333333333 -113.666666667 17 -103.666666667 27 -95 c 0
 61 -68.3333333333 119.666666667 -54 203 -52 c 128
 286.333333333 -50 346.666666667 -42.6666666667 384 -30 c 0
 403.333333333 -24 420.666666667 -11 436 9 c 0
 454 31.6666666667 463 55.6666666667 463 81 c 0
 463 104.333333333 461.833333333 123 459.5 137 c 128
 457.166666667 151 453 163.333333333 447 174 c 0
 432.333333333 201.333333333 400.333333333 215 351 215 c 1
 351 109 l 2
 351 84.3333333333 336.666666667 60.6666666667 308 38 c 0
 274 10.6666666667 233 -3 185 -3 c 256
 137 -3 99 8.66666666667 71 32 c 0
 41 57.3333333333 26 94.3333333333 26 143 c 0
 26 178.333333333 37 207.666666667 59 231 c 0
 76.3333333333 249.666666667 95 261 115 265 c 1
 115 452 l 1
 447 452 l 1
 447 399 l 1
 351 399 l 1
 351 267 l 1
 387.666666667 267 419 262.5 445 253.5 c 128
 471 244.5 492.333333333 231 509 213 c 0
 535 185 548 144.333333333 548 91 c 0
260 267 m 1
 260 399 l 1
 167 399 l 1
 167 267 l 1
 260 267 l 1
260 105 m 2
 260 215 l 1
 141 215 l 2
 127.666666667 215 115 209.666666667 103 199 c 0
 86.3333333333 183.666666667 78 162 78 134 c 0
 78 77.3333333333 110 49 174 49 c 0
 191.333333333 49 210 54.8333333333 230 66.5 c 128
 250 78.1666666667 260 91 260 105 c 2
EndSplineSet
EndChar

StartChar: u0BA8
Encoding: 109 2984 109
Width: 597
Flags: HW
AnchorPoint: "V" 264 453 basechar 0
AnchorPoint: "N" 264 -246 basechar 0
LayerCount: 2
Fore
SplineSet
500 106 m 0
 500 52 487.666666667 9 463 -23 c 0
 441.666666667 -50.3333333333 408.333333333 -72.3333333333 363 -89 c 0
 341.666666667 -96.3333333333 286.666666667 -103.666666667 198 -111 c 0
 167.333333333 -113.666666667 141.333333333 -121.833333333 120 -135.5 c 128
 98.6666666667 -149.166666667 87.5 -171 86.5 -201 c 128
 85.5 -231 71.6666666667 -246 45 -246 c 0
 32.3333333333 -246 21.5 -237.833333333 12.5 -221.5 c 128
 3.5 -205.166666667 -1 -186 -1 -164 c 0
 -1 -149.333333333 1.16666666667 -136.333333333 5.5 -125 c 128
 9.83333333333 -113.666666667 17 -103.666666667 27 -95 c 0
 57.6666666667 -70.3333333333 107 -56.5 175 -53.5 c 128
 243 -50.5 296 -42.6666666667 334 -30 c 0
 354.666666667 -23.3333333333 371.333333333 -10.6666666667 384 8 c 0
 400.666666667 32.6666666667 409 65 409 105 c 0
 409 139.666666667 400.666666667 167 384 187 c 0
 370 203.666666667 352 212 330 212 c 0
 318 212 308.166666667 210.333333333 300.5 207 c 128
 292.833333333 203.666666667 286.666666667 197.666666667 282 189 c 1
 282 -3 l 1
 191 -3 l 1
 191 399 l 1
 97 399 l 1
 97 -3 l 1
 46 -3 l 1
 46 452 l 1
 378 452 l 1
 378 399 l 1
 282 399 l 1
 282 256 l 1
 300 270 321.666666667 277 347 277 c 0
 396.333333333 277 435.333333333 258 464 220 c 0
 488 188 500 150 500 106 c 0
EndSplineSet
EndChar

